G75*
G70*
%OFA0B0*%
%FSLAX24Y24*%
%IPPOS*%
%LPD*%
%AMOC8*
5,1,8,0,0,1.08239X$1,22.5*
%
%ADD10C,0.1064*%
%ADD11C,0.1830*%
%ADD12C,0.0955*%
%ADD13R,0.0592X0.0671*%
%ADD14R,0.0789X0.1340*%
%ADD15C,0.0671*%
%ADD16C,0.0437*%
%ADD17C,0.0476*%
D10*
X009706Y001494D03*
X002816Y010746D03*
D11*
X001604Y003759D03*
X001604Y005709D03*
D12*
X010254Y003816D03*
X010254Y002766D03*
X011354Y002766D03*
X011354Y003816D03*
D13*
X010628Y005212D03*
X009880Y005212D03*
X009880Y006712D03*
X010628Y006712D03*
X008328Y006712D03*
X007580Y006712D03*
X007580Y007512D03*
X008328Y007512D03*
X008328Y008612D03*
X008328Y009412D03*
X007580Y009412D03*
X007580Y008612D03*
X006728Y008612D03*
X006728Y009412D03*
X005980Y009412D03*
X005980Y008612D03*
X005980Y007512D03*
X006728Y007512D03*
X006728Y006712D03*
X005980Y006712D03*
X005980Y005612D03*
X006728Y005612D03*
X007580Y005612D03*
X008328Y005612D03*
X008328Y004812D03*
X007580Y004812D03*
X006728Y004812D03*
X005980Y004812D03*
X005980Y003712D03*
X006728Y003712D03*
X006728Y002912D03*
X007580Y002912D03*
X007580Y003712D03*
X008328Y003712D03*
X008328Y002912D03*
X005980Y002912D03*
D14*
X006051Y001412D03*
X008256Y001412D03*
D15*
X009304Y002766D03*
X009304Y003816D03*
X002454Y007312D03*
X001654Y007312D03*
X000854Y007312D03*
D16*
X002804Y005962D03*
X003954Y006178D03*
X004804Y006112D03*
X005204Y006362D03*
X004004Y004362D03*
X004454Y004322D03*
X008854Y008062D03*
D17*
X008354Y008612D03*
X005954Y006712D03*
X005154Y008062D03*
X004304Y008062D03*
X003254Y008112D03*
X003104Y004312D03*
X005954Y003712D03*
X007554Y001412D03*
X008254Y001312D03*
X008354Y004812D03*
M02*
