G75*
G70*
%OFA0B0*%
%FSLAX24Y24*%
%IPPOS*%
%LPD*%
%AMOC8*
5,1,8,0,0,1.08239X$1,22.5*
%
%ADD10C,0.0030*%
%ADD11C,0.0040*%
%ADD12C,0.0020*%
%ADD13C,0.0050*%
%ADD14C,0.0060*%
%ADD15R,0.0197X0.0256*%
%ADD16R,0.0180X0.0230*%
%ADD17R,0.0295X0.0571*%
%ADD18R,0.0571X0.0295*%
D10*
X003069Y001327D02*
X003262Y001327D01*
X003165Y001327D02*
X003165Y001618D01*
X003069Y001521D01*
X003117Y001727D02*
X003214Y001727D01*
X003262Y001776D01*
X003262Y002018D01*
X003363Y002018D02*
X003460Y001921D01*
X003557Y002018D01*
X003557Y001727D01*
X003658Y001776D02*
X003706Y001824D01*
X003851Y001824D01*
X003851Y001873D02*
X003851Y001727D01*
X003706Y001727D01*
X003658Y001776D01*
X003706Y001921D02*
X003803Y001921D01*
X003851Y001873D01*
X003952Y001873D02*
X004001Y001921D01*
X004146Y001921D01*
X004098Y001824D02*
X004001Y001824D01*
X003952Y001873D01*
X003952Y001727D02*
X004098Y001727D01*
X004146Y001776D01*
X004098Y001824D01*
X004247Y001873D02*
X004295Y001921D01*
X004441Y001921D01*
X004392Y001824D02*
X004441Y001776D01*
X004392Y001727D01*
X004247Y001727D01*
X004295Y001824D02*
X004247Y001873D01*
X004295Y001824D02*
X004392Y001824D01*
X004146Y001618D02*
X004146Y001327D01*
X004247Y001376D02*
X004295Y001424D01*
X004441Y001424D01*
X004441Y001473D02*
X004392Y001521D01*
X004295Y001521D01*
X004247Y001376D02*
X004295Y001327D01*
X004441Y001327D01*
X004441Y001473D01*
X004542Y001521D02*
X004542Y001327D01*
X004542Y001424D02*
X004639Y001521D01*
X004687Y001521D01*
X004787Y001473D02*
X004787Y001376D01*
X004836Y001327D01*
X004981Y001327D01*
X005082Y001327D02*
X005082Y001618D01*
X005130Y001521D02*
X005227Y001521D01*
X005275Y001473D01*
X005275Y001327D01*
X005082Y001473D02*
X005130Y001521D01*
X004981Y001521D02*
X004836Y001521D01*
X004787Y001473D01*
X004836Y001727D02*
X005030Y001727D01*
X005131Y001776D02*
X005179Y001727D01*
X005276Y001727D01*
X005325Y001776D01*
X005325Y001873D01*
X005276Y001921D01*
X005179Y001921D01*
X005131Y001873D01*
X005131Y001776D01*
X004836Y001727D02*
X004836Y002018D01*
X005426Y001921D02*
X005426Y001776D01*
X005474Y001727D01*
X005522Y001776D01*
X005571Y001727D01*
X005619Y001776D01*
X005619Y001921D01*
X005720Y001873D02*
X005720Y001776D01*
X005769Y001727D01*
X005865Y001727D01*
X005914Y001824D02*
X005720Y001824D01*
X005720Y001873D02*
X005769Y001921D01*
X005865Y001921D01*
X005914Y001873D01*
X005914Y001824D01*
X006015Y001727D02*
X006112Y001727D01*
X006063Y001727D02*
X006063Y002018D01*
X006015Y002018D01*
X006211Y002018D02*
X006260Y002018D01*
X006260Y001727D01*
X006308Y001727D02*
X006211Y001727D01*
X006111Y001618D02*
X006159Y001569D01*
X005966Y001376D01*
X006014Y001327D01*
X006111Y001327D01*
X006159Y001376D01*
X006159Y001569D01*
X006111Y001618D02*
X006014Y001618D01*
X005966Y001569D01*
X005966Y001376D01*
X005865Y001327D02*
X005671Y001327D01*
X005865Y001521D01*
X005865Y001569D01*
X005816Y001618D01*
X005720Y001618D01*
X005671Y001569D01*
X006261Y001521D02*
X006357Y001618D01*
X006357Y001327D01*
X006261Y001327D02*
X006454Y001327D01*
X006555Y001327D02*
X006749Y001521D01*
X006749Y001569D01*
X006700Y001618D01*
X006604Y001618D01*
X006555Y001569D01*
X006555Y001327D02*
X006749Y001327D01*
X008355Y002827D02*
X008479Y002951D01*
X008479Y003198D01*
X008600Y003136D02*
X008662Y003198D01*
X008785Y003198D01*
X008847Y003136D01*
X008847Y003074D01*
X008785Y003013D01*
X008847Y002951D01*
X008847Y002889D01*
X008785Y002827D01*
X008662Y002827D01*
X008600Y002889D01*
X008724Y003013D02*
X008785Y003013D01*
X008355Y002827D02*
X008232Y002951D01*
X008232Y003198D01*
X008355Y003827D02*
X008479Y003951D01*
X008479Y004198D01*
X008600Y004074D02*
X008724Y004198D01*
X008724Y003827D01*
X008847Y003827D02*
X008600Y003827D01*
X008355Y003827D02*
X008232Y003951D01*
X008232Y004198D01*
X006751Y003218D02*
X006751Y002927D01*
X006799Y002927D02*
X006702Y002927D01*
X006601Y002927D02*
X006601Y003073D01*
X006553Y003121D01*
X006456Y003121D01*
X006456Y003024D02*
X006601Y003024D01*
X006601Y002927D02*
X006456Y002927D01*
X006408Y002976D01*
X006456Y003024D01*
X006307Y003073D02*
X006307Y002927D01*
X006307Y003073D02*
X006258Y003121D01*
X006162Y003121D01*
X006113Y003073D01*
X006014Y003121D02*
X005917Y003121D01*
X005965Y003169D02*
X005965Y002976D01*
X006014Y002927D01*
X006113Y002927D02*
X006113Y003218D01*
X005816Y003073D02*
X005816Y002927D01*
X005816Y003073D02*
X005767Y003121D01*
X005622Y003121D01*
X005622Y002927D01*
X005521Y003024D02*
X005327Y003024D01*
X005327Y002976D02*
X005327Y003073D01*
X005376Y003121D01*
X005473Y003121D01*
X005521Y003073D01*
X005521Y003024D01*
X005473Y002927D02*
X005376Y002927D01*
X005327Y002976D01*
X005226Y002976D02*
X005178Y003024D01*
X005081Y003024D01*
X005033Y003073D01*
X005081Y003121D01*
X005226Y003121D01*
X005226Y002976D02*
X005178Y002927D01*
X005033Y002927D01*
X004932Y002976D02*
X004932Y003073D01*
X004883Y003121D01*
X004787Y003121D01*
X004738Y003073D01*
X004738Y002976D01*
X004787Y002927D01*
X004883Y002927D01*
X004932Y002976D01*
X004637Y002927D02*
X004540Y003024D01*
X004589Y003024D02*
X004444Y003024D01*
X004444Y002927D02*
X004444Y003218D01*
X004589Y003218D01*
X004637Y003169D01*
X004637Y003073D01*
X004589Y003024D01*
X004048Y003073D02*
X004048Y002927D01*
X004048Y003073D02*
X003999Y003121D01*
X003854Y003121D01*
X003854Y002927D01*
X003753Y002927D02*
X003753Y003073D01*
X003705Y003121D01*
X003608Y003121D01*
X003608Y003024D02*
X003753Y003024D01*
X003753Y002927D02*
X003608Y002927D01*
X003560Y002976D01*
X003608Y003024D01*
X003460Y002927D02*
X003363Y002927D01*
X003412Y002927D02*
X003412Y003218D01*
X003363Y003218D01*
X003262Y003121D02*
X003262Y002927D01*
X003262Y003073D02*
X003069Y003073D01*
X003069Y003121D02*
X003165Y003218D01*
X003262Y003121D01*
X003069Y003121D02*
X003069Y002927D01*
X003069Y002018D02*
X003069Y001776D01*
X003117Y001727D01*
X003363Y001727D02*
X003363Y002018D01*
X003460Y001618D02*
X003460Y001327D01*
X003363Y001327D02*
X003557Y001327D01*
X003363Y001521D02*
X003460Y001618D01*
X003952Y001618D02*
X003952Y001327D01*
X004049Y001521D02*
X004146Y001618D01*
X004049Y001521D02*
X003952Y001618D01*
X006702Y003218D02*
X006751Y003218D01*
X006247Y005327D02*
X006000Y005327D01*
X006124Y005327D02*
X006124Y005698D01*
X006000Y005574D01*
X005879Y005636D02*
X005817Y005698D01*
X005694Y005698D01*
X005632Y005636D01*
X005632Y005389D01*
X005694Y005327D01*
X005817Y005327D01*
X005879Y005389D01*
X005510Y005327D02*
X005386Y005327D01*
X005448Y005327D02*
X005448Y005698D01*
X005386Y005698D02*
X005510Y005698D01*
X004769Y006477D02*
X004522Y006477D01*
X004769Y006724D01*
X004769Y006786D01*
X004707Y006848D01*
X004583Y006848D01*
X004522Y006786D01*
X004400Y006786D02*
X004339Y006848D01*
X004215Y006848D01*
X004153Y006786D01*
X004153Y006539D01*
X004215Y006477D01*
X004339Y006477D01*
X004400Y006539D01*
X004031Y006477D02*
X003908Y006477D01*
X003970Y006477D02*
X003970Y006848D01*
X004031Y006848D02*
X003908Y006848D01*
X003434Y006824D02*
X003434Y006886D01*
X003372Y006948D01*
X003249Y006948D01*
X003187Y006886D01*
X003065Y006886D02*
X003004Y006948D01*
X002880Y006948D01*
X002819Y006886D01*
X002819Y006639D01*
X002880Y006577D01*
X003004Y006577D01*
X003065Y006639D01*
X003187Y006577D02*
X003434Y006824D01*
X003434Y006577D02*
X003187Y006577D01*
X002453Y007727D02*
X002453Y007974D01*
X002453Y008096D02*
X002392Y008219D01*
X002392Y008281D01*
X002453Y008343D01*
X002577Y008343D01*
X002639Y008281D01*
X002639Y008157D01*
X002577Y008096D01*
X002453Y008096D02*
X002268Y008096D01*
X002268Y008343D01*
X002268Y008464D02*
X002515Y008464D01*
X002639Y008587D01*
X002515Y008711D01*
X002268Y008711D01*
X001839Y008649D02*
X001839Y008464D01*
X001468Y008464D01*
X001468Y008649D01*
X001530Y008711D01*
X001777Y008711D01*
X001839Y008649D01*
X001839Y008343D02*
X001468Y008343D01*
X001468Y008096D02*
X001839Y008343D01*
X001839Y008096D02*
X001468Y008096D01*
X001530Y007974D02*
X001468Y007913D01*
X001468Y007789D01*
X001530Y007727D01*
X001777Y007727D01*
X001839Y007789D01*
X001839Y007913D01*
X001777Y007974D01*
X001653Y007974D01*
X001653Y007851D01*
X001039Y007901D02*
X000915Y008024D01*
X000668Y008024D01*
X000792Y008207D02*
X000853Y008146D01*
X000977Y008146D01*
X001039Y008207D01*
X001039Y008331D01*
X000977Y008393D01*
X000853Y008393D01*
X000792Y008331D01*
X000792Y008207D01*
X001039Y007901D02*
X000915Y007777D01*
X000668Y007777D01*
X000792Y008514D02*
X000977Y008514D01*
X001039Y008576D01*
X001039Y008761D01*
X000792Y008761D01*
X000792Y008882D02*
X000792Y009006D01*
X000730Y008944D02*
X000977Y008944D01*
X001039Y009006D01*
X002330Y007851D02*
X002577Y007851D01*
X002844Y005248D02*
X002782Y005186D01*
X002782Y004939D01*
X002844Y004877D01*
X002967Y004877D01*
X003029Y004939D01*
X003150Y004877D02*
X003397Y004877D01*
X003274Y004877D02*
X003274Y005248D01*
X003150Y005124D01*
X003029Y005186D02*
X002967Y005248D01*
X002844Y005248D01*
X005769Y007339D02*
X005830Y007277D01*
X005954Y007277D01*
X006015Y007339D01*
X006137Y007339D02*
X006199Y007277D01*
X006322Y007277D01*
X006384Y007339D01*
X006384Y007401D01*
X006322Y007463D01*
X006260Y007463D01*
X006322Y007463D02*
X006384Y007524D01*
X006384Y007586D01*
X006322Y007648D01*
X006199Y007648D01*
X006137Y007586D01*
X006015Y007586D02*
X005954Y007648D01*
X005830Y007648D01*
X005769Y007586D01*
X005769Y007339D01*
D11*
X005513Y007522D02*
X005513Y007812D01*
X004994Y007812D02*
X004994Y007512D01*
X003513Y007572D02*
X003513Y007862D01*
X002994Y007862D02*
X002994Y007562D01*
X002917Y009532D02*
X002841Y009609D01*
X002841Y009763D01*
X002917Y009839D01*
X003071Y009839D01*
X003148Y009763D01*
X003148Y009686D01*
X002841Y009686D01*
X002687Y009686D02*
X002687Y009609D01*
X002611Y009532D01*
X002457Y009532D01*
X002380Y009609D01*
X002227Y009532D02*
X002074Y009532D01*
X002150Y009532D02*
X002150Y009839D01*
X002074Y009839D01*
X002150Y009993D02*
X002150Y010070D01*
X002380Y009916D02*
X002380Y009839D01*
X002457Y009763D01*
X002611Y009763D01*
X002687Y009686D01*
X002687Y009916D02*
X002611Y009993D01*
X002457Y009993D01*
X002380Y009916D01*
X002917Y009532D02*
X003071Y009532D01*
X003301Y009532D02*
X003301Y009839D01*
X003531Y009839D01*
X003608Y009763D01*
X003608Y009532D01*
X003761Y009532D02*
X003992Y009532D01*
X004068Y009609D01*
X003992Y009686D01*
X003838Y009686D01*
X003761Y009763D01*
X003838Y009839D01*
X004068Y009839D01*
X004222Y009763D02*
X004299Y009839D01*
X004452Y009839D01*
X004529Y009763D01*
X004529Y009686D01*
X004222Y009686D01*
X004222Y009609D02*
X004222Y009763D01*
X004222Y009609D02*
X004299Y009532D01*
X004452Y009532D01*
X004682Y009532D02*
X004682Y009993D01*
X004912Y009993D01*
X004989Y009916D01*
X004989Y009763D01*
X004912Y009686D01*
X004682Y009686D01*
X005143Y009686D02*
X005296Y009839D01*
X005373Y009839D01*
X005143Y009839D02*
X005143Y009532D01*
X005526Y009609D02*
X005603Y009532D01*
X005756Y009532D01*
X005833Y009609D01*
X005833Y009763D01*
X005756Y009839D01*
X005603Y009839D01*
X005526Y009763D01*
X005526Y009609D01*
X005987Y009379D02*
X006063Y009379D01*
X006140Y009456D01*
X006140Y009839D01*
X006140Y009993D02*
X006140Y010070D01*
X006370Y009839D02*
X006524Y009839D01*
X006600Y009763D01*
X006600Y009686D01*
X006293Y009686D01*
X006293Y009763D02*
X006370Y009839D01*
X006293Y009763D02*
X006293Y009609D01*
X006370Y009532D01*
X006524Y009532D01*
X006754Y009609D02*
X006754Y009763D01*
X006830Y009839D01*
X007061Y009839D01*
X007214Y009839D02*
X007368Y009839D01*
X007291Y009916D02*
X007291Y009609D01*
X007368Y009532D01*
X007521Y009532D02*
X007521Y009609D01*
X007598Y009609D01*
X007598Y009532D01*
X007521Y009532D01*
X007751Y009609D02*
X007751Y009763D01*
X007828Y009839D01*
X007981Y009839D01*
X008058Y009763D01*
X008058Y009609D01*
X007981Y009532D01*
X007828Y009532D01*
X007751Y009609D01*
X008212Y009532D02*
X008212Y009839D01*
X008212Y009686D02*
X008365Y009839D01*
X008442Y009839D01*
X008595Y009763D02*
X008595Y009609D01*
X008672Y009532D01*
X008902Y009532D01*
X008902Y009456D02*
X008902Y009839D01*
X008672Y009839D01*
X008595Y009763D01*
X008902Y009456D02*
X008825Y009379D01*
X008749Y009379D01*
X007061Y009532D02*
X006830Y009532D01*
X006754Y009609D01*
X003694Y004572D02*
X003404Y004572D01*
X003404Y004053D02*
X003704Y004053D01*
D12*
X003321Y002743D02*
X003285Y002743D01*
X003321Y002743D02*
X003321Y002522D01*
X003285Y002522D02*
X003358Y002522D01*
X003432Y002559D02*
X003469Y002596D01*
X003579Y002596D01*
X003579Y002633D02*
X003579Y002522D01*
X003469Y002522D01*
X003432Y002559D01*
X003469Y002669D02*
X003542Y002669D01*
X003579Y002633D01*
X003653Y002669D02*
X003653Y002522D01*
X003800Y002522D02*
X003800Y002633D01*
X003763Y002669D01*
X003653Y002669D01*
X003874Y002486D02*
X004021Y002486D01*
X004095Y002522D02*
X004095Y002743D01*
X004205Y002743D01*
X004242Y002706D01*
X004242Y002633D01*
X004205Y002596D01*
X004095Y002596D01*
X004168Y002596D02*
X004242Y002522D01*
X004316Y002559D02*
X004352Y002522D01*
X004426Y002522D01*
X004463Y002559D01*
X004463Y002633D01*
X004426Y002669D01*
X004352Y002669D01*
X004316Y002633D01*
X004316Y002559D01*
X004205Y002379D02*
X004205Y002343D01*
X004205Y002269D02*
X004205Y002122D01*
X004168Y002122D02*
X004242Y002122D01*
X004316Y002122D02*
X004316Y002269D01*
X004426Y002269D01*
X004463Y002233D01*
X004463Y002122D01*
X004537Y002159D02*
X004537Y002233D01*
X004573Y002269D01*
X004684Y002269D01*
X004684Y002086D01*
X004647Y002049D01*
X004610Y002049D01*
X004573Y002122D02*
X004684Y002122D01*
X004573Y002122D02*
X004537Y002159D01*
X004205Y002269D02*
X004168Y002269D01*
X004094Y002269D02*
X004094Y002086D01*
X004058Y002049D01*
X004021Y002049D01*
X003984Y002122D02*
X004094Y002122D01*
X003984Y002122D02*
X003947Y002159D01*
X003947Y002233D01*
X003984Y002269D01*
X004094Y002269D01*
X003873Y002233D02*
X003873Y002122D01*
X003763Y002122D01*
X003726Y002159D01*
X003763Y002196D01*
X003873Y002196D01*
X003873Y002233D02*
X003837Y002269D01*
X003763Y002269D01*
X003652Y002269D02*
X003652Y002086D01*
X003616Y002049D01*
X003579Y002049D01*
X003542Y002122D02*
X003652Y002122D01*
X003542Y002122D02*
X003506Y002159D01*
X003506Y002233D01*
X003542Y002269D01*
X003652Y002269D01*
X003431Y002233D02*
X003431Y002122D01*
X003431Y002233D02*
X003395Y002269D01*
X003285Y002269D01*
X003285Y002122D01*
X003210Y002122D02*
X003064Y002122D01*
X003064Y002343D01*
X003210Y002343D01*
X003137Y002233D02*
X003064Y002233D01*
X003064Y002522D02*
X003064Y002669D01*
X003137Y002743D01*
X003210Y002669D01*
X003210Y002522D01*
X003210Y002633D02*
X003064Y002633D01*
X004537Y002633D02*
X004573Y002669D01*
X004684Y002669D01*
X004647Y002596D02*
X004573Y002596D01*
X004537Y002633D01*
X004537Y002522D02*
X004647Y002522D01*
X004684Y002559D01*
X004647Y002596D01*
X004758Y002596D02*
X004905Y002596D01*
X004905Y002633D01*
X004868Y002669D01*
X004794Y002669D01*
X004758Y002633D01*
X004758Y002559D01*
X004794Y002522D01*
X004868Y002522D01*
X004979Y002522D02*
X004979Y002669D01*
X005089Y002669D01*
X005126Y002633D01*
X005126Y002522D01*
X005236Y002559D02*
X005273Y002522D01*
X005236Y002559D02*
X005236Y002706D01*
X005200Y002669D02*
X005273Y002669D01*
X005347Y002633D02*
X005384Y002669D01*
X005457Y002669D01*
X005494Y002633D01*
X005494Y002522D01*
X005568Y002559D02*
X005605Y002596D01*
X005715Y002596D01*
X005715Y002633D02*
X005715Y002522D01*
X005605Y002522D01*
X005568Y002559D01*
X005605Y002669D02*
X005678Y002669D01*
X005715Y002633D01*
X005789Y002743D02*
X005826Y002743D01*
X005826Y002522D01*
X005862Y002522D02*
X005789Y002522D01*
X005936Y002559D02*
X005936Y002706D01*
X005973Y002743D01*
X006046Y002743D01*
X006083Y002706D01*
X006083Y002633D01*
X006046Y002596D01*
X006046Y002669D01*
X005973Y002669D01*
X005973Y002596D01*
X006046Y002596D01*
X006083Y002559D02*
X006046Y002522D01*
X005973Y002522D01*
X005936Y002559D01*
X006157Y002522D02*
X006267Y002522D01*
X006304Y002559D01*
X006267Y002596D01*
X006194Y002596D01*
X006157Y002633D01*
X006194Y002669D01*
X006304Y002669D01*
X006378Y002669D02*
X006452Y002669D01*
X006415Y002706D02*
X006415Y002559D01*
X006452Y002522D01*
X006526Y002559D02*
X006562Y002522D01*
X006672Y002522D01*
X006672Y002669D01*
X006747Y002633D02*
X006783Y002669D01*
X006893Y002669D01*
X006893Y002743D02*
X006893Y002522D01*
X006783Y002522D01*
X006747Y002559D01*
X006747Y002633D01*
X006968Y002633D02*
X007004Y002669D01*
X007078Y002669D01*
X007114Y002633D01*
X007114Y002596D01*
X006968Y002596D01*
X006968Y002559D02*
X006968Y002633D01*
X006968Y002559D02*
X007004Y002522D01*
X007078Y002522D01*
X007189Y002522D02*
X007189Y002669D01*
X007299Y002669D01*
X007335Y002633D01*
X007335Y002522D01*
X007446Y002559D02*
X007483Y002522D01*
X007446Y002559D02*
X007446Y002706D01*
X007410Y002669D02*
X007483Y002669D01*
X007557Y002559D02*
X007594Y002559D01*
X007594Y002522D01*
X007557Y002522D01*
X007557Y002559D01*
X007667Y002559D02*
X007704Y002522D01*
X007814Y002522D01*
X007814Y002669D01*
X007888Y002669D02*
X007925Y002669D01*
X007962Y002633D01*
X007998Y002669D01*
X008035Y002633D01*
X008035Y002522D01*
X007962Y002522D02*
X007962Y002633D01*
X007888Y002669D02*
X007888Y002522D01*
X008109Y002522D02*
X008183Y002522D01*
X008146Y002522D02*
X008146Y002743D01*
X008109Y002743D01*
X008257Y002559D02*
X008293Y002559D01*
X008293Y002522D01*
X008257Y002522D01*
X008257Y002559D01*
X008367Y002559D02*
X008404Y002522D01*
X008477Y002522D01*
X008514Y002596D02*
X008367Y002596D01*
X008367Y002633D02*
X008404Y002669D01*
X008477Y002669D01*
X008514Y002633D01*
X008514Y002596D01*
X008588Y002633D02*
X008625Y002669D01*
X008735Y002669D01*
X008735Y002743D02*
X008735Y002522D01*
X008625Y002522D01*
X008588Y002559D01*
X008588Y002633D01*
X008367Y002633D02*
X008367Y002559D01*
X008035Y002233D02*
X008035Y002159D01*
X007998Y002122D01*
X007888Y002122D01*
X007888Y002049D02*
X007888Y002269D01*
X007998Y002269D01*
X008035Y002233D01*
X007814Y002269D02*
X007814Y002122D01*
X007704Y002122D01*
X007667Y002159D01*
X007667Y002269D01*
X007593Y002233D02*
X007556Y002269D01*
X007483Y002269D01*
X007446Y002233D01*
X007446Y002159D01*
X007483Y002122D01*
X007556Y002122D01*
X007593Y002159D01*
X007593Y002233D01*
X007372Y002269D02*
X007336Y002269D01*
X007262Y002196D01*
X007262Y002269D02*
X007262Y002122D01*
X007188Y002159D02*
X007188Y002233D01*
X007115Y002233D01*
X007188Y002306D02*
X007151Y002343D01*
X007078Y002343D01*
X007041Y002306D01*
X007041Y002159D01*
X007078Y002122D01*
X007151Y002122D01*
X007188Y002159D01*
X006746Y002122D02*
X006636Y002122D01*
X006599Y002159D01*
X006599Y002233D01*
X006636Y002269D01*
X006746Y002269D01*
X006746Y002086D01*
X006709Y002049D01*
X006673Y002049D01*
X006525Y002122D02*
X006525Y002233D01*
X006488Y002269D01*
X006378Y002269D01*
X006378Y002122D01*
X006304Y002122D02*
X006231Y002122D01*
X006268Y002122D02*
X006268Y002269D01*
X006231Y002269D01*
X006157Y002269D02*
X006084Y002269D01*
X006120Y002306D02*
X006120Y002159D01*
X006157Y002122D01*
X006009Y002122D02*
X006009Y002269D01*
X006009Y002122D02*
X005899Y002122D01*
X005863Y002159D01*
X005863Y002269D01*
X005788Y002233D02*
X005788Y002159D01*
X005752Y002122D01*
X005642Y002122D01*
X005642Y002049D02*
X005642Y002269D01*
X005752Y002269D01*
X005788Y002233D01*
X005567Y002233D02*
X005567Y002122D01*
X005494Y002122D02*
X005494Y002233D01*
X005531Y002269D01*
X005567Y002233D01*
X005494Y002233D02*
X005457Y002269D01*
X005421Y002269D01*
X005421Y002122D01*
X005346Y002159D02*
X005346Y002233D01*
X005310Y002269D01*
X005236Y002269D01*
X005200Y002233D01*
X005200Y002159D01*
X005236Y002122D01*
X005310Y002122D01*
X005346Y002159D01*
X005126Y002159D02*
X005089Y002122D01*
X005015Y002122D01*
X004979Y002159D01*
X004979Y002306D01*
X005015Y002343D01*
X005089Y002343D01*
X005126Y002306D01*
X005347Y002522D02*
X005347Y002743D01*
X006268Y002379D02*
X006268Y002343D01*
X006526Y002559D02*
X006526Y002669D01*
X007667Y002669D02*
X007667Y002559D01*
X008809Y002559D02*
X008846Y002522D01*
X008956Y002522D01*
X008956Y002669D01*
X008809Y002669D02*
X008809Y002559D01*
X008739Y008972D02*
X008833Y008972D01*
X008880Y009019D01*
X008880Y009113D01*
X008833Y009159D01*
X008739Y009159D01*
X008693Y009113D01*
X008693Y009019D01*
X008739Y008972D01*
X008603Y009019D02*
X008557Y008972D01*
X008416Y008972D01*
X008416Y009253D01*
X008557Y009253D01*
X008603Y009206D01*
X008603Y009159D01*
X008557Y009113D01*
X008416Y009113D01*
X008557Y009113D02*
X008603Y009066D01*
X008603Y009019D01*
X008969Y009019D02*
X009016Y009066D01*
X009156Y009066D01*
X009156Y009113D02*
X009156Y008972D01*
X009016Y008972D01*
X008969Y009019D01*
X009016Y009159D02*
X009109Y009159D01*
X009156Y009113D01*
X009245Y009159D02*
X009245Y008972D01*
X009245Y009066D02*
X009339Y009159D01*
X009385Y009159D01*
X009475Y009113D02*
X009475Y009019D01*
X009522Y008972D01*
X009662Y008972D01*
X009662Y009253D01*
X009662Y009159D02*
X009522Y009159D01*
X009475Y009113D01*
X010028Y009159D02*
X010121Y008972D01*
X010215Y009159D01*
X010304Y009159D02*
X010397Y009253D01*
X010397Y008972D01*
X010304Y008972D02*
X010491Y008972D01*
X010580Y008972D02*
X010627Y008972D01*
X010627Y009019D01*
X010580Y009019D01*
X010580Y008972D01*
X010718Y009019D02*
X010905Y009206D01*
X010905Y009019D01*
X010858Y008972D01*
X010765Y008972D01*
X010718Y009019D01*
X010718Y009206D01*
X010765Y009253D01*
X010858Y009253D01*
X010905Y009206D01*
X008050Y009159D02*
X008004Y009159D01*
X007910Y009066D01*
X007910Y009159D02*
X007910Y008972D01*
X007821Y009019D02*
X007821Y009113D01*
X007774Y009159D01*
X007681Y009159D01*
X007634Y009113D01*
X007634Y009019D01*
X007681Y008972D01*
X007774Y008972D01*
X007821Y009019D01*
X007544Y009019D02*
X007498Y009066D01*
X007404Y009066D01*
X007358Y009113D01*
X007404Y009159D01*
X007544Y009159D01*
X007544Y009019D02*
X007498Y008972D01*
X007358Y008972D01*
X007268Y008972D02*
X007268Y009113D01*
X007222Y009159D01*
X007081Y009159D01*
X007081Y008972D01*
X006992Y009066D02*
X006805Y009066D01*
X006805Y009019D02*
X006805Y009113D01*
X006852Y009159D01*
X006945Y009159D01*
X006992Y009113D01*
X006992Y009066D01*
X006945Y008972D02*
X006852Y008972D01*
X006805Y009019D01*
X006716Y009019D02*
X006669Y008972D01*
X006576Y008972D01*
X006529Y009019D01*
X006576Y009113D02*
X006669Y009113D01*
X006716Y009066D01*
X006716Y009019D01*
X006576Y009113D02*
X006529Y009159D01*
X006529Y009206D01*
X006576Y009253D01*
X006669Y009253D01*
X006716Y009206D01*
X006162Y008972D02*
X006069Y008972D01*
X006115Y008972D02*
X006115Y009253D01*
X006069Y009253D01*
X005933Y009159D02*
X005979Y009113D01*
X005979Y008972D01*
X005839Y008972D01*
X005792Y009019D01*
X005839Y009066D01*
X005979Y009066D01*
X005933Y009159D02*
X005839Y009159D01*
X005703Y009113D02*
X005703Y008972D01*
X005703Y009113D02*
X005656Y009159D01*
X005516Y009159D01*
X005516Y008972D01*
X005426Y009159D02*
X005379Y009159D01*
X005286Y009066D01*
X005197Y009066D02*
X005197Y009113D01*
X005150Y009159D01*
X005057Y009159D01*
X005010Y009113D01*
X005010Y009019D01*
X005057Y008972D01*
X005150Y008972D01*
X005197Y009066D02*
X005010Y009066D01*
X004919Y009159D02*
X004826Y009159D01*
X004872Y009206D02*
X004872Y009019D01*
X004919Y008972D01*
X004736Y008972D02*
X004549Y009159D01*
X004460Y009253D02*
X004273Y009253D01*
X004273Y008972D01*
X004460Y008972D01*
X004549Y008972D02*
X004736Y009159D01*
X004367Y009113D02*
X004273Y009113D01*
X003906Y009159D02*
X003813Y009159D01*
X003860Y009206D02*
X003860Y009019D01*
X003906Y008972D01*
X003724Y008972D02*
X003724Y009113D01*
X003677Y009159D01*
X003537Y009159D01*
X003537Y008972D01*
X003446Y008972D02*
X003353Y008972D01*
X003399Y008972D02*
X003399Y009159D01*
X003353Y009159D01*
X003263Y009113D02*
X003263Y009019D01*
X003216Y008972D01*
X003123Y008972D01*
X003076Y009019D01*
X003076Y009113D01*
X003123Y009159D01*
X003216Y009159D01*
X003263Y009113D01*
X003399Y009253D02*
X003399Y009299D01*
X002987Y009206D02*
X002987Y009113D01*
X002940Y009066D01*
X002800Y009066D01*
X002800Y008972D02*
X002800Y009253D01*
X002940Y009253D01*
X002987Y009206D01*
X002711Y009253D02*
X002711Y008972D01*
X002524Y009253D01*
X002524Y008972D01*
X002433Y008972D02*
X002340Y008972D01*
X002386Y008972D02*
X002386Y009253D01*
X002340Y009253D02*
X002433Y009253D01*
X002250Y009206D02*
X002250Y009113D01*
X002204Y009066D01*
X002064Y009066D01*
X002064Y008972D02*
X002064Y009253D01*
X002204Y009253D01*
X002250Y009206D01*
X005286Y009159D02*
X005286Y008972D01*
D13*
X005072Y010325D02*
X005276Y010528D01*
X005276Y010935D01*
X004869Y010935D02*
X004869Y010528D01*
X005072Y010325D01*
X004668Y010427D02*
X004566Y010325D01*
X004363Y010325D01*
X004261Y010427D01*
X004261Y010630D02*
X004465Y010732D01*
X004566Y010732D01*
X004668Y010630D01*
X004668Y010427D01*
X004261Y010630D02*
X004261Y010935D01*
X004668Y010935D01*
X004060Y010630D02*
X003653Y010630D01*
X006084Y010732D02*
X006288Y010732D01*
X006186Y010834D02*
X006186Y010427D01*
X006288Y010325D01*
X006489Y010427D02*
X006489Y010630D01*
X006591Y010732D01*
X006795Y010732D01*
X006896Y010630D01*
X006896Y010427D01*
X006795Y010325D01*
X006591Y010325D01*
X006489Y010427D01*
X007705Y010630D02*
X008112Y010630D01*
X008312Y010630D02*
X008516Y010732D01*
X008618Y010732D01*
X008719Y010630D01*
X008719Y010427D01*
X008618Y010325D01*
X008414Y010325D01*
X008312Y010427D01*
X008312Y010630D02*
X008312Y010935D01*
X008719Y010935D01*
X008920Y010935D02*
X008920Y010528D01*
X009124Y010325D01*
X009327Y010528D01*
X009327Y010935D01*
X007908Y010834D02*
X007908Y010427D01*
D14*
X004853Y007922D02*
X004853Y007403D01*
X003733Y007403D01*
X003733Y007922D01*
X004853Y007922D01*
X004972Y005781D02*
X005009Y005781D01*
X005326Y005781D02*
X005363Y005781D01*
X005363Y005144D01*
X005326Y005144D01*
X005363Y005144D02*
X004244Y005144D01*
X004281Y005144D01*
X004244Y005144D02*
X004244Y005781D01*
X004281Y005781D01*
X004244Y005781D02*
X005363Y005781D01*
X005009Y005144D02*
X004598Y005144D01*
X004598Y005781D02*
X004635Y005781D01*
D15*
X004430Y005925D03*
X004804Y005925D03*
X005178Y005925D03*
X005178Y005000D03*
X004430Y005000D03*
D16*
X004663Y007267D03*
X003923Y007267D03*
X004293Y008057D03*
D17*
X003836Y004312D03*
X003266Y004312D03*
D18*
X003253Y007430D03*
X003253Y008000D03*
X005253Y007950D03*
X005253Y007380D03*
M02*
