G75*
G70*
%OFA0B0*%
%FSLAX24Y24*%
%IPPOS*%
%LPD*%
%AMOC8*
5,1,8,0,0,1.08239X$1,22.5*
%
%ADD10C,0.0000*%
%ADD11R,0.0217X0.0472*%
%ADD12R,0.0394X0.0551*%
%ADD13R,0.0512X0.0591*%
%ADD14R,0.0591X0.0512*%
%ADD15C,0.0160*%
%ADD16C,0.0591*%
%ADD17C,0.0357*%
%ADD18C,0.0396*%
D10*
X000454Y002675D02*
X002816Y002675D01*
X002816Y000312D01*
X011674Y000312D01*
X011713Y000314D01*
X011751Y000320D01*
X011788Y000329D01*
X011825Y000342D01*
X011860Y000359D01*
X011893Y000378D01*
X011924Y000401D01*
X011953Y000427D01*
X011979Y000456D01*
X012002Y000487D01*
X012021Y000520D01*
X012038Y000555D01*
X012051Y000592D01*
X012060Y000629D01*
X012066Y000667D01*
X012068Y000706D01*
X012068Y009564D01*
X009706Y009564D01*
X009706Y011927D01*
X000847Y011927D01*
X000808Y011925D01*
X000770Y011919D01*
X000733Y011910D01*
X000696Y011897D01*
X000661Y011880D01*
X000628Y011861D01*
X000597Y011838D01*
X000568Y011812D01*
X000542Y011783D01*
X000519Y011752D01*
X000500Y011719D01*
X000483Y011684D01*
X000470Y011647D01*
X000461Y011610D01*
X000455Y011572D01*
X000453Y011533D01*
X000454Y011533D02*
X000454Y002675D01*
X000729Y003759D02*
X000731Y003818D01*
X000737Y003877D01*
X000747Y003935D01*
X000761Y003993D01*
X000778Y004049D01*
X000800Y004104D01*
X000825Y004158D01*
X000854Y004209D01*
X000886Y004259D01*
X000921Y004306D01*
X000960Y004351D01*
X001001Y004393D01*
X001045Y004432D01*
X001092Y004469D01*
X001141Y004502D01*
X001192Y004531D01*
X001245Y004557D01*
X001300Y004580D01*
X001356Y004598D01*
X001413Y004613D01*
X001472Y004624D01*
X001530Y004631D01*
X001589Y004634D01*
X001648Y004633D01*
X001707Y004628D01*
X001766Y004619D01*
X001823Y004606D01*
X001880Y004589D01*
X001935Y004569D01*
X001989Y004545D01*
X002041Y004517D01*
X002092Y004486D01*
X002140Y004451D01*
X002185Y004413D01*
X002228Y004372D01*
X002268Y004329D01*
X002305Y004283D01*
X002339Y004234D01*
X002369Y004184D01*
X002396Y004131D01*
X002419Y004077D01*
X002439Y004021D01*
X002455Y003964D01*
X002467Y003906D01*
X002475Y003848D01*
X002479Y003789D01*
X002479Y003729D01*
X002475Y003670D01*
X002467Y003612D01*
X002455Y003554D01*
X002439Y003497D01*
X002419Y003441D01*
X002396Y003387D01*
X002369Y003334D01*
X002339Y003284D01*
X002305Y003235D01*
X002268Y003189D01*
X002228Y003146D01*
X002185Y003105D01*
X002140Y003067D01*
X002092Y003032D01*
X002042Y003001D01*
X001989Y002973D01*
X001935Y002949D01*
X001880Y002929D01*
X001823Y002912D01*
X001766Y002899D01*
X001707Y002890D01*
X001648Y002885D01*
X001589Y002884D01*
X001530Y002887D01*
X001472Y002894D01*
X001413Y002905D01*
X001356Y002920D01*
X001300Y002938D01*
X001245Y002961D01*
X001192Y002987D01*
X001141Y003016D01*
X001092Y003049D01*
X001045Y003086D01*
X001001Y003125D01*
X000960Y003167D01*
X000921Y003212D01*
X000886Y003259D01*
X000854Y003309D01*
X000825Y003360D01*
X000800Y003414D01*
X000778Y003469D01*
X000761Y003525D01*
X000747Y003583D01*
X000737Y003641D01*
X000731Y003700D01*
X000729Y003759D01*
X000729Y005709D02*
X000731Y005768D01*
X000737Y005827D01*
X000747Y005885D01*
X000761Y005943D01*
X000778Y005999D01*
X000800Y006054D01*
X000825Y006108D01*
X000854Y006159D01*
X000886Y006209D01*
X000921Y006256D01*
X000960Y006301D01*
X001001Y006343D01*
X001045Y006382D01*
X001092Y006419D01*
X001141Y006452D01*
X001192Y006481D01*
X001245Y006507D01*
X001300Y006530D01*
X001356Y006548D01*
X001413Y006563D01*
X001472Y006574D01*
X001530Y006581D01*
X001589Y006584D01*
X001648Y006583D01*
X001707Y006578D01*
X001766Y006569D01*
X001823Y006556D01*
X001880Y006539D01*
X001935Y006519D01*
X001989Y006495D01*
X002041Y006467D01*
X002092Y006436D01*
X002140Y006401D01*
X002185Y006363D01*
X002228Y006322D01*
X002268Y006279D01*
X002305Y006233D01*
X002339Y006184D01*
X002369Y006134D01*
X002396Y006081D01*
X002419Y006027D01*
X002439Y005971D01*
X002455Y005914D01*
X002467Y005856D01*
X002475Y005798D01*
X002479Y005739D01*
X002479Y005679D01*
X002475Y005620D01*
X002467Y005562D01*
X002455Y005504D01*
X002439Y005447D01*
X002419Y005391D01*
X002396Y005337D01*
X002369Y005284D01*
X002339Y005234D01*
X002305Y005185D01*
X002268Y005139D01*
X002228Y005096D01*
X002185Y005055D01*
X002140Y005017D01*
X002092Y004982D01*
X002042Y004951D01*
X001989Y004923D01*
X001935Y004899D01*
X001880Y004879D01*
X001823Y004862D01*
X001766Y004849D01*
X001707Y004840D01*
X001648Y004835D01*
X001589Y004834D01*
X001530Y004837D01*
X001472Y004844D01*
X001413Y004855D01*
X001356Y004870D01*
X001300Y004888D01*
X001245Y004911D01*
X001192Y004937D01*
X001141Y004966D01*
X001092Y004999D01*
X001045Y005036D01*
X001001Y005075D01*
X000960Y005117D01*
X000921Y005162D01*
X000886Y005209D01*
X000854Y005259D01*
X000825Y005310D01*
X000800Y005364D01*
X000778Y005419D01*
X000761Y005475D01*
X000747Y005533D01*
X000737Y005591D01*
X000731Y005650D01*
X000729Y005709D01*
X002324Y010746D02*
X002326Y010790D01*
X002332Y010834D01*
X002342Y010877D01*
X002355Y010919D01*
X002373Y010959D01*
X002394Y010998D01*
X002418Y011035D01*
X002445Y011070D01*
X002476Y011102D01*
X002509Y011131D01*
X002545Y011157D01*
X002583Y011179D01*
X002623Y011198D01*
X002664Y011214D01*
X002707Y011226D01*
X002750Y011234D01*
X002794Y011238D01*
X002838Y011238D01*
X002882Y011234D01*
X002925Y011226D01*
X002968Y011214D01*
X003009Y011198D01*
X003049Y011179D01*
X003087Y011157D01*
X003123Y011131D01*
X003156Y011102D01*
X003187Y011070D01*
X003214Y011035D01*
X003238Y010998D01*
X003259Y010959D01*
X003277Y010919D01*
X003290Y010877D01*
X003300Y010834D01*
X003306Y010790D01*
X003308Y010746D01*
X003306Y010702D01*
X003300Y010658D01*
X003290Y010615D01*
X003277Y010573D01*
X003259Y010533D01*
X003238Y010494D01*
X003214Y010457D01*
X003187Y010422D01*
X003156Y010390D01*
X003123Y010361D01*
X003087Y010335D01*
X003049Y010313D01*
X003009Y010294D01*
X002968Y010278D01*
X002925Y010266D01*
X002882Y010258D01*
X002838Y010254D01*
X002794Y010254D01*
X002750Y010258D01*
X002707Y010266D01*
X002664Y010278D01*
X002623Y010294D01*
X002583Y010313D01*
X002545Y010335D01*
X002509Y010361D01*
X002476Y010390D01*
X002445Y010422D01*
X002418Y010457D01*
X002394Y010494D01*
X002373Y010533D01*
X002355Y010573D01*
X002342Y010615D01*
X002332Y010658D01*
X002326Y010702D01*
X002324Y010746D01*
X009817Y003816D02*
X009819Y003858D01*
X009825Y003899D01*
X009835Y003939D01*
X009848Y003978D01*
X009866Y004016D01*
X009886Y004052D01*
X009910Y004086D01*
X009938Y004118D01*
X009968Y004146D01*
X010001Y004172D01*
X010035Y004194D01*
X010072Y004214D01*
X010111Y004229D01*
X010151Y004241D01*
X010192Y004249D01*
X010233Y004253D01*
X010275Y004253D01*
X010316Y004249D01*
X010357Y004241D01*
X010397Y004229D01*
X010436Y004214D01*
X010472Y004194D01*
X010507Y004172D01*
X010540Y004146D01*
X010570Y004118D01*
X010598Y004086D01*
X010622Y004052D01*
X010642Y004016D01*
X010660Y003978D01*
X010673Y003939D01*
X010683Y003899D01*
X010689Y003858D01*
X010691Y003816D01*
X010689Y003774D01*
X010683Y003733D01*
X010673Y003693D01*
X010660Y003654D01*
X010642Y003616D01*
X010622Y003580D01*
X010598Y003546D01*
X010570Y003514D01*
X010540Y003486D01*
X010507Y003460D01*
X010473Y003438D01*
X010436Y003418D01*
X010397Y003403D01*
X010357Y003391D01*
X010316Y003383D01*
X010275Y003379D01*
X010233Y003379D01*
X010192Y003383D01*
X010151Y003391D01*
X010111Y003403D01*
X010072Y003418D01*
X010036Y003438D01*
X010001Y003460D01*
X009968Y003486D01*
X009938Y003514D01*
X009910Y003546D01*
X009886Y003580D01*
X009866Y003616D01*
X009848Y003654D01*
X009835Y003693D01*
X009825Y003733D01*
X009819Y003774D01*
X009817Y003816D01*
X009817Y002766D02*
X009819Y002808D01*
X009825Y002849D01*
X009835Y002889D01*
X009848Y002928D01*
X009866Y002966D01*
X009886Y003002D01*
X009910Y003036D01*
X009938Y003068D01*
X009968Y003096D01*
X010001Y003122D01*
X010035Y003144D01*
X010072Y003164D01*
X010111Y003179D01*
X010151Y003191D01*
X010192Y003199D01*
X010233Y003203D01*
X010275Y003203D01*
X010316Y003199D01*
X010357Y003191D01*
X010397Y003179D01*
X010436Y003164D01*
X010472Y003144D01*
X010507Y003122D01*
X010540Y003096D01*
X010570Y003068D01*
X010598Y003036D01*
X010622Y003002D01*
X010642Y002966D01*
X010660Y002928D01*
X010673Y002889D01*
X010683Y002849D01*
X010689Y002808D01*
X010691Y002766D01*
X010689Y002724D01*
X010683Y002683D01*
X010673Y002643D01*
X010660Y002604D01*
X010642Y002566D01*
X010622Y002530D01*
X010598Y002496D01*
X010570Y002464D01*
X010540Y002436D01*
X010507Y002410D01*
X010473Y002388D01*
X010436Y002368D01*
X010397Y002353D01*
X010357Y002341D01*
X010316Y002333D01*
X010275Y002329D01*
X010233Y002329D01*
X010192Y002333D01*
X010151Y002341D01*
X010111Y002353D01*
X010072Y002368D01*
X010036Y002388D01*
X010001Y002410D01*
X009968Y002436D01*
X009938Y002464D01*
X009910Y002496D01*
X009886Y002530D01*
X009866Y002566D01*
X009848Y002604D01*
X009835Y002643D01*
X009825Y002683D01*
X009819Y002724D01*
X009817Y002766D01*
X009214Y001494D02*
X009216Y001538D01*
X009222Y001582D01*
X009232Y001625D01*
X009245Y001667D01*
X009263Y001707D01*
X009284Y001746D01*
X009308Y001783D01*
X009335Y001818D01*
X009366Y001850D01*
X009399Y001879D01*
X009435Y001905D01*
X009473Y001927D01*
X009513Y001946D01*
X009554Y001962D01*
X009597Y001974D01*
X009640Y001982D01*
X009684Y001986D01*
X009728Y001986D01*
X009772Y001982D01*
X009815Y001974D01*
X009858Y001962D01*
X009899Y001946D01*
X009939Y001927D01*
X009977Y001905D01*
X010013Y001879D01*
X010046Y001850D01*
X010077Y001818D01*
X010104Y001783D01*
X010128Y001746D01*
X010149Y001707D01*
X010167Y001667D01*
X010180Y001625D01*
X010190Y001582D01*
X010196Y001538D01*
X010198Y001494D01*
X010196Y001450D01*
X010190Y001406D01*
X010180Y001363D01*
X010167Y001321D01*
X010149Y001281D01*
X010128Y001242D01*
X010104Y001205D01*
X010077Y001170D01*
X010046Y001138D01*
X010013Y001109D01*
X009977Y001083D01*
X009939Y001061D01*
X009899Y001042D01*
X009858Y001026D01*
X009815Y001014D01*
X009772Y001006D01*
X009728Y001002D01*
X009684Y001002D01*
X009640Y001006D01*
X009597Y001014D01*
X009554Y001026D01*
X009513Y001042D01*
X009473Y001061D01*
X009435Y001083D01*
X009399Y001109D01*
X009366Y001138D01*
X009335Y001170D01*
X009308Y001205D01*
X009284Y001242D01*
X009263Y001281D01*
X009245Y001321D01*
X009232Y001363D01*
X009222Y001406D01*
X009216Y001450D01*
X009214Y001494D01*
X010917Y002766D02*
X010919Y002808D01*
X010925Y002849D01*
X010935Y002889D01*
X010948Y002928D01*
X010966Y002966D01*
X010986Y003002D01*
X011010Y003036D01*
X011038Y003068D01*
X011068Y003096D01*
X011101Y003122D01*
X011135Y003144D01*
X011172Y003164D01*
X011211Y003179D01*
X011251Y003191D01*
X011292Y003199D01*
X011333Y003203D01*
X011375Y003203D01*
X011416Y003199D01*
X011457Y003191D01*
X011497Y003179D01*
X011536Y003164D01*
X011572Y003144D01*
X011607Y003122D01*
X011640Y003096D01*
X011670Y003068D01*
X011698Y003036D01*
X011722Y003002D01*
X011742Y002966D01*
X011760Y002928D01*
X011773Y002889D01*
X011783Y002849D01*
X011789Y002808D01*
X011791Y002766D01*
X011789Y002724D01*
X011783Y002683D01*
X011773Y002643D01*
X011760Y002604D01*
X011742Y002566D01*
X011722Y002530D01*
X011698Y002496D01*
X011670Y002464D01*
X011640Y002436D01*
X011607Y002410D01*
X011573Y002388D01*
X011536Y002368D01*
X011497Y002353D01*
X011457Y002341D01*
X011416Y002333D01*
X011375Y002329D01*
X011333Y002329D01*
X011292Y002333D01*
X011251Y002341D01*
X011211Y002353D01*
X011172Y002368D01*
X011136Y002388D01*
X011101Y002410D01*
X011068Y002436D01*
X011038Y002464D01*
X011010Y002496D01*
X010986Y002530D01*
X010966Y002566D01*
X010948Y002604D01*
X010935Y002643D01*
X010925Y002683D01*
X010919Y002724D01*
X010917Y002766D01*
X010917Y003816D02*
X010919Y003858D01*
X010925Y003899D01*
X010935Y003939D01*
X010948Y003978D01*
X010966Y004016D01*
X010986Y004052D01*
X011010Y004086D01*
X011038Y004118D01*
X011068Y004146D01*
X011101Y004172D01*
X011135Y004194D01*
X011172Y004214D01*
X011211Y004229D01*
X011251Y004241D01*
X011292Y004249D01*
X011333Y004253D01*
X011375Y004253D01*
X011416Y004249D01*
X011457Y004241D01*
X011497Y004229D01*
X011536Y004214D01*
X011572Y004194D01*
X011607Y004172D01*
X011640Y004146D01*
X011670Y004118D01*
X011698Y004086D01*
X011722Y004052D01*
X011742Y004016D01*
X011760Y003978D01*
X011773Y003939D01*
X011783Y003899D01*
X011789Y003858D01*
X011791Y003816D01*
X011789Y003774D01*
X011783Y003733D01*
X011773Y003693D01*
X011760Y003654D01*
X011742Y003616D01*
X011722Y003580D01*
X011698Y003546D01*
X011670Y003514D01*
X011640Y003486D01*
X011607Y003460D01*
X011573Y003438D01*
X011536Y003418D01*
X011497Y003403D01*
X011457Y003391D01*
X011416Y003383D01*
X011375Y003379D01*
X011333Y003379D01*
X011292Y003383D01*
X011251Y003391D01*
X011211Y003403D01*
X011172Y003418D01*
X011136Y003438D01*
X011101Y003460D01*
X011068Y003486D01*
X011038Y003514D01*
X011010Y003546D01*
X010986Y003580D01*
X010966Y003616D01*
X010948Y003654D01*
X010935Y003693D01*
X010925Y003733D01*
X010919Y003774D01*
X010917Y003816D01*
D11*
X005178Y004951D03*
X004430Y004951D03*
X004430Y005974D03*
X004804Y005974D03*
X005178Y005974D03*
D12*
X004667Y007229D03*
X003919Y007229D03*
X004293Y008096D03*
D13*
X003928Y004312D03*
X003180Y004312D03*
D14*
X003254Y007338D03*
X003254Y008086D03*
X005254Y008036D03*
X005254Y007288D03*
D15*
X005830Y007288D01*
X005954Y007412D01*
X005954Y007912D01*
X006054Y008012D01*
X008804Y008012D01*
X008854Y008062D01*
X009304Y008312D02*
X009004Y008612D01*
X008354Y008612D01*
X009304Y008312D02*
X009304Y006312D01*
X009204Y006212D01*
X009115Y006212D01*
X009304Y006024D01*
X009304Y003816D01*
X008354Y004812D02*
X008354Y002478D01*
X008641Y002766D01*
X009304Y002766D01*
X008354Y002478D02*
X008354Y001412D01*
X008254Y001312D01*
X007554Y001412D02*
X007154Y001812D01*
X007154Y006112D01*
X007254Y006212D01*
X009115Y006212D01*
X005954Y005712D02*
X005954Y003712D01*
X005178Y004136D02*
X004954Y003912D01*
X004328Y003912D01*
X003928Y004312D01*
X003954Y004338D01*
X003980Y004338D01*
X004004Y004362D01*
X003928Y004312D02*
X003919Y004321D01*
X004415Y004360D02*
X004454Y004322D01*
X004415Y004360D02*
X004415Y004951D01*
X004430Y004951D01*
X005054Y005462D02*
X005154Y005562D01*
X005154Y005950D01*
X005178Y005974D01*
X005178Y006186D01*
X005204Y006362D01*
X005178Y005974D02*
X005189Y005962D01*
X005704Y005962D01*
X005954Y005712D01*
X005054Y005462D02*
X003304Y005462D01*
X002804Y005962D01*
X003919Y006213D02*
X003919Y007229D01*
X003363Y007229D01*
X003254Y007338D01*
X002480Y007338D01*
X002454Y007312D01*
X003254Y008086D02*
X003254Y008112D01*
X004243Y008152D02*
X004304Y008062D01*
X004293Y008096D02*
X004243Y008152D01*
X005154Y008062D02*
X005254Y008036D01*
X005254Y007288D02*
X005244Y007229D01*
X004667Y007229D01*
X004604Y006712D02*
X005954Y006712D01*
X004804Y006112D02*
X004804Y005974D01*
X004430Y005974D02*
X004430Y006538D01*
X004604Y006712D01*
X003954Y006178D02*
X003919Y006213D01*
X005178Y004951D02*
X005178Y004136D01*
X003180Y004312D02*
X003104Y004312D01*
D16*
X002454Y007312D03*
X001654Y007312D03*
X000854Y007312D03*
X009304Y003816D03*
X009304Y002766D03*
D17*
X005204Y006362D03*
X004804Y006112D03*
X003954Y006178D03*
X002804Y005962D03*
X004004Y004362D03*
X004454Y004322D03*
X008854Y008062D03*
D18*
X008354Y008612D03*
X005954Y006712D03*
X005154Y008062D03*
X004304Y008062D03*
X003254Y008112D03*
X003104Y004312D03*
X005954Y003712D03*
X007554Y001412D03*
X008254Y001312D03*
X008354Y004812D03*
M02*
