%
M48
M72
T01C0.0197
T02C0.0236
T03C0.0394
T04C0.0875
T05C0.0984
T06C0.1750
%
T01
X4004Y4362
X4454Y4322
X2804Y5962
X3954Y6178
X4804Y6112
X5204Y6362
X8854Y8062
T02
X8354Y8612
X5954Y6712
X5154Y8062
X4304Y8062
X3254Y8112
X3104Y4312
X5954Y3712
X7554Y1412
X8254Y1312
X8354Y4812
T03
X9304Y3816
X9304Y2766
X2454Y7312
X1654Y7312
X854Y7312
T04
X10254Y3816
X10254Y2766
X11354Y2766
X11354Y3816
T05
X9706Y1494
X2816Y10746
T06
X1604Y3759
X1604Y5709
M30
