G75*
G70*
%OFA0B0*%
%FSLAX24Y24*%
%IPPOS*%
%LPD*%
%AMOC8*
5,1,8,0,0,1.08239X$1,22.5*
%
%ADD10C,0.0030*%
%ADD11C,0.0040*%
%ADD12C,0.0020*%
%ADD13C,0.0060*%
%ADD14R,0.0197X0.0256*%
%ADD15R,0.0180X0.0230*%
%ADD16R,0.0295X0.0571*%
%ADD17R,0.0571X0.0295*%
D10*
X002796Y001327D02*
X002990Y001327D01*
X002893Y001327D02*
X002893Y001618D01*
X002796Y001521D01*
X002845Y001727D02*
X002942Y001727D01*
X002990Y001776D01*
X002990Y002018D01*
X003091Y002018D02*
X003188Y001921D01*
X003285Y002018D01*
X003285Y001727D01*
X003386Y001776D02*
X003434Y001824D01*
X003579Y001824D01*
X003579Y001873D02*
X003579Y001727D01*
X003434Y001727D01*
X003386Y001776D01*
X003434Y001921D02*
X003531Y001921D01*
X003579Y001873D01*
X003680Y001873D02*
X003729Y001921D01*
X003874Y001921D01*
X003825Y001824D02*
X003874Y001776D01*
X003825Y001727D01*
X003680Y001727D01*
X003729Y001824D02*
X003680Y001873D01*
X003729Y001824D02*
X003825Y001824D01*
X003975Y001873D02*
X004023Y001921D01*
X004168Y001921D01*
X004120Y001824D02*
X004023Y001824D01*
X003975Y001873D01*
X003975Y001727D02*
X004120Y001727D01*
X004168Y001776D01*
X004120Y001824D01*
X003874Y001618D02*
X003874Y001327D01*
X003975Y001376D02*
X004023Y001424D01*
X004168Y001424D01*
X004168Y001473D02*
X004168Y001327D01*
X004023Y001327D01*
X003975Y001376D01*
X004023Y001521D02*
X004120Y001521D01*
X004168Y001473D01*
X004270Y001521D02*
X004270Y001327D01*
X004270Y001424D02*
X004366Y001521D01*
X004415Y001521D01*
X004515Y001473D02*
X004515Y001376D01*
X004564Y001327D01*
X004709Y001327D01*
X004810Y001327D02*
X004810Y001618D01*
X004858Y001521D02*
X004955Y001521D01*
X005003Y001473D01*
X005003Y001327D01*
X004810Y001473D02*
X004858Y001521D01*
X004709Y001521D02*
X004564Y001521D01*
X004515Y001473D01*
X004564Y001727D02*
X004758Y001727D01*
X004859Y001776D02*
X004859Y001873D01*
X004907Y001921D01*
X005004Y001921D01*
X005052Y001873D01*
X005052Y001776D01*
X005004Y001727D01*
X004907Y001727D01*
X004859Y001776D01*
X004564Y001727D02*
X004564Y002018D01*
X005154Y001921D02*
X005154Y001776D01*
X005202Y001727D01*
X005250Y001776D01*
X005299Y001727D01*
X005347Y001776D01*
X005347Y001921D01*
X005448Y001873D02*
X005448Y001776D01*
X005497Y001727D01*
X005593Y001727D01*
X005642Y001824D02*
X005448Y001824D01*
X005448Y001873D02*
X005497Y001921D01*
X005593Y001921D01*
X005642Y001873D01*
X005642Y001824D01*
X005743Y001727D02*
X005840Y001727D01*
X005791Y001727D02*
X005791Y002018D01*
X005743Y002018D01*
X005939Y002018D02*
X005988Y002018D01*
X005988Y001727D01*
X006036Y001727D02*
X005939Y001727D01*
X005839Y001618D02*
X005887Y001569D01*
X005694Y001376D01*
X005742Y001327D01*
X005839Y001327D01*
X005887Y001376D01*
X005887Y001569D01*
X005839Y001618D02*
X005742Y001618D01*
X005694Y001569D01*
X005694Y001376D01*
X005593Y001327D02*
X005399Y001327D01*
X005593Y001521D01*
X005593Y001569D01*
X005544Y001618D01*
X005447Y001618D01*
X005399Y001569D01*
X005988Y001521D02*
X006085Y001618D01*
X006085Y001327D01*
X005988Y001327D02*
X006182Y001327D01*
X006283Y001327D02*
X006476Y001521D01*
X006476Y001569D01*
X006428Y001618D01*
X006331Y001618D01*
X006283Y001569D01*
X006283Y001327D02*
X006476Y001327D01*
X008083Y002827D02*
X008207Y002951D01*
X008207Y003198D01*
X008328Y003136D02*
X008390Y003198D01*
X008513Y003198D01*
X008575Y003136D01*
X008575Y003074D01*
X008513Y003013D01*
X008575Y002951D01*
X008575Y002889D01*
X008513Y002827D01*
X008390Y002827D01*
X008328Y002889D01*
X008452Y003013D02*
X008513Y003013D01*
X008083Y002827D02*
X007960Y002951D01*
X007960Y003198D01*
X008083Y003827D02*
X008207Y003951D01*
X008207Y004198D01*
X008328Y004074D02*
X008452Y004198D01*
X008452Y003827D01*
X008575Y003827D02*
X008328Y003827D01*
X008083Y003827D02*
X007960Y003951D01*
X007960Y004198D01*
X006479Y003218D02*
X006479Y002927D01*
X006527Y002927D02*
X006430Y002927D01*
X006329Y002927D02*
X006329Y003073D01*
X006281Y003121D01*
X006184Y003121D01*
X006184Y003024D02*
X006329Y003024D01*
X006329Y002927D02*
X006184Y002927D01*
X006136Y002976D01*
X006184Y003024D01*
X006035Y003073D02*
X006035Y002927D01*
X006035Y003073D02*
X005986Y003121D01*
X005889Y003121D01*
X005841Y003073D01*
X005741Y003121D02*
X005645Y003121D01*
X005693Y003169D02*
X005693Y002976D01*
X005741Y002927D01*
X005841Y002927D02*
X005841Y003218D01*
X005543Y003073D02*
X005543Y002927D01*
X005543Y003073D02*
X005495Y003121D01*
X005350Y003121D01*
X005350Y002927D01*
X005249Y003024D02*
X005055Y003024D01*
X005055Y002976D02*
X005055Y003073D01*
X005104Y003121D01*
X005200Y003121D01*
X005249Y003073D01*
X005249Y003024D01*
X005200Y002927D02*
X005104Y002927D01*
X005055Y002976D01*
X004954Y002976D02*
X004906Y003024D01*
X004809Y003024D01*
X004761Y003073D01*
X004809Y003121D01*
X004954Y003121D01*
X004954Y002976D02*
X004906Y002927D01*
X004761Y002927D01*
X004660Y002976D02*
X004660Y003073D01*
X004611Y003121D01*
X004514Y003121D01*
X004466Y003073D01*
X004466Y002976D01*
X004514Y002927D01*
X004611Y002927D01*
X004660Y002976D01*
X004365Y002927D02*
X004268Y003024D01*
X004317Y003024D02*
X004171Y003024D01*
X004171Y002927D02*
X004171Y003218D01*
X004317Y003218D01*
X004365Y003169D01*
X004365Y003073D01*
X004317Y003024D01*
X003776Y003073D02*
X003776Y002927D01*
X003776Y003073D02*
X003727Y003121D01*
X003582Y003121D01*
X003582Y002927D01*
X003481Y002927D02*
X003336Y002927D01*
X003287Y002976D01*
X003336Y003024D01*
X003481Y003024D01*
X003481Y003073D02*
X003481Y002927D01*
X003481Y003073D02*
X003433Y003121D01*
X003336Y003121D01*
X003139Y003218D02*
X003139Y002927D01*
X003091Y002927D02*
X003188Y002927D01*
X002990Y002927D02*
X002990Y003121D01*
X002893Y003218D01*
X002796Y003121D01*
X002796Y002927D01*
X002796Y003073D02*
X002990Y003073D01*
X003091Y003218D02*
X003139Y003218D01*
X003091Y002018D02*
X003091Y001727D01*
X003188Y001618D02*
X003188Y001327D01*
X003091Y001327D02*
X003285Y001327D01*
X003091Y001521D02*
X003188Y001618D01*
X002845Y001727D02*
X002796Y001776D01*
X002796Y002018D01*
X003680Y001618D02*
X003680Y001327D01*
X003777Y001521D02*
X003874Y001618D01*
X003777Y001521D02*
X003680Y001618D01*
X006430Y003218D02*
X006479Y003218D01*
X005975Y005327D02*
X005728Y005327D01*
X005851Y005327D02*
X005851Y005698D01*
X005728Y005574D01*
X005607Y005636D02*
X005545Y005698D01*
X005421Y005698D01*
X005360Y005636D01*
X005360Y005389D01*
X005421Y005327D01*
X005545Y005327D01*
X005607Y005389D01*
X005238Y005327D02*
X005114Y005327D01*
X005176Y005327D02*
X005176Y005698D01*
X005114Y005698D02*
X005238Y005698D01*
X004496Y006477D02*
X004250Y006477D01*
X004496Y006724D01*
X004496Y006786D01*
X004435Y006848D01*
X004311Y006848D01*
X004250Y006786D01*
X004128Y006786D02*
X004066Y006848D01*
X003943Y006848D01*
X003881Y006786D01*
X003881Y006539D01*
X003943Y006477D01*
X004066Y006477D01*
X004128Y006539D01*
X003759Y006477D02*
X003636Y006477D01*
X003697Y006477D02*
X003697Y006848D01*
X003636Y006848D02*
X003759Y006848D01*
X003162Y006824D02*
X003162Y006886D01*
X003100Y006948D01*
X002976Y006948D01*
X002915Y006886D01*
X002793Y006886D02*
X002732Y006948D01*
X002608Y006948D01*
X002546Y006886D01*
X002546Y006639D01*
X002608Y006577D01*
X002732Y006577D01*
X002793Y006639D01*
X002915Y006577D02*
X003162Y006824D01*
X003162Y006577D02*
X002915Y006577D01*
X002181Y007727D02*
X002181Y007974D01*
X002181Y008096D02*
X002120Y008219D01*
X002120Y008281D01*
X002181Y008343D01*
X002305Y008343D01*
X002366Y008281D01*
X002366Y008157D01*
X002305Y008096D01*
X002181Y008096D02*
X001996Y008096D01*
X001996Y008343D01*
X001996Y008464D02*
X002243Y008464D01*
X002366Y008587D01*
X002243Y008711D01*
X001996Y008711D01*
X001566Y008649D02*
X001566Y008464D01*
X001196Y008464D01*
X001196Y008649D01*
X001258Y008711D01*
X001505Y008711D01*
X001566Y008649D01*
X001566Y008343D02*
X001196Y008343D01*
X001196Y008096D02*
X001566Y008343D01*
X001566Y008096D02*
X001196Y008096D01*
X001258Y007974D02*
X001196Y007913D01*
X001196Y007789D01*
X001258Y007727D01*
X001505Y007727D01*
X001566Y007789D01*
X001566Y007913D01*
X001505Y007974D01*
X001381Y007974D01*
X001381Y007851D01*
X000766Y007901D02*
X000643Y008024D01*
X000396Y008024D01*
X000520Y008207D02*
X000581Y008146D01*
X000705Y008146D01*
X000766Y008207D01*
X000766Y008331D01*
X000705Y008393D01*
X000581Y008393D01*
X000520Y008331D01*
X000520Y008207D01*
X000766Y007901D02*
X000643Y007777D01*
X000396Y007777D01*
X000520Y008514D02*
X000705Y008514D01*
X000766Y008576D01*
X000766Y008761D01*
X000520Y008761D01*
X000520Y008882D02*
X000520Y009006D01*
X000458Y008944D02*
X000705Y008944D01*
X000766Y009006D01*
X002058Y007851D02*
X002305Y007851D01*
X002571Y005248D02*
X002510Y005186D01*
X002510Y004939D01*
X002571Y004877D01*
X002695Y004877D01*
X002757Y004939D01*
X002878Y004877D02*
X003125Y004877D01*
X003002Y004877D02*
X003002Y005248D01*
X002878Y005124D01*
X002757Y005186D02*
X002695Y005248D01*
X002571Y005248D01*
X005496Y007339D02*
X005558Y007277D01*
X005682Y007277D01*
X005743Y007339D01*
X005865Y007339D02*
X005926Y007277D01*
X006050Y007277D01*
X006112Y007339D01*
X006112Y007401D01*
X006050Y007463D01*
X005988Y007463D01*
X006050Y007463D02*
X006112Y007524D01*
X006112Y007586D01*
X006050Y007648D01*
X005926Y007648D01*
X005865Y007586D01*
X005743Y007586D02*
X005682Y007648D01*
X005558Y007648D01*
X005496Y007586D01*
X005496Y007339D01*
D11*
X005241Y007522D02*
X005241Y007812D01*
X004722Y007812D02*
X004722Y007512D01*
X003241Y007572D02*
X003241Y007862D01*
X002722Y007862D02*
X002722Y007562D01*
X002645Y009532D02*
X002569Y009609D01*
X002569Y009763D01*
X002645Y009839D01*
X002799Y009839D01*
X002876Y009763D01*
X002876Y009686D01*
X002569Y009686D01*
X002415Y009686D02*
X002415Y009609D01*
X002338Y009532D01*
X002185Y009532D01*
X002108Y009609D01*
X001955Y009532D02*
X001801Y009532D01*
X001878Y009532D02*
X001878Y009839D01*
X001801Y009839D01*
X001878Y009993D02*
X001878Y010070D01*
X002108Y009916D02*
X002108Y009839D01*
X002185Y009763D01*
X002338Y009763D01*
X002415Y009686D01*
X002415Y009916D02*
X002338Y009993D01*
X002185Y009993D01*
X002108Y009916D01*
X002645Y009532D02*
X002799Y009532D01*
X003029Y009532D02*
X003029Y009839D01*
X003259Y009839D01*
X003336Y009763D01*
X003336Y009532D01*
X003489Y009532D02*
X003720Y009532D01*
X003796Y009609D01*
X003720Y009686D01*
X003566Y009686D01*
X003489Y009763D01*
X003566Y009839D01*
X003796Y009839D01*
X003950Y009763D02*
X003950Y009609D01*
X004026Y009532D01*
X004180Y009532D01*
X004257Y009686D02*
X003950Y009686D01*
X003950Y009763D02*
X004026Y009839D01*
X004180Y009839D01*
X004257Y009763D01*
X004257Y009686D01*
X004410Y009686D02*
X004640Y009686D01*
X004717Y009763D01*
X004717Y009916D01*
X004640Y009993D01*
X004410Y009993D01*
X004410Y009532D01*
X004870Y009532D02*
X004870Y009839D01*
X004870Y009686D02*
X005024Y009839D01*
X005101Y009839D01*
X005254Y009763D02*
X005254Y009609D01*
X005331Y009532D01*
X005484Y009532D01*
X005561Y009609D01*
X005561Y009763D01*
X005484Y009839D01*
X005331Y009839D01*
X005254Y009763D01*
X005714Y009379D02*
X005791Y009379D01*
X005868Y009456D01*
X005868Y009839D01*
X005868Y009993D02*
X005868Y010070D01*
X006098Y009839D02*
X006251Y009839D01*
X006328Y009763D01*
X006328Y009686D01*
X006021Y009686D01*
X006021Y009763D02*
X006098Y009839D01*
X006021Y009763D02*
X006021Y009609D01*
X006098Y009532D01*
X006251Y009532D01*
X006482Y009609D02*
X006482Y009763D01*
X006558Y009839D01*
X006789Y009839D01*
X006942Y009839D02*
X007095Y009839D01*
X007019Y009916D02*
X007019Y009609D01*
X007095Y009532D01*
X007249Y009532D02*
X007249Y009609D01*
X007326Y009609D01*
X007326Y009532D01*
X007249Y009532D01*
X007479Y009609D02*
X007479Y009763D01*
X007556Y009839D01*
X007709Y009839D01*
X007786Y009763D01*
X007786Y009609D01*
X007709Y009532D01*
X007556Y009532D01*
X007479Y009609D01*
X007939Y009532D02*
X007939Y009839D01*
X007939Y009686D02*
X008093Y009839D01*
X008170Y009839D01*
X008323Y009763D02*
X008323Y009609D01*
X008400Y009532D01*
X008630Y009532D01*
X008630Y009456D02*
X008630Y009839D01*
X008400Y009839D01*
X008323Y009763D01*
X008476Y009379D02*
X008553Y009379D01*
X008630Y009456D01*
X006789Y009532D02*
X006558Y009532D01*
X006482Y009609D01*
X003422Y004572D02*
X003131Y004572D01*
X003131Y004053D02*
X003431Y004053D01*
D12*
X003049Y002743D02*
X003049Y002522D01*
X003012Y002522D02*
X003086Y002522D01*
X003160Y002559D02*
X003196Y002596D01*
X003306Y002596D01*
X003306Y002633D02*
X003306Y002522D01*
X003196Y002522D01*
X003160Y002559D01*
X003196Y002669D02*
X003270Y002669D01*
X003306Y002633D01*
X003381Y002669D02*
X003381Y002522D01*
X003527Y002522D02*
X003527Y002633D01*
X003491Y002669D01*
X003381Y002669D01*
X003602Y002486D02*
X003748Y002486D01*
X003823Y002522D02*
X003823Y002743D01*
X003933Y002743D01*
X003969Y002706D01*
X003969Y002633D01*
X003933Y002596D01*
X003823Y002596D01*
X003896Y002596D02*
X003969Y002522D01*
X004044Y002559D02*
X004080Y002522D01*
X004154Y002522D01*
X004190Y002559D01*
X004190Y002633D01*
X004154Y002669D01*
X004080Y002669D01*
X004044Y002633D01*
X004044Y002559D01*
X003933Y002379D02*
X003933Y002343D01*
X003933Y002269D02*
X003933Y002122D01*
X003896Y002122D02*
X003970Y002122D01*
X004044Y002122D02*
X004044Y002269D01*
X004154Y002269D01*
X004190Y002233D01*
X004190Y002122D01*
X004265Y002159D02*
X004301Y002122D01*
X004411Y002122D01*
X004411Y002086D02*
X004411Y002269D01*
X004301Y002269D01*
X004265Y002233D01*
X004265Y002159D01*
X004338Y002049D02*
X004375Y002049D01*
X004411Y002086D01*
X004707Y002159D02*
X004743Y002122D01*
X004817Y002122D01*
X004853Y002159D01*
X004928Y002159D02*
X004928Y002233D01*
X004964Y002269D01*
X005038Y002269D01*
X005074Y002233D01*
X005074Y002159D01*
X005038Y002122D01*
X004964Y002122D01*
X004928Y002159D01*
X004853Y002306D02*
X004817Y002343D01*
X004743Y002343D01*
X004707Y002306D01*
X004707Y002159D01*
X004707Y002522D02*
X004707Y002669D01*
X004817Y002669D01*
X004853Y002633D01*
X004853Y002522D01*
X004964Y002559D02*
X005001Y002522D01*
X004964Y002559D02*
X004964Y002706D01*
X004928Y002669D02*
X005001Y002669D01*
X005075Y002633D02*
X005112Y002669D01*
X005185Y002669D01*
X005222Y002633D01*
X005222Y002522D01*
X005296Y002559D02*
X005333Y002596D01*
X005443Y002596D01*
X005443Y002633D02*
X005443Y002522D01*
X005333Y002522D01*
X005296Y002559D01*
X005333Y002669D02*
X005406Y002669D01*
X005443Y002633D01*
X005517Y002743D02*
X005554Y002743D01*
X005554Y002522D01*
X005590Y002522D02*
X005517Y002522D01*
X005664Y002559D02*
X005664Y002706D01*
X005701Y002743D01*
X005774Y002743D01*
X005811Y002706D01*
X005811Y002633D01*
X005774Y002596D01*
X005774Y002669D01*
X005701Y002669D01*
X005701Y002596D01*
X005774Y002596D01*
X005811Y002559D02*
X005774Y002522D01*
X005701Y002522D01*
X005664Y002559D01*
X005885Y002522D02*
X005995Y002522D01*
X006032Y002559D01*
X005995Y002596D01*
X005922Y002596D01*
X005885Y002633D01*
X005922Y002669D01*
X006032Y002669D01*
X006106Y002669D02*
X006180Y002669D01*
X006143Y002706D02*
X006143Y002559D01*
X006180Y002522D01*
X006254Y002559D02*
X006290Y002522D01*
X006400Y002522D01*
X006400Y002669D01*
X006474Y002633D02*
X006511Y002669D01*
X006621Y002669D01*
X006621Y002743D02*
X006621Y002522D01*
X006511Y002522D01*
X006474Y002559D01*
X006474Y002633D01*
X006695Y002633D02*
X006732Y002669D01*
X006806Y002669D01*
X006842Y002633D01*
X006842Y002596D01*
X006695Y002596D01*
X006695Y002559D02*
X006695Y002633D01*
X006695Y002559D02*
X006732Y002522D01*
X006806Y002522D01*
X006916Y002522D02*
X006916Y002669D01*
X007027Y002669D01*
X007063Y002633D01*
X007063Y002522D01*
X007174Y002559D02*
X007211Y002522D01*
X007174Y002559D02*
X007174Y002706D01*
X007137Y002669D02*
X007211Y002669D01*
X007285Y002559D02*
X007321Y002559D01*
X007321Y002522D01*
X007285Y002522D01*
X007285Y002559D01*
X007395Y002559D02*
X007395Y002669D01*
X007395Y002559D02*
X007432Y002522D01*
X007542Y002522D01*
X007542Y002669D01*
X007616Y002669D02*
X007653Y002669D01*
X007690Y002633D01*
X007726Y002669D01*
X007763Y002633D01*
X007763Y002522D01*
X007690Y002522D02*
X007690Y002633D01*
X007616Y002669D02*
X007616Y002522D01*
X007837Y002522D02*
X007911Y002522D01*
X007874Y002522D02*
X007874Y002743D01*
X007837Y002743D01*
X007985Y002559D02*
X008021Y002559D01*
X008021Y002522D01*
X007985Y002522D01*
X007985Y002559D01*
X008095Y002559D02*
X008132Y002522D01*
X008205Y002522D01*
X008242Y002596D02*
X008095Y002596D01*
X008095Y002633D02*
X008132Y002669D01*
X008205Y002669D01*
X008242Y002633D01*
X008242Y002596D01*
X008316Y002633D02*
X008353Y002669D01*
X008463Y002669D01*
X008463Y002743D02*
X008463Y002522D01*
X008353Y002522D01*
X008316Y002559D01*
X008316Y002633D01*
X008095Y002633D02*
X008095Y002559D01*
X007763Y002233D02*
X007763Y002159D01*
X007726Y002122D01*
X007616Y002122D01*
X007616Y002049D02*
X007616Y002269D01*
X007726Y002269D01*
X007763Y002233D01*
X007542Y002269D02*
X007542Y002122D01*
X007432Y002122D01*
X007395Y002159D01*
X007395Y002269D01*
X007321Y002233D02*
X007284Y002269D01*
X007211Y002269D01*
X007174Y002233D01*
X007174Y002159D01*
X007211Y002122D01*
X007284Y002122D01*
X007321Y002159D01*
X007321Y002233D01*
X007100Y002269D02*
X007064Y002269D01*
X006990Y002196D01*
X006990Y002269D02*
X006990Y002122D01*
X006916Y002159D02*
X006916Y002233D01*
X006843Y002233D01*
X006916Y002306D02*
X006879Y002343D01*
X006806Y002343D01*
X006769Y002306D01*
X006769Y002159D01*
X006806Y002122D01*
X006879Y002122D01*
X006916Y002159D01*
X006474Y002122D02*
X006364Y002122D01*
X006327Y002159D01*
X006327Y002233D01*
X006364Y002269D01*
X006474Y002269D01*
X006474Y002086D01*
X006437Y002049D01*
X006401Y002049D01*
X006253Y002122D02*
X006253Y002233D01*
X006216Y002269D01*
X006106Y002269D01*
X006106Y002122D01*
X006032Y002122D02*
X005959Y002122D01*
X005996Y002122D02*
X005996Y002269D01*
X005959Y002269D01*
X005885Y002269D02*
X005812Y002269D01*
X005848Y002306D02*
X005848Y002159D01*
X005885Y002122D01*
X005737Y002122D02*
X005737Y002269D01*
X005591Y002269D02*
X005591Y002159D01*
X005627Y002122D01*
X005737Y002122D01*
X005516Y002159D02*
X005516Y002233D01*
X005480Y002269D01*
X005370Y002269D01*
X005370Y002049D01*
X005370Y002122D02*
X005480Y002122D01*
X005516Y002159D01*
X005295Y002122D02*
X005295Y002233D01*
X005259Y002269D01*
X005222Y002233D01*
X005222Y002122D01*
X005149Y002122D02*
X005149Y002269D01*
X005185Y002269D01*
X005222Y002233D01*
X005075Y002522D02*
X005075Y002743D01*
X004632Y002633D02*
X004632Y002596D01*
X004486Y002596D01*
X004486Y002633D02*
X004522Y002669D01*
X004596Y002669D01*
X004632Y002633D01*
X004596Y002522D02*
X004522Y002522D01*
X004486Y002559D01*
X004486Y002633D01*
X004411Y002669D02*
X004301Y002669D01*
X004265Y002633D01*
X004301Y002596D01*
X004375Y002596D01*
X004411Y002559D01*
X004375Y002522D01*
X004265Y002522D01*
X003933Y002269D02*
X003896Y002269D01*
X003822Y002269D02*
X003822Y002086D01*
X003785Y002049D01*
X003749Y002049D01*
X003712Y002122D02*
X003675Y002159D01*
X003675Y002233D01*
X003712Y002269D01*
X003822Y002269D01*
X003822Y002122D02*
X003712Y002122D01*
X003601Y002122D02*
X003601Y002233D01*
X003564Y002269D01*
X003491Y002269D01*
X003491Y002196D02*
X003601Y002196D01*
X003601Y002122D02*
X003491Y002122D01*
X003454Y002159D01*
X003491Y002196D01*
X003380Y002269D02*
X003380Y002086D01*
X003343Y002049D01*
X003307Y002049D01*
X003270Y002122D02*
X003380Y002122D01*
X003270Y002122D02*
X003233Y002159D01*
X003233Y002233D01*
X003270Y002269D01*
X003380Y002269D01*
X003159Y002233D02*
X003159Y002122D01*
X003159Y002233D02*
X003122Y002269D01*
X003012Y002269D01*
X003012Y002122D01*
X002938Y002122D02*
X002791Y002122D01*
X002791Y002343D01*
X002938Y002343D01*
X002865Y002233D02*
X002791Y002233D01*
X002791Y002522D02*
X002791Y002669D01*
X002865Y002743D01*
X002938Y002669D01*
X002938Y002522D01*
X002938Y002633D02*
X002791Y002633D01*
X003012Y002743D02*
X003049Y002743D01*
X005996Y002379D02*
X005996Y002343D01*
X006254Y002559D02*
X006254Y002669D01*
X008537Y002669D02*
X008537Y002559D01*
X008574Y002522D01*
X008684Y002522D01*
X008684Y002669D01*
X008744Y008972D02*
X008697Y009019D01*
X008744Y009066D01*
X008884Y009066D01*
X008884Y009113D02*
X008884Y008972D01*
X008744Y008972D01*
X008744Y009159D02*
X008837Y009159D01*
X008884Y009113D01*
X008973Y009159D02*
X008973Y008972D01*
X008973Y009066D02*
X009066Y009159D01*
X009113Y009159D01*
X009203Y009113D02*
X009250Y009159D01*
X009390Y009159D01*
X009390Y009253D02*
X009390Y008972D01*
X009250Y008972D01*
X009203Y009019D01*
X009203Y009113D01*
X009756Y009159D02*
X009849Y008972D01*
X009942Y009159D01*
X010032Y009159D02*
X010125Y009253D01*
X010125Y008972D01*
X010032Y008972D02*
X010219Y008972D01*
X010308Y008972D02*
X010355Y008972D01*
X010355Y009019D01*
X010308Y009019D01*
X010308Y008972D01*
X010446Y009019D02*
X010633Y009206D01*
X010633Y009019D01*
X010586Y008972D01*
X010493Y008972D01*
X010446Y009019D01*
X010446Y009206D01*
X010493Y009253D01*
X010586Y009253D01*
X010633Y009206D01*
X008607Y009113D02*
X008607Y009019D01*
X008561Y008972D01*
X008467Y008972D01*
X008421Y009019D01*
X008421Y009113D01*
X008467Y009159D01*
X008561Y009159D01*
X008607Y009113D01*
X008331Y009159D02*
X008284Y009113D01*
X008144Y009113D01*
X008144Y009253D02*
X008144Y008972D01*
X008284Y008972D01*
X008331Y009019D01*
X008331Y009066D01*
X008284Y009113D01*
X008331Y009159D02*
X008331Y009206D01*
X008284Y009253D01*
X008144Y009253D01*
X007778Y009159D02*
X007731Y009159D01*
X007638Y009066D01*
X007638Y009159D02*
X007638Y008972D01*
X007549Y009019D02*
X007549Y009113D01*
X007502Y009159D01*
X007408Y009159D01*
X007362Y009113D01*
X007362Y009019D01*
X007408Y008972D01*
X007502Y008972D01*
X007549Y009019D01*
X007272Y009019D02*
X007226Y009066D01*
X007132Y009066D01*
X007086Y009113D01*
X007132Y009159D01*
X007272Y009159D01*
X007272Y009019D02*
X007226Y008972D01*
X007086Y008972D01*
X006996Y008972D02*
X006996Y009113D01*
X006949Y009159D01*
X006809Y009159D01*
X006809Y008972D01*
X006720Y009066D02*
X006533Y009066D01*
X006533Y009019D02*
X006533Y009113D01*
X006580Y009159D01*
X006673Y009159D01*
X006720Y009113D01*
X006720Y009066D01*
X006673Y008972D02*
X006580Y008972D01*
X006533Y009019D01*
X006444Y009019D02*
X006397Y008972D01*
X006304Y008972D01*
X006257Y009019D01*
X006304Y009113D02*
X006397Y009113D01*
X006444Y009066D01*
X006444Y009019D01*
X006304Y009113D02*
X006257Y009159D01*
X006257Y009206D01*
X006304Y009253D01*
X006397Y009253D01*
X006444Y009206D01*
X005890Y008972D02*
X005797Y008972D01*
X005843Y008972D02*
X005843Y009253D01*
X005797Y009253D01*
X005660Y009159D02*
X005707Y009113D01*
X005707Y008972D01*
X005567Y008972D01*
X005520Y009019D01*
X005567Y009066D01*
X005707Y009066D01*
X005660Y009159D02*
X005567Y009159D01*
X005431Y009113D02*
X005431Y008972D01*
X005431Y009113D02*
X005384Y009159D01*
X005244Y009159D01*
X005244Y008972D01*
X005154Y009159D02*
X005107Y009159D01*
X005014Y009066D01*
X004925Y009066D02*
X004738Y009066D01*
X004738Y009019D02*
X004738Y009113D01*
X004784Y009159D01*
X004878Y009159D01*
X004925Y009113D01*
X004925Y009066D01*
X004878Y008972D02*
X004784Y008972D01*
X004738Y009019D01*
X004647Y008972D02*
X004600Y009019D01*
X004600Y009206D01*
X004554Y009159D02*
X004647Y009159D01*
X004464Y009159D02*
X004277Y008972D01*
X004188Y008972D02*
X004001Y008972D01*
X004001Y009253D01*
X004188Y009253D01*
X004277Y009159D02*
X004464Y008972D01*
X004095Y009113D02*
X004001Y009113D01*
X003634Y009159D02*
X003541Y009159D01*
X003587Y009206D02*
X003587Y009019D01*
X003634Y008972D01*
X003451Y008972D02*
X003451Y009113D01*
X003405Y009159D01*
X003265Y009159D01*
X003265Y008972D01*
X003174Y008972D02*
X003080Y008972D01*
X003127Y008972D02*
X003127Y009159D01*
X003080Y009159D01*
X002991Y009113D02*
X002944Y009159D01*
X002851Y009159D01*
X002804Y009113D01*
X002804Y009019D01*
X002851Y008972D01*
X002944Y008972D01*
X002991Y009019D01*
X002991Y009113D01*
X003127Y009253D02*
X003127Y009299D01*
X002715Y009206D02*
X002715Y009113D01*
X002668Y009066D01*
X002528Y009066D01*
X002528Y008972D02*
X002528Y009253D01*
X002668Y009253D01*
X002715Y009206D01*
X002439Y009253D02*
X002439Y008972D01*
X002252Y009253D01*
X002252Y008972D01*
X002161Y008972D02*
X002068Y008972D01*
X002114Y008972D02*
X002114Y009253D01*
X002068Y009253D02*
X002161Y009253D01*
X001978Y009206D02*
X001978Y009113D01*
X001932Y009066D01*
X001791Y009066D01*
X001791Y008972D02*
X001791Y009253D01*
X001932Y009253D01*
X001978Y009206D01*
X005014Y009159D02*
X005014Y008972D01*
D13*
X004581Y007922D02*
X003461Y007922D01*
X003461Y007403D01*
X004581Y007403D01*
X004581Y007922D01*
X004700Y005781D02*
X004737Y005781D01*
X005054Y005781D02*
X005091Y005781D01*
X005091Y005144D01*
X005054Y005144D01*
X005091Y005144D02*
X003972Y005144D01*
X004009Y005144D01*
X003972Y005144D02*
X003972Y005781D01*
X004009Y005781D01*
X003972Y005781D02*
X005091Y005781D01*
X004737Y005144D02*
X004326Y005144D01*
X004326Y005781D02*
X004363Y005781D01*
D14*
X004531Y005925D03*
X004157Y005925D03*
X004905Y005925D03*
X004905Y005000D03*
X004157Y005000D03*
D15*
X004391Y007267D03*
X003651Y007267D03*
X004021Y008057D03*
D16*
X003564Y004312D03*
X002994Y004312D03*
D17*
X002981Y007430D03*
X002981Y008000D03*
X004981Y007950D03*
X004981Y007380D03*
M02*
