%
M48
M72
T01C0.0197
T02C0.0236
T03C0.0394
T04C0.0875
T05C0.0984
T06C0.1750
%
T01
X4181Y4322
X3731Y4362
X2531Y5962
X3681Y6178
X4531Y6112
X4931Y6362
X8581Y8062
T02
X8081Y8612
X5681Y6712
X4881Y8062
X4031Y8062
X2981Y8112
X2831Y4312
X5681Y3712
X7281Y1412
X7981Y1312
X8081Y4812
T03
X9031Y3816
X9031Y2766
X2181Y7312
X1381Y7312
X581Y7312
T04
X9981Y3816
X9981Y2766
X11081Y2766
X11081Y3816
T05
X9433Y1494
X2544Y10746
T06
X1331Y3759
X1331Y5709
M30
