G75*
G70*
%OFA0B0*%
%FSLAX24Y24*%
%IPPOS*%
%LPD*%
%AMOC8*
5,1,8,0,0,1.08239X$1,22.5*
%
%ADD10C,0.0000*%
%ADD11C,0.0060*%
%ADD12C,0.0030*%
%ADD13C,0.0040*%
%ADD14C,0.0080*%
D10*
X000383Y000383D02*
X011983Y000383D01*
X011983Y011983D01*
X000383Y011983D01*
X000383Y000383D01*
X000433Y001633D02*
X000435Y001702D01*
X000441Y001771D01*
X000451Y001839D01*
X000465Y001907D01*
X000482Y001974D01*
X000504Y002040D01*
X000529Y002104D01*
X000558Y002167D01*
X000591Y002228D01*
X000627Y002287D01*
X000666Y002344D01*
X000709Y002398D01*
X000754Y002450D01*
X000803Y002500D01*
X000854Y002546D01*
X000908Y002589D01*
X000965Y002630D01*
X001023Y002666D01*
X001084Y002700D01*
X001146Y002730D01*
X001210Y002756D01*
X001275Y002778D01*
X001342Y002797D01*
X001410Y002812D01*
X001478Y002823D01*
X001547Y002830D01*
X001616Y002833D01*
X001685Y002832D01*
X001754Y002827D01*
X001822Y002818D01*
X001890Y002805D01*
X001957Y002788D01*
X002024Y002768D01*
X002088Y002743D01*
X002151Y002715D01*
X002213Y002684D01*
X002272Y002648D01*
X002330Y002610D01*
X002385Y002568D01*
X002438Y002523D01*
X002488Y002475D01*
X002535Y002425D01*
X002579Y002371D01*
X002620Y002316D01*
X002658Y002258D01*
X002692Y002198D01*
X002723Y002136D01*
X002750Y002072D01*
X002773Y002007D01*
X002793Y001941D01*
X002809Y001873D01*
X002821Y001805D01*
X002829Y001737D01*
X002833Y001668D01*
X002833Y001598D01*
X002829Y001529D01*
X002821Y001461D01*
X002809Y001393D01*
X002793Y001325D01*
X002773Y001259D01*
X002750Y001194D01*
X002723Y001130D01*
X002692Y001068D01*
X002658Y001008D01*
X002620Y000950D01*
X002579Y000895D01*
X002535Y000841D01*
X002488Y000791D01*
X002438Y000743D01*
X002385Y000698D01*
X002330Y000656D01*
X002272Y000618D01*
X002213Y000582D01*
X002151Y000551D01*
X002088Y000523D01*
X002024Y000498D01*
X001957Y000478D01*
X001890Y000461D01*
X001822Y000448D01*
X001754Y000439D01*
X001685Y000434D01*
X001616Y000433D01*
X001547Y000436D01*
X001478Y000443D01*
X001410Y000454D01*
X001342Y000469D01*
X001275Y000488D01*
X001210Y000510D01*
X001146Y000536D01*
X001084Y000566D01*
X001023Y000600D01*
X000965Y000636D01*
X000908Y000677D01*
X000854Y000720D01*
X000803Y000766D01*
X000754Y000816D01*
X000709Y000868D01*
X000666Y000922D01*
X000627Y000979D01*
X000591Y001038D01*
X000558Y001099D01*
X000529Y001162D01*
X000504Y001226D01*
X000482Y001292D01*
X000465Y001359D01*
X000451Y001427D01*
X000441Y001495D01*
X000435Y001564D01*
X000433Y001633D01*
X001133Y008583D02*
X001135Y008653D01*
X001141Y008723D01*
X001151Y008792D01*
X001164Y008861D01*
X001182Y008929D01*
X001203Y008996D01*
X001228Y009061D01*
X001257Y009125D01*
X001289Y009188D01*
X001325Y009248D01*
X001364Y009306D01*
X001406Y009362D01*
X001451Y009416D01*
X001499Y009467D01*
X001550Y009515D01*
X001604Y009560D01*
X001660Y009602D01*
X001718Y009641D01*
X001778Y009677D01*
X001841Y009709D01*
X001905Y009738D01*
X001970Y009763D01*
X002037Y009784D01*
X002105Y009802D01*
X002174Y009815D01*
X002243Y009825D01*
X002313Y009831D01*
X002383Y009833D01*
X002453Y009831D01*
X002523Y009825D01*
X002592Y009815D01*
X002661Y009802D01*
X002729Y009784D01*
X002796Y009763D01*
X002861Y009738D01*
X002925Y009709D01*
X002988Y009677D01*
X003048Y009641D01*
X003106Y009602D01*
X003162Y009560D01*
X003216Y009515D01*
X003267Y009467D01*
X003315Y009416D01*
X003360Y009362D01*
X003402Y009306D01*
X003441Y009248D01*
X003477Y009188D01*
X003509Y009125D01*
X003538Y009061D01*
X003563Y008996D01*
X003584Y008929D01*
X003602Y008861D01*
X003615Y008792D01*
X003625Y008723D01*
X003631Y008653D01*
X003633Y008583D01*
X003631Y008513D01*
X003625Y008443D01*
X003615Y008374D01*
X003602Y008305D01*
X003584Y008237D01*
X003563Y008170D01*
X003538Y008105D01*
X003509Y008041D01*
X003477Y007978D01*
X003441Y007918D01*
X003402Y007860D01*
X003360Y007804D01*
X003315Y007750D01*
X003267Y007699D01*
X003216Y007651D01*
X003162Y007606D01*
X003106Y007564D01*
X003048Y007525D01*
X002988Y007489D01*
X002925Y007457D01*
X002861Y007428D01*
X002796Y007403D01*
X002729Y007382D01*
X002661Y007364D01*
X002592Y007351D01*
X002523Y007341D01*
X002453Y007335D01*
X002383Y007333D01*
X002313Y007335D01*
X002243Y007341D01*
X002174Y007351D01*
X002105Y007364D01*
X002037Y007382D01*
X001970Y007403D01*
X001905Y007428D01*
X001841Y007457D01*
X001778Y007489D01*
X001718Y007525D01*
X001660Y007564D01*
X001604Y007606D01*
X001550Y007651D01*
X001499Y007699D01*
X001451Y007750D01*
X001406Y007804D01*
X001364Y007860D01*
X001325Y007918D01*
X001289Y007978D01*
X001257Y008041D01*
X001228Y008105D01*
X001203Y008170D01*
X001182Y008237D01*
X001164Y008305D01*
X001151Y008374D01*
X001141Y008443D01*
X001135Y008513D01*
X001133Y008583D01*
X002333Y010908D02*
X002335Y010952D01*
X002341Y010996D01*
X002351Y011039D01*
X002364Y011081D01*
X002381Y011122D01*
X002402Y011161D01*
X002426Y011198D01*
X002453Y011233D01*
X002483Y011265D01*
X002516Y011295D01*
X002552Y011321D01*
X002589Y011345D01*
X002629Y011364D01*
X002670Y011381D01*
X002713Y011393D01*
X002756Y011402D01*
X002800Y011407D01*
X002844Y011408D01*
X002888Y011405D01*
X002932Y011398D01*
X002975Y011387D01*
X003017Y011373D01*
X003057Y011355D01*
X003096Y011333D01*
X003132Y011309D01*
X003166Y011281D01*
X003198Y011250D01*
X003227Y011216D01*
X003253Y011180D01*
X003275Y011142D01*
X003294Y011102D01*
X003309Y011060D01*
X003321Y011018D01*
X003329Y010974D01*
X003333Y010930D01*
X003333Y010886D01*
X003329Y010842D01*
X003321Y010798D01*
X003309Y010756D01*
X003294Y010714D01*
X003275Y010674D01*
X003253Y010636D01*
X003227Y010600D01*
X003198Y010566D01*
X003166Y010535D01*
X003132Y010507D01*
X003096Y010483D01*
X003057Y010461D01*
X003017Y010443D01*
X002975Y010429D01*
X002932Y010418D01*
X002888Y010411D01*
X002844Y010408D01*
X002800Y010409D01*
X002756Y010414D01*
X002713Y010423D01*
X002670Y010435D01*
X002629Y010452D01*
X002589Y010471D01*
X002552Y010495D01*
X002516Y010521D01*
X002483Y010551D01*
X002453Y010583D01*
X002426Y010618D01*
X002402Y010655D01*
X002381Y010694D01*
X002364Y010735D01*
X002351Y010777D01*
X002341Y010820D01*
X002335Y010864D01*
X002333Y010908D01*
X004333Y008583D02*
X004335Y008653D01*
X004341Y008723D01*
X004351Y008792D01*
X004364Y008861D01*
X004382Y008929D01*
X004403Y008996D01*
X004428Y009061D01*
X004457Y009125D01*
X004489Y009188D01*
X004525Y009248D01*
X004564Y009306D01*
X004606Y009362D01*
X004651Y009416D01*
X004699Y009467D01*
X004750Y009515D01*
X004804Y009560D01*
X004860Y009602D01*
X004918Y009641D01*
X004978Y009677D01*
X005041Y009709D01*
X005105Y009738D01*
X005170Y009763D01*
X005237Y009784D01*
X005305Y009802D01*
X005374Y009815D01*
X005443Y009825D01*
X005513Y009831D01*
X005583Y009833D01*
X005653Y009831D01*
X005723Y009825D01*
X005792Y009815D01*
X005861Y009802D01*
X005929Y009784D01*
X005996Y009763D01*
X006061Y009738D01*
X006125Y009709D01*
X006188Y009677D01*
X006248Y009641D01*
X006306Y009602D01*
X006362Y009560D01*
X006416Y009515D01*
X006467Y009467D01*
X006515Y009416D01*
X006560Y009362D01*
X006602Y009306D01*
X006641Y009248D01*
X006677Y009188D01*
X006709Y009125D01*
X006738Y009061D01*
X006763Y008996D01*
X006784Y008929D01*
X006802Y008861D01*
X006815Y008792D01*
X006825Y008723D01*
X006831Y008653D01*
X006833Y008583D01*
X006831Y008513D01*
X006825Y008443D01*
X006815Y008374D01*
X006802Y008305D01*
X006784Y008237D01*
X006763Y008170D01*
X006738Y008105D01*
X006709Y008041D01*
X006677Y007978D01*
X006641Y007918D01*
X006602Y007860D01*
X006560Y007804D01*
X006515Y007750D01*
X006467Y007699D01*
X006416Y007651D01*
X006362Y007606D01*
X006306Y007564D01*
X006248Y007525D01*
X006188Y007489D01*
X006125Y007457D01*
X006061Y007428D01*
X005996Y007403D01*
X005929Y007382D01*
X005861Y007364D01*
X005792Y007351D01*
X005723Y007341D01*
X005653Y007335D01*
X005583Y007333D01*
X005513Y007335D01*
X005443Y007341D01*
X005374Y007351D01*
X005305Y007364D01*
X005237Y007382D01*
X005170Y007403D01*
X005105Y007428D01*
X005041Y007457D01*
X004978Y007489D01*
X004918Y007525D01*
X004860Y007564D01*
X004804Y007606D01*
X004750Y007651D01*
X004699Y007699D01*
X004651Y007750D01*
X004606Y007804D01*
X004564Y007860D01*
X004525Y007918D01*
X004489Y007978D01*
X004457Y008041D01*
X004428Y008105D01*
X004403Y008170D01*
X004382Y008237D01*
X004364Y008305D01*
X004351Y008374D01*
X004341Y008443D01*
X004335Y008513D01*
X004333Y008583D01*
X009533Y010733D02*
X009535Y010802D01*
X009541Y010871D01*
X009551Y010939D01*
X009565Y011007D01*
X009582Y011074D01*
X009604Y011140D01*
X009629Y011204D01*
X009658Y011267D01*
X009691Y011328D01*
X009727Y011387D01*
X009766Y011444D01*
X009809Y011498D01*
X009854Y011550D01*
X009903Y011600D01*
X009954Y011646D01*
X010008Y011689D01*
X010065Y011730D01*
X010123Y011766D01*
X010184Y011800D01*
X010246Y011830D01*
X010310Y011856D01*
X010375Y011878D01*
X010442Y011897D01*
X010510Y011912D01*
X010578Y011923D01*
X010647Y011930D01*
X010716Y011933D01*
X010785Y011932D01*
X010854Y011927D01*
X010922Y011918D01*
X010990Y011905D01*
X011057Y011888D01*
X011124Y011868D01*
X011188Y011843D01*
X011251Y011815D01*
X011313Y011784D01*
X011372Y011748D01*
X011430Y011710D01*
X011485Y011668D01*
X011538Y011623D01*
X011588Y011575D01*
X011635Y011525D01*
X011679Y011471D01*
X011720Y011416D01*
X011758Y011358D01*
X011792Y011298D01*
X011823Y011236D01*
X011850Y011172D01*
X011873Y011107D01*
X011893Y011041D01*
X011909Y010973D01*
X011921Y010905D01*
X011929Y010837D01*
X011933Y010768D01*
X011933Y010698D01*
X011929Y010629D01*
X011921Y010561D01*
X011909Y010493D01*
X011893Y010425D01*
X011873Y010359D01*
X011850Y010294D01*
X011823Y010230D01*
X011792Y010168D01*
X011758Y010108D01*
X011720Y010050D01*
X011679Y009995D01*
X011635Y009941D01*
X011588Y009891D01*
X011538Y009843D01*
X011485Y009798D01*
X011430Y009756D01*
X011372Y009718D01*
X011313Y009682D01*
X011251Y009651D01*
X011188Y009623D01*
X011124Y009598D01*
X011057Y009578D01*
X010990Y009561D01*
X010922Y009548D01*
X010854Y009539D01*
X010785Y009534D01*
X010716Y009533D01*
X010647Y009536D01*
X010578Y009543D01*
X010510Y009554D01*
X010442Y009569D01*
X010375Y009588D01*
X010310Y009610D01*
X010246Y009636D01*
X010184Y009666D01*
X010123Y009700D01*
X010065Y009736D01*
X010008Y009777D01*
X009954Y009820D01*
X009903Y009866D01*
X009854Y009916D01*
X009809Y009968D01*
X009766Y010022D01*
X009727Y010079D01*
X009691Y010138D01*
X009658Y010199D01*
X009629Y010262D01*
X009604Y010326D01*
X009582Y010392D01*
X009565Y010459D01*
X009551Y010527D01*
X009541Y010595D01*
X009535Y010664D01*
X009533Y010733D01*
X009033Y001658D02*
X009035Y001702D01*
X009041Y001746D01*
X009051Y001789D01*
X009064Y001831D01*
X009081Y001872D01*
X009102Y001911D01*
X009126Y001948D01*
X009153Y001983D01*
X009183Y002015D01*
X009216Y002045D01*
X009252Y002071D01*
X009289Y002095D01*
X009329Y002114D01*
X009370Y002131D01*
X009413Y002143D01*
X009456Y002152D01*
X009500Y002157D01*
X009544Y002158D01*
X009588Y002155D01*
X009632Y002148D01*
X009675Y002137D01*
X009717Y002123D01*
X009757Y002105D01*
X009796Y002083D01*
X009832Y002059D01*
X009866Y002031D01*
X009898Y002000D01*
X009927Y001966D01*
X009953Y001930D01*
X009975Y001892D01*
X009994Y001852D01*
X010009Y001810D01*
X010021Y001768D01*
X010029Y001724D01*
X010033Y001680D01*
X010033Y001636D01*
X010029Y001592D01*
X010021Y001548D01*
X010009Y001506D01*
X009994Y001464D01*
X009975Y001424D01*
X009953Y001386D01*
X009927Y001350D01*
X009898Y001316D01*
X009866Y001285D01*
X009832Y001257D01*
X009796Y001233D01*
X009757Y001211D01*
X009717Y001193D01*
X009675Y001179D01*
X009632Y001168D01*
X009588Y001161D01*
X009544Y001158D01*
X009500Y001159D01*
X009456Y001164D01*
X009413Y001173D01*
X009370Y001185D01*
X009329Y001202D01*
X009289Y001221D01*
X009252Y001245D01*
X009216Y001271D01*
X009183Y001301D01*
X009153Y001333D01*
X009126Y001368D01*
X009102Y001405D01*
X009081Y001444D01*
X009064Y001485D01*
X009051Y001527D01*
X009041Y001570D01*
X009035Y001614D01*
X009033Y001658D01*
D11*
X005709Y001832D02*
X005495Y001832D01*
X005602Y001939D02*
X005602Y001512D01*
X005709Y001405D01*
X005278Y001405D02*
X005278Y001832D01*
X005278Y001405D02*
X004957Y001405D01*
X004851Y001512D01*
X004851Y001832D01*
X004633Y001725D02*
X004633Y001512D01*
X004526Y001405D01*
X004206Y001405D01*
X004206Y001192D02*
X004206Y001832D01*
X004526Y001832D01*
X004633Y001725D01*
X003989Y001725D02*
X003989Y001405D01*
X003989Y001725D02*
X003882Y001832D01*
X003562Y001832D01*
X003562Y001405D01*
X003345Y001405D02*
X003132Y001405D01*
X003239Y001405D02*
X003239Y002046D01*
X003345Y002046D02*
X003132Y002046D01*
X010092Y006937D02*
X010129Y006937D01*
X010092Y006937D02*
X010092Y007575D01*
X010129Y007575D01*
X010446Y007575D02*
X010857Y007575D01*
X011174Y007575D02*
X011211Y007575D01*
X011211Y006937D01*
X011174Y006937D01*
X010857Y006937D02*
X010820Y006937D01*
X010483Y006937D02*
X010446Y006937D01*
D12*
X010358Y008071D02*
X010234Y008071D01*
X010296Y008071D02*
X010296Y008442D01*
X010234Y008442D02*
X010358Y008442D01*
X010480Y008380D02*
X010480Y008133D01*
X010542Y008071D01*
X010665Y008071D01*
X010727Y008133D01*
X010848Y008071D02*
X011095Y008071D01*
X010972Y008071D02*
X010972Y008442D01*
X010848Y008318D01*
X010727Y008380D02*
X010665Y008442D01*
X010542Y008442D01*
X010480Y008380D01*
X009790Y008091D02*
X009543Y008091D01*
X009666Y008091D02*
X009666Y008462D01*
X009543Y008338D01*
X009422Y008400D02*
X009360Y008462D01*
X009236Y008462D01*
X009175Y008400D01*
X009175Y008153D01*
X009236Y008091D01*
X009360Y008091D01*
X009422Y008153D01*
X007413Y005968D02*
X007289Y005968D01*
X007227Y005907D01*
X007227Y005660D01*
X007289Y005598D01*
X007413Y005598D01*
X007474Y005660D01*
X007474Y005783D01*
X007351Y005783D01*
X007474Y005907D02*
X007413Y005968D01*
X007596Y005845D02*
X007596Y005598D01*
X007596Y005721D02*
X007719Y005845D01*
X007781Y005845D01*
X007903Y005783D02*
X007903Y005660D01*
X007964Y005598D01*
X008088Y005598D01*
X008149Y005660D01*
X008149Y005783D01*
X008088Y005845D01*
X007964Y005845D01*
X007903Y005783D01*
X008271Y005845D02*
X008271Y005660D01*
X008333Y005598D01*
X008518Y005598D01*
X008518Y005845D01*
X008639Y005845D02*
X008824Y005845D01*
X008886Y005783D01*
X008886Y005660D01*
X008824Y005598D01*
X008639Y005598D01*
X008639Y005475D02*
X008639Y005845D01*
X008653Y004936D02*
X008715Y004936D01*
X008776Y004875D01*
X008838Y004936D01*
X008900Y004936D01*
X008961Y004875D01*
X008961Y004751D01*
X008900Y004690D01*
X008961Y004568D02*
X008838Y004445D01*
X008838Y004506D02*
X008838Y004321D01*
X008961Y004321D02*
X008591Y004321D01*
X008591Y004506D01*
X008653Y004568D01*
X008776Y004568D01*
X008838Y004506D01*
X008653Y004690D02*
X008591Y004751D01*
X008591Y004875D01*
X008653Y004936D01*
X008776Y004875D02*
X008776Y004813D01*
X008961Y003386D02*
X008961Y003140D01*
X008961Y003018D02*
X008838Y002895D01*
X008838Y002956D02*
X008776Y003018D01*
X008653Y003018D01*
X008591Y002956D01*
X008591Y002771D01*
X008961Y002771D01*
X008838Y002771D02*
X008838Y002956D01*
X008715Y003140D02*
X008591Y003263D01*
X008961Y003263D01*
X010716Y003250D02*
X010716Y003126D01*
X010778Y003065D01*
X010778Y002943D02*
X010716Y002881D01*
X010716Y002696D01*
X011086Y002696D01*
X010963Y002696D02*
X010963Y002881D01*
X010901Y002943D01*
X010778Y002943D01*
X010963Y002820D02*
X011086Y002943D01*
X011086Y003065D02*
X010840Y003311D01*
X010778Y003311D01*
X010716Y003250D01*
X011086Y003311D02*
X011086Y003065D01*
X011086Y004310D02*
X010716Y004310D01*
X010716Y004495D01*
X010778Y004556D01*
X010901Y004556D01*
X010963Y004495D01*
X010963Y004310D01*
X010963Y004433D02*
X011086Y004556D01*
X010901Y004678D02*
X010901Y004925D01*
X011086Y004863D02*
X010716Y004863D01*
X010901Y004678D01*
X007106Y006598D02*
X006859Y006598D01*
X007106Y006845D01*
X007106Y006907D01*
X007044Y006968D01*
X006921Y006968D01*
X006859Y006907D01*
X006737Y006660D02*
X006675Y006660D01*
X006675Y006598D01*
X006737Y006598D01*
X006737Y006660D01*
X006553Y006598D02*
X006307Y006598D01*
X006430Y006598D02*
X006430Y006968D01*
X006307Y006845D01*
X006185Y006845D02*
X006062Y006598D01*
X005938Y006845D01*
X005448Y006845D02*
X005387Y006845D01*
X005263Y006721D01*
X005263Y006598D02*
X005263Y006845D01*
X005142Y006783D02*
X005142Y006660D01*
X005080Y006598D01*
X004956Y006598D01*
X004895Y006660D01*
X004895Y006783D01*
X004956Y006845D01*
X005080Y006845D01*
X005142Y006783D01*
X004773Y006845D02*
X004649Y006845D01*
X004711Y006907D02*
X004711Y006660D01*
X004773Y006598D01*
X004588Y006468D02*
X004588Y006098D01*
X004527Y006098D02*
X004650Y006098D01*
X004404Y006098D02*
X004281Y006098D01*
X004343Y006098D02*
X004343Y006468D01*
X004281Y006468D01*
X004282Y006598D02*
X004282Y006783D01*
X004221Y006845D01*
X004035Y006845D01*
X004035Y006598D01*
X003914Y006660D02*
X003914Y006783D01*
X003852Y006845D01*
X003729Y006845D01*
X003667Y006783D01*
X003667Y006660D01*
X003729Y006598D01*
X003852Y006598D01*
X003914Y006660D01*
X003974Y006345D02*
X003913Y006283D01*
X003913Y006160D01*
X003974Y006098D01*
X004098Y006098D01*
X004160Y006221D02*
X003913Y006221D01*
X003791Y006160D02*
X003730Y006098D01*
X003668Y006160D01*
X003606Y006098D01*
X003544Y006160D01*
X003544Y006345D01*
X003423Y006283D02*
X003423Y006160D01*
X003361Y006098D01*
X003238Y006098D01*
X003176Y006160D01*
X003176Y006283D01*
X003238Y006345D01*
X003361Y006345D01*
X003423Y006283D01*
X003546Y006598D02*
X003546Y006968D01*
X003422Y006845D01*
X003299Y006968D01*
X003299Y006598D01*
X002809Y006721D02*
X002562Y006721D01*
X002562Y006660D02*
X002562Y006783D01*
X002624Y006845D01*
X002747Y006845D01*
X002809Y006783D01*
X002809Y006721D01*
X002747Y006598D02*
X002624Y006598D01*
X002562Y006660D01*
X002441Y006598D02*
X002256Y006598D01*
X002194Y006660D01*
X002194Y006783D01*
X002256Y006845D01*
X002441Y006845D01*
X002441Y006536D01*
X002379Y006475D01*
X002317Y006475D01*
X002318Y006345D02*
X002133Y006345D01*
X002071Y006283D01*
X002133Y006221D01*
X002256Y006221D01*
X002318Y006160D01*
X002256Y006098D01*
X002071Y006098D01*
X001950Y006160D02*
X001888Y006221D01*
X001765Y006221D01*
X001703Y006283D01*
X001765Y006345D01*
X001950Y006345D01*
X001950Y006160D02*
X001888Y006098D01*
X001703Y006098D01*
X001581Y006098D02*
X001396Y006098D01*
X001335Y006160D01*
X001396Y006221D01*
X001581Y006221D01*
X001581Y006283D02*
X001581Y006098D01*
X001581Y006283D02*
X001520Y006345D01*
X001396Y006345D01*
X001213Y006468D02*
X001213Y006098D01*
X000966Y006098D02*
X000966Y006468D01*
X001090Y006345D01*
X001213Y006468D01*
X001151Y006598D02*
X001028Y006598D01*
X000966Y006660D01*
X000966Y006783D01*
X001028Y006845D01*
X001151Y006845D01*
X001213Y006783D01*
X001213Y006660D01*
X001151Y006598D01*
X001335Y006598D02*
X001458Y006598D01*
X001396Y006598D02*
X001396Y006968D01*
X001335Y006968D01*
X001580Y006845D02*
X001704Y006845D01*
X001642Y006907D02*
X001642Y006660D01*
X001704Y006598D01*
X001826Y006660D02*
X001887Y006721D01*
X002072Y006721D01*
X002072Y006783D02*
X002072Y006598D01*
X001887Y006598D01*
X001826Y006660D01*
X001887Y006845D02*
X002011Y006845D01*
X002072Y006783D01*
X002808Y006468D02*
X002808Y006098D01*
X003055Y006098D01*
X003115Y005845D02*
X003053Y005783D01*
X003053Y005660D01*
X003115Y005598D01*
X003300Y005598D01*
X003300Y005536D02*
X003300Y005845D01*
X003115Y005845D01*
X002932Y005783D02*
X002932Y005598D01*
X002932Y005783D02*
X002870Y005845D01*
X002685Y005845D01*
X002685Y005598D01*
X002563Y005598D02*
X002440Y005598D01*
X002501Y005598D02*
X002501Y005845D01*
X002440Y005845D01*
X002318Y005845D02*
X002133Y005845D01*
X002071Y005783D01*
X002071Y005660D01*
X002133Y005598D01*
X002318Y005598D01*
X002318Y005536D02*
X002318Y005845D01*
X002501Y005968D02*
X002501Y006030D01*
X002318Y005536D02*
X002256Y005475D01*
X002195Y005475D01*
X001950Y005598D02*
X001765Y005598D01*
X001703Y005660D01*
X001765Y005721D01*
X001950Y005721D01*
X001950Y005783D02*
X001950Y005598D01*
X001950Y005783D02*
X001888Y005845D01*
X001765Y005845D01*
X001581Y005845D02*
X001581Y005536D01*
X001520Y005475D01*
X001458Y005475D01*
X001396Y005598D02*
X001581Y005598D01*
X001396Y005598D02*
X001335Y005660D01*
X001335Y005783D01*
X001396Y005845D01*
X001581Y005845D01*
X001213Y005783D02*
X001213Y005598D01*
X001213Y005783D02*
X001151Y005845D01*
X000966Y005845D01*
X000966Y005598D01*
X000845Y005598D02*
X000598Y005598D01*
X000598Y005968D01*
X000845Y005968D01*
X000783Y006098D02*
X000660Y006098D01*
X000598Y006160D01*
X000598Y006468D01*
X000721Y006598D02*
X000845Y006721D01*
X000845Y006968D01*
X000598Y006968D02*
X000598Y006721D01*
X000721Y006598D01*
X000845Y006468D02*
X000845Y006160D01*
X000783Y006098D01*
X000721Y005783D02*
X000598Y005783D01*
X003177Y005475D02*
X003239Y005475D01*
X003300Y005536D01*
X003790Y005660D02*
X003852Y005598D01*
X003975Y005598D01*
X004037Y005660D01*
X004158Y005660D02*
X004158Y005783D01*
X004220Y005845D01*
X004343Y005845D01*
X004405Y005783D01*
X004405Y005660D01*
X004343Y005598D01*
X004220Y005598D01*
X004158Y005660D01*
X004037Y005907D02*
X003975Y005968D01*
X003852Y005968D01*
X003790Y005907D01*
X003790Y005660D01*
X003791Y006160D02*
X003791Y006345D01*
X003974Y006345D02*
X004098Y006345D01*
X004160Y006283D01*
X004160Y006221D01*
X004527Y006468D02*
X004588Y006468D01*
X004527Y006598D02*
X004404Y006598D01*
X004465Y006598D02*
X004465Y006845D01*
X004404Y006845D01*
X004465Y006968D02*
X004465Y007030D01*
X004527Y005845D02*
X004588Y005845D01*
X004650Y005783D01*
X004712Y005845D01*
X004773Y005783D01*
X004773Y005598D01*
X004895Y005598D02*
X005080Y005598D01*
X005142Y005660D01*
X005142Y005783D01*
X005080Y005845D01*
X004895Y005845D01*
X004895Y005475D01*
X004650Y005598D02*
X004650Y005783D01*
X004527Y005845D02*
X004527Y005598D01*
X005263Y005660D02*
X005325Y005598D01*
X005510Y005598D01*
X005510Y005845D01*
X005631Y005845D02*
X005755Y005845D01*
X005693Y005907D02*
X005693Y005660D01*
X005755Y005598D01*
X005877Y005598D02*
X006000Y005598D01*
X005939Y005598D02*
X005939Y005845D01*
X005877Y005845D01*
X005939Y005968D02*
X005939Y006030D01*
X006123Y005845D02*
X006308Y005845D01*
X006369Y005783D01*
X006369Y005598D01*
X006491Y005660D02*
X006553Y005598D01*
X006738Y005598D01*
X006738Y005536D02*
X006738Y005845D01*
X006553Y005845D01*
X006491Y005783D01*
X006491Y005660D01*
X006614Y005475D02*
X006676Y005475D01*
X006738Y005536D01*
X006123Y005598D02*
X006123Y005845D01*
X005263Y005845D02*
X005263Y005660D01*
D13*
X005078Y005398D02*
X005078Y005313D01*
X005078Y005143D02*
X005078Y004718D01*
X004993Y004633D01*
X004908Y004633D01*
X004656Y004803D02*
X004741Y004888D01*
X004741Y005058D01*
X004656Y005143D01*
X004486Y005143D01*
X004401Y005058D01*
X004401Y004888D01*
X004486Y004803D01*
X004656Y004803D01*
X004234Y005143D02*
X004149Y005143D01*
X003979Y004973D01*
X003979Y004803D02*
X003979Y005143D01*
X003813Y005058D02*
X003728Y004973D01*
X003473Y004973D01*
X003473Y004803D02*
X003473Y005313D01*
X003728Y005313D01*
X003813Y005228D01*
X003813Y005058D01*
X003307Y005058D02*
X003307Y004973D01*
X002966Y004973D01*
X002966Y004888D02*
X002966Y005058D01*
X003051Y005143D01*
X003221Y005143D01*
X003307Y005058D01*
X003221Y004803D02*
X003051Y004803D01*
X002966Y004888D01*
X002800Y004888D02*
X002715Y004973D01*
X002545Y004973D01*
X002460Y005058D01*
X002545Y005143D01*
X002800Y005143D01*
X002800Y004888D02*
X002715Y004803D01*
X002460Y004803D01*
X002294Y004803D02*
X002294Y005058D01*
X002209Y005143D01*
X001953Y005143D01*
X001953Y004803D01*
X001787Y004973D02*
X001447Y004973D01*
X001447Y004888D02*
X001447Y005058D01*
X001532Y005143D01*
X001702Y005143D01*
X001787Y005058D01*
X001787Y004973D01*
X001702Y004803D02*
X001532Y004803D01*
X001447Y004888D01*
X001281Y004888D02*
X001281Y004973D01*
X001196Y005058D01*
X001026Y005058D01*
X000941Y005143D01*
X000941Y005228D01*
X001026Y005313D01*
X001196Y005313D01*
X001281Y005228D01*
X001281Y004888D02*
X001196Y004803D01*
X001026Y004803D01*
X000941Y004888D01*
X000773Y004803D02*
X000603Y004803D01*
X000688Y004803D02*
X000688Y005143D01*
X000603Y005143D01*
X000688Y005313D02*
X000688Y005398D01*
X005245Y005058D02*
X005245Y004888D01*
X005330Y004803D01*
X005500Y004803D01*
X005585Y004973D02*
X005245Y004973D01*
X005245Y005058D02*
X005330Y005143D01*
X005500Y005143D01*
X005585Y005058D01*
X005585Y004973D01*
X005752Y004888D02*
X005837Y004803D01*
X006092Y004803D01*
X006343Y004888D02*
X006428Y004803D01*
X006343Y004888D02*
X006343Y005228D01*
X006258Y005143D02*
X006428Y005143D01*
X006596Y004888D02*
X006681Y004888D01*
X006681Y004803D01*
X006596Y004803D01*
X006596Y004888D01*
X006849Y004888D02*
X006849Y005058D01*
X006934Y005143D01*
X007104Y005143D01*
X007189Y005058D01*
X007189Y004888D01*
X007104Y004803D01*
X006934Y004803D01*
X006849Y004888D01*
X007355Y004803D02*
X007355Y005143D01*
X007355Y004973D02*
X007525Y005143D01*
X007610Y005143D01*
X007777Y005058D02*
X007777Y004888D01*
X007862Y004803D01*
X008117Y004803D01*
X008117Y004718D02*
X008117Y005143D01*
X007862Y005143D01*
X007777Y005058D01*
X008117Y004718D02*
X008032Y004633D01*
X007947Y004633D01*
X006092Y005143D02*
X005837Y005143D01*
X005752Y005058D01*
X005752Y004888D01*
D14*
X006183Y002137D02*
X005933Y001887D01*
X005933Y001387D01*
X006183Y001137D01*
X006683Y001137D01*
X006933Y001387D01*
X007183Y001137D01*
X007683Y001137D01*
X007933Y001387D01*
X007933Y001887D01*
X007683Y002137D01*
X007183Y002137D01*
X006933Y001887D01*
X006683Y002137D01*
X006183Y002137D01*
X008159Y008110D02*
X008659Y008110D01*
X008909Y008360D01*
X008909Y008860D01*
X008659Y009110D01*
X008909Y009360D01*
X008909Y009860D01*
X008659Y010110D01*
X008909Y010360D01*
X008909Y010860D01*
X008659Y011110D01*
X008159Y011110D01*
X007909Y010860D01*
X007909Y010360D01*
X008159Y010110D01*
X007909Y009860D01*
X007909Y009360D01*
X008159Y009110D01*
X007909Y008860D01*
X007909Y008360D01*
X008159Y008110D01*
M02*
