%
M48
M72
T01C0.0315
T02C0.0472
T03C0.0591
T04C0.1000
T05C0.1980
%
T01
X2933Y2481
X4583Y4481
X5933Y4281
X4233Y6581
X1933Y6281
X1933Y4681
T02
X7833Y7431
X8633Y6681
X7833Y8431
X7833Y9431
X8633Y2681
T03
X9833Y2681
X10833Y2681
X10733Y6681
X9733Y6681
T04
X9583Y1456
X2883Y10706
T05
X1683Y1431
X2433Y8381
X5633Y8381
X10783Y10531
M30
