G75*
G70*
%OFA0B0*%
%FSLAX24Y24*%
%IPPOS*%
%LPD*%
%AMOC8*
5,1,8,0,0,1.08239X$1,22.5*
%
%ADD10C,0.0120*%
%ADD11C,0.0050*%
%ADD12C,0.0160*%
%ADD13C,0.0040*%
%ADD14R,0.0256X0.0551*%
%ADD15C,0.0060*%
%ADD16R,0.0335X0.1221*%
D10*
X002820Y000903D02*
X003050Y001133D01*
X003510Y001133D01*
X003740Y001363D01*
X003510Y001593D01*
X002820Y001593D01*
X002820Y000903D02*
X003050Y000672D01*
X003740Y000672D01*
X004201Y000672D02*
X004661Y001133D01*
X004431Y001133D02*
X005121Y001133D01*
X005121Y000672D02*
X005121Y002054D01*
X004431Y002054D01*
X004201Y001823D01*
X004201Y001363D01*
X004431Y001133D01*
X004201Y002572D02*
X004661Y003033D01*
X004431Y003033D02*
X005121Y003033D01*
X005121Y002572D02*
X005121Y003954D01*
X004431Y003954D01*
X004201Y003723D01*
X004201Y003263D01*
X004431Y003033D01*
X003740Y003263D02*
X003280Y003263D01*
X003740Y002572D02*
X003740Y003954D01*
X002820Y003954D01*
X003050Y004472D02*
X003510Y004472D01*
X003740Y004703D01*
X004201Y004472D02*
X004661Y004933D01*
X004431Y004933D02*
X005121Y004933D01*
X005121Y004472D02*
X005121Y005854D01*
X004431Y005854D01*
X004201Y005623D01*
X004201Y005163D01*
X004431Y004933D01*
X003740Y005623D02*
X003510Y005854D01*
X003050Y005854D01*
X002820Y005623D01*
X002820Y005393D01*
X003050Y005163D01*
X002820Y004933D01*
X002820Y004703D01*
X003050Y004472D01*
X003050Y005163D02*
X003280Y005163D01*
X002820Y006372D02*
X003740Y006372D01*
X002820Y007293D01*
X002820Y007523D01*
X003050Y007754D01*
X003510Y007754D01*
X003740Y007523D01*
X004201Y007523D02*
X004201Y007063D01*
X004431Y006833D01*
X005121Y006833D01*
X004661Y006833D02*
X004201Y006372D01*
X005121Y006372D02*
X005121Y007754D01*
X004431Y007754D01*
X004201Y007523D01*
X004201Y008272D02*
X004661Y008733D01*
X004431Y008733D02*
X005121Y008733D01*
X005121Y008272D02*
X005121Y009654D01*
X004431Y009654D01*
X004201Y009423D01*
X004201Y008963D01*
X004431Y008733D01*
X003740Y009193D02*
X003280Y009654D01*
X003280Y008272D01*
X003740Y008272D02*
X002820Y008272D01*
X008820Y007872D02*
X009740Y007872D01*
X008820Y008793D01*
X008820Y009023D01*
X009050Y009254D01*
X009510Y009254D01*
X009740Y009023D01*
X010201Y009254D02*
X010201Y008333D01*
X010661Y007872D01*
X011121Y008333D01*
X011121Y009254D01*
D11*
X002681Y002312D02*
X002681Y000512D01*
X008581Y000512D01*
X008581Y002312D01*
X002681Y002312D01*
X002681Y002412D02*
X002681Y004212D01*
X008581Y004212D01*
X008581Y002412D01*
X002681Y002412D01*
X002681Y004312D02*
X002681Y006112D01*
X008581Y006112D01*
X008581Y004312D01*
X002681Y004312D01*
X002681Y006212D02*
X002681Y008012D01*
X008581Y008012D01*
X008581Y006212D01*
X002681Y006212D01*
X002681Y008112D02*
X008581Y008112D01*
X008581Y009912D01*
X002681Y009912D01*
X002681Y008112D01*
X008681Y009412D02*
X008681Y004712D01*
X011281Y004712D01*
X011281Y009412D01*
X008681Y009412D01*
D12*
X007981Y009412D02*
X007981Y008612D01*
X007281Y008612D02*
X006481Y008612D01*
X005781Y008612D02*
X005781Y009412D01*
X006481Y009412D02*
X007281Y009412D01*
X007281Y007512D02*
X006481Y007512D01*
X005781Y007512D02*
X005781Y006712D01*
X006481Y006712D02*
X007281Y006712D01*
X007981Y006712D02*
X007981Y007512D01*
X007981Y005612D02*
X007981Y004812D01*
X007281Y004812D02*
X006481Y004812D01*
X005781Y004812D02*
X005781Y005612D01*
X006481Y005612D02*
X007281Y005612D01*
X007281Y003712D02*
X006481Y003712D01*
X005781Y003712D02*
X005781Y002912D01*
X006481Y002912D02*
X007281Y002912D01*
X007981Y002912D02*
X007981Y003712D01*
D13*
X009848Y005732D02*
X009694Y005886D01*
X009694Y006193D01*
X010001Y006193D02*
X010001Y005886D01*
X009848Y005732D01*
X010155Y005809D02*
X010231Y005732D01*
X010385Y005732D01*
X010461Y005809D01*
X010155Y006116D01*
X010155Y005809D01*
X010155Y006116D02*
X010231Y006193D01*
X010385Y006193D01*
X010461Y006116D01*
X010461Y005809D01*
X010455Y007232D02*
X010761Y007232D01*
X010455Y007539D01*
X010455Y007616D01*
X010531Y007693D01*
X010685Y007693D01*
X010761Y007616D01*
X010301Y007309D02*
X010301Y007232D01*
X010224Y007232D01*
X010224Y007309D01*
X010301Y007309D01*
X010071Y007309D02*
X009994Y007232D01*
X009841Y007232D01*
X009764Y007309D01*
X009764Y007463D01*
X009841Y007539D01*
X009917Y007539D01*
X010071Y007463D01*
X010071Y007693D01*
X009764Y007693D01*
X009611Y007693D02*
X009611Y007386D01*
X009457Y007232D01*
X009304Y007386D01*
X009304Y007693D01*
D14*
X009693Y006713D03*
X010273Y006713D03*
X010273Y005213D03*
X009693Y005213D03*
X007973Y004813D03*
X007393Y004813D03*
X007393Y005613D03*
X007973Y005613D03*
X007973Y006713D03*
X007393Y006713D03*
X007393Y007513D03*
X007973Y007513D03*
X007973Y008613D03*
X007393Y008613D03*
X007393Y009413D03*
X007973Y009413D03*
X006373Y009413D03*
X005793Y009413D03*
X005793Y008613D03*
X006373Y008613D03*
X006373Y007513D03*
X005793Y007513D03*
X005793Y006713D03*
X006373Y006713D03*
X006373Y005613D03*
X005793Y005613D03*
X005793Y004813D03*
X006373Y004813D03*
X006373Y003713D03*
X005793Y003713D03*
X005793Y002913D03*
X006373Y002913D03*
X007393Y002913D03*
X007973Y002913D03*
X007973Y003713D03*
X007393Y003713D03*
D15*
X007520Y003962D02*
X007843Y003962D01*
X007843Y003462D02*
X007520Y003462D01*
X007520Y003162D02*
X007843Y003162D01*
X007843Y002662D02*
X007520Y002662D01*
X007821Y001992D02*
X005951Y001992D01*
X005920Y002662D02*
X006243Y002662D01*
X006243Y003162D02*
X005920Y003162D01*
X005920Y003462D02*
X006243Y003462D01*
X006243Y003962D02*
X005920Y003962D01*
X005920Y004562D02*
X006243Y004562D01*
X006243Y005062D02*
X005920Y005062D01*
X005920Y005362D02*
X006243Y005362D01*
X006243Y005862D02*
X005920Y005862D01*
X005920Y006462D02*
X006243Y006462D01*
X006243Y006962D02*
X005920Y006962D01*
X005920Y007262D02*
X006243Y007262D01*
X006243Y007762D02*
X005920Y007762D01*
X005920Y008362D02*
X006243Y008362D01*
X006243Y008862D02*
X005920Y008862D01*
X005920Y009162D02*
X006243Y009162D01*
X006243Y009662D02*
X005920Y009662D01*
X007520Y009662D02*
X007843Y009662D01*
X007843Y009162D02*
X007520Y009162D01*
X007520Y008862D02*
X007843Y008862D01*
X007843Y008362D02*
X007520Y008362D01*
X007520Y007762D02*
X007843Y007762D01*
X007843Y007262D02*
X007520Y007262D01*
X007520Y006962D02*
X007843Y006962D01*
X007843Y006462D02*
X007520Y006462D01*
X007520Y005862D02*
X007843Y005862D01*
X007843Y005362D02*
X007520Y005362D01*
X007520Y005062D02*
X007843Y005062D01*
X007843Y004562D02*
X007520Y004562D01*
X009820Y004962D02*
X010143Y004962D01*
X010143Y005462D02*
X009820Y005462D01*
X009820Y006462D02*
X010143Y006462D01*
X010143Y006962D02*
X009820Y006962D01*
X007821Y000833D02*
X005951Y000833D01*
D16*
X005789Y001412D03*
X007979Y001412D03*
M02*
