G75*
G70*
%OFA0B0*%
%FSLAX24Y24*%
%IPPOS*%
%LPD*%
%AMOC8*
5,1,8,0,0,1.08239X$1,22.5*
%
%ADD10C,0.0000*%
%ADD11C,0.0100*%
%ADD12C,0.0030*%
%ADD13C,0.0020*%
%ADD14C,0.0060*%
%ADD15C,0.0040*%
D10*
X000433Y000181D02*
X012033Y000181D01*
X012033Y011781D01*
X000433Y011781D01*
X000433Y000181D01*
X000693Y001431D02*
X000695Y001494D01*
X000701Y001556D01*
X000711Y001618D01*
X000725Y001680D01*
X000742Y001740D01*
X000764Y001799D01*
X000789Y001856D01*
X000818Y001912D01*
X000850Y001966D01*
X000886Y002018D01*
X000925Y002067D01*
X000967Y002114D01*
X001011Y002158D01*
X001059Y002199D01*
X001109Y002237D01*
X001161Y002272D01*
X001215Y002304D01*
X001272Y002332D01*
X001330Y002356D01*
X001389Y002376D01*
X001450Y002393D01*
X001511Y002406D01*
X001573Y002415D01*
X001636Y002420D01*
X001699Y002421D01*
X001761Y002418D01*
X001824Y002411D01*
X001886Y002400D01*
X001947Y002385D01*
X002007Y002367D01*
X002065Y002344D01*
X002123Y002318D01*
X002178Y002288D01*
X002231Y002255D01*
X002283Y002219D01*
X002331Y002179D01*
X002377Y002137D01*
X002421Y002091D01*
X002461Y002043D01*
X002498Y001992D01*
X002532Y001940D01*
X002563Y001885D01*
X002590Y001828D01*
X002613Y001770D01*
X002633Y001710D01*
X002649Y001649D01*
X002661Y001587D01*
X002669Y001525D01*
X002673Y001462D01*
X002673Y001400D01*
X002669Y001337D01*
X002661Y001275D01*
X002649Y001213D01*
X002633Y001152D01*
X002613Y001092D01*
X002590Y001034D01*
X002563Y000977D01*
X002532Y000922D01*
X002498Y000870D01*
X002461Y000819D01*
X002421Y000771D01*
X002377Y000725D01*
X002331Y000683D01*
X002283Y000643D01*
X002231Y000607D01*
X002178Y000574D01*
X002123Y000544D01*
X002065Y000518D01*
X002007Y000495D01*
X001947Y000477D01*
X001886Y000462D01*
X001824Y000451D01*
X001761Y000444D01*
X001699Y000441D01*
X001636Y000442D01*
X001573Y000447D01*
X001511Y000456D01*
X001450Y000469D01*
X001389Y000486D01*
X001330Y000506D01*
X001272Y000530D01*
X001215Y000558D01*
X001161Y000590D01*
X001109Y000625D01*
X001059Y000663D01*
X001011Y000704D01*
X000967Y000748D01*
X000925Y000795D01*
X000886Y000844D01*
X000850Y000896D01*
X000818Y000950D01*
X000789Y001006D01*
X000764Y001063D01*
X000742Y001122D01*
X000725Y001182D01*
X000711Y001244D01*
X000701Y001306D01*
X000695Y001368D01*
X000693Y001431D01*
X001443Y008381D02*
X001445Y008444D01*
X001451Y008506D01*
X001461Y008568D01*
X001475Y008630D01*
X001492Y008690D01*
X001514Y008749D01*
X001539Y008806D01*
X001568Y008862D01*
X001600Y008916D01*
X001636Y008968D01*
X001675Y009017D01*
X001717Y009064D01*
X001761Y009108D01*
X001809Y009149D01*
X001859Y009187D01*
X001911Y009222D01*
X001965Y009254D01*
X002022Y009282D01*
X002080Y009306D01*
X002139Y009326D01*
X002200Y009343D01*
X002261Y009356D01*
X002323Y009365D01*
X002386Y009370D01*
X002449Y009371D01*
X002511Y009368D01*
X002574Y009361D01*
X002636Y009350D01*
X002697Y009335D01*
X002757Y009317D01*
X002815Y009294D01*
X002873Y009268D01*
X002928Y009238D01*
X002981Y009205D01*
X003033Y009169D01*
X003081Y009129D01*
X003127Y009087D01*
X003171Y009041D01*
X003211Y008993D01*
X003248Y008942D01*
X003282Y008890D01*
X003313Y008835D01*
X003340Y008778D01*
X003363Y008720D01*
X003383Y008660D01*
X003399Y008599D01*
X003411Y008537D01*
X003419Y008475D01*
X003423Y008412D01*
X003423Y008350D01*
X003419Y008287D01*
X003411Y008225D01*
X003399Y008163D01*
X003383Y008102D01*
X003363Y008042D01*
X003340Y007984D01*
X003313Y007927D01*
X003282Y007872D01*
X003248Y007820D01*
X003211Y007769D01*
X003171Y007721D01*
X003127Y007675D01*
X003081Y007633D01*
X003033Y007593D01*
X002981Y007557D01*
X002928Y007524D01*
X002873Y007494D01*
X002815Y007468D01*
X002757Y007445D01*
X002697Y007427D01*
X002636Y007412D01*
X002574Y007401D01*
X002511Y007394D01*
X002449Y007391D01*
X002386Y007392D01*
X002323Y007397D01*
X002261Y007406D01*
X002200Y007419D01*
X002139Y007436D01*
X002080Y007456D01*
X002022Y007480D01*
X001965Y007508D01*
X001911Y007540D01*
X001859Y007575D01*
X001809Y007613D01*
X001761Y007654D01*
X001717Y007698D01*
X001675Y007745D01*
X001636Y007794D01*
X001600Y007846D01*
X001568Y007900D01*
X001539Y007956D01*
X001514Y008013D01*
X001492Y008072D01*
X001475Y008132D01*
X001461Y008194D01*
X001451Y008256D01*
X001445Y008318D01*
X001443Y008381D01*
X002383Y010706D02*
X002385Y010750D01*
X002391Y010794D01*
X002401Y010837D01*
X002414Y010879D01*
X002431Y010920D01*
X002452Y010959D01*
X002476Y010996D01*
X002503Y011031D01*
X002533Y011063D01*
X002566Y011093D01*
X002602Y011119D01*
X002639Y011143D01*
X002679Y011162D01*
X002720Y011179D01*
X002763Y011191D01*
X002806Y011200D01*
X002850Y011205D01*
X002894Y011206D01*
X002938Y011203D01*
X002982Y011196D01*
X003025Y011185D01*
X003067Y011171D01*
X003107Y011153D01*
X003146Y011131D01*
X003182Y011107D01*
X003216Y011079D01*
X003248Y011048D01*
X003277Y011014D01*
X003303Y010978D01*
X003325Y010940D01*
X003344Y010900D01*
X003359Y010858D01*
X003371Y010816D01*
X003379Y010772D01*
X003383Y010728D01*
X003383Y010684D01*
X003379Y010640D01*
X003371Y010596D01*
X003359Y010554D01*
X003344Y010512D01*
X003325Y010472D01*
X003303Y010434D01*
X003277Y010398D01*
X003248Y010364D01*
X003216Y010333D01*
X003182Y010305D01*
X003146Y010281D01*
X003107Y010259D01*
X003067Y010241D01*
X003025Y010227D01*
X002982Y010216D01*
X002938Y010209D01*
X002894Y010206D01*
X002850Y010207D01*
X002806Y010212D01*
X002763Y010221D01*
X002720Y010233D01*
X002679Y010250D01*
X002639Y010269D01*
X002602Y010293D01*
X002566Y010319D01*
X002533Y010349D01*
X002503Y010381D01*
X002476Y010416D01*
X002452Y010453D01*
X002431Y010492D01*
X002414Y010533D01*
X002401Y010575D01*
X002391Y010618D01*
X002385Y010662D01*
X002383Y010706D01*
X004643Y008381D02*
X004645Y008444D01*
X004651Y008506D01*
X004661Y008568D01*
X004675Y008630D01*
X004692Y008690D01*
X004714Y008749D01*
X004739Y008806D01*
X004768Y008862D01*
X004800Y008916D01*
X004836Y008968D01*
X004875Y009017D01*
X004917Y009064D01*
X004961Y009108D01*
X005009Y009149D01*
X005059Y009187D01*
X005111Y009222D01*
X005165Y009254D01*
X005222Y009282D01*
X005280Y009306D01*
X005339Y009326D01*
X005400Y009343D01*
X005461Y009356D01*
X005523Y009365D01*
X005586Y009370D01*
X005649Y009371D01*
X005711Y009368D01*
X005774Y009361D01*
X005836Y009350D01*
X005897Y009335D01*
X005957Y009317D01*
X006015Y009294D01*
X006073Y009268D01*
X006128Y009238D01*
X006181Y009205D01*
X006233Y009169D01*
X006281Y009129D01*
X006327Y009087D01*
X006371Y009041D01*
X006411Y008993D01*
X006448Y008942D01*
X006482Y008890D01*
X006513Y008835D01*
X006540Y008778D01*
X006563Y008720D01*
X006583Y008660D01*
X006599Y008599D01*
X006611Y008537D01*
X006619Y008475D01*
X006623Y008412D01*
X006623Y008350D01*
X006619Y008287D01*
X006611Y008225D01*
X006599Y008163D01*
X006583Y008102D01*
X006563Y008042D01*
X006540Y007984D01*
X006513Y007927D01*
X006482Y007872D01*
X006448Y007820D01*
X006411Y007769D01*
X006371Y007721D01*
X006327Y007675D01*
X006281Y007633D01*
X006233Y007593D01*
X006181Y007557D01*
X006128Y007524D01*
X006073Y007494D01*
X006015Y007468D01*
X005957Y007445D01*
X005897Y007427D01*
X005836Y007412D01*
X005774Y007401D01*
X005711Y007394D01*
X005649Y007391D01*
X005586Y007392D01*
X005523Y007397D01*
X005461Y007406D01*
X005400Y007419D01*
X005339Y007436D01*
X005280Y007456D01*
X005222Y007480D01*
X005165Y007508D01*
X005111Y007540D01*
X005059Y007575D01*
X005009Y007613D01*
X004961Y007654D01*
X004917Y007698D01*
X004875Y007745D01*
X004836Y007794D01*
X004800Y007846D01*
X004768Y007900D01*
X004739Y007956D01*
X004714Y008013D01*
X004692Y008072D01*
X004675Y008132D01*
X004661Y008194D01*
X004651Y008256D01*
X004645Y008318D01*
X004643Y008381D01*
X009438Y006681D02*
X009440Y006715D01*
X009446Y006749D01*
X009456Y006782D01*
X009469Y006813D01*
X009487Y006843D01*
X009507Y006871D01*
X009531Y006896D01*
X009557Y006918D01*
X009585Y006936D01*
X009616Y006952D01*
X009648Y006964D01*
X009682Y006972D01*
X009716Y006976D01*
X009750Y006976D01*
X009784Y006972D01*
X009818Y006964D01*
X009850Y006952D01*
X009880Y006936D01*
X009909Y006918D01*
X009935Y006896D01*
X009959Y006871D01*
X009979Y006843D01*
X009997Y006813D01*
X010010Y006782D01*
X010020Y006749D01*
X010026Y006715D01*
X010028Y006681D01*
X010026Y006647D01*
X010020Y006613D01*
X010010Y006580D01*
X009997Y006549D01*
X009979Y006519D01*
X009959Y006491D01*
X009935Y006466D01*
X009909Y006444D01*
X009881Y006426D01*
X009850Y006410D01*
X009818Y006398D01*
X009784Y006390D01*
X009750Y006386D01*
X009716Y006386D01*
X009682Y006390D01*
X009648Y006398D01*
X009616Y006410D01*
X009585Y006426D01*
X009557Y006444D01*
X009531Y006466D01*
X009507Y006491D01*
X009487Y006519D01*
X009469Y006549D01*
X009456Y006580D01*
X009446Y006613D01*
X009440Y006647D01*
X009438Y006681D01*
X010438Y006681D02*
X010440Y006715D01*
X010446Y006749D01*
X010456Y006782D01*
X010469Y006813D01*
X010487Y006843D01*
X010507Y006871D01*
X010531Y006896D01*
X010557Y006918D01*
X010585Y006936D01*
X010616Y006952D01*
X010648Y006964D01*
X010682Y006972D01*
X010716Y006976D01*
X010750Y006976D01*
X010784Y006972D01*
X010818Y006964D01*
X010850Y006952D01*
X010880Y006936D01*
X010909Y006918D01*
X010935Y006896D01*
X010959Y006871D01*
X010979Y006843D01*
X010997Y006813D01*
X011010Y006782D01*
X011020Y006749D01*
X011026Y006715D01*
X011028Y006681D01*
X011026Y006647D01*
X011020Y006613D01*
X011010Y006580D01*
X010997Y006549D01*
X010979Y006519D01*
X010959Y006491D01*
X010935Y006466D01*
X010909Y006444D01*
X010881Y006426D01*
X010850Y006410D01*
X010818Y006398D01*
X010784Y006390D01*
X010750Y006386D01*
X010716Y006386D01*
X010682Y006390D01*
X010648Y006398D01*
X010616Y006410D01*
X010585Y006426D01*
X010557Y006444D01*
X010531Y006466D01*
X010507Y006491D01*
X010487Y006519D01*
X010469Y006549D01*
X010456Y006580D01*
X010446Y006613D01*
X010440Y006647D01*
X010438Y006681D01*
X009793Y010531D02*
X009795Y010594D01*
X009801Y010656D01*
X009811Y010718D01*
X009825Y010780D01*
X009842Y010840D01*
X009864Y010899D01*
X009889Y010956D01*
X009918Y011012D01*
X009950Y011066D01*
X009986Y011118D01*
X010025Y011167D01*
X010067Y011214D01*
X010111Y011258D01*
X010159Y011299D01*
X010209Y011337D01*
X010261Y011372D01*
X010315Y011404D01*
X010372Y011432D01*
X010430Y011456D01*
X010489Y011476D01*
X010550Y011493D01*
X010611Y011506D01*
X010673Y011515D01*
X010736Y011520D01*
X010799Y011521D01*
X010861Y011518D01*
X010924Y011511D01*
X010986Y011500D01*
X011047Y011485D01*
X011107Y011467D01*
X011165Y011444D01*
X011223Y011418D01*
X011278Y011388D01*
X011331Y011355D01*
X011383Y011319D01*
X011431Y011279D01*
X011477Y011237D01*
X011521Y011191D01*
X011561Y011143D01*
X011598Y011092D01*
X011632Y011040D01*
X011663Y010985D01*
X011690Y010928D01*
X011713Y010870D01*
X011733Y010810D01*
X011749Y010749D01*
X011761Y010687D01*
X011769Y010625D01*
X011773Y010562D01*
X011773Y010500D01*
X011769Y010437D01*
X011761Y010375D01*
X011749Y010313D01*
X011733Y010252D01*
X011713Y010192D01*
X011690Y010134D01*
X011663Y010077D01*
X011632Y010022D01*
X011598Y009970D01*
X011561Y009919D01*
X011521Y009871D01*
X011477Y009825D01*
X011431Y009783D01*
X011383Y009743D01*
X011331Y009707D01*
X011278Y009674D01*
X011223Y009644D01*
X011165Y009618D01*
X011107Y009595D01*
X011047Y009577D01*
X010986Y009562D01*
X010924Y009551D01*
X010861Y009544D01*
X010799Y009541D01*
X010736Y009542D01*
X010673Y009547D01*
X010611Y009556D01*
X010550Y009569D01*
X010489Y009586D01*
X010430Y009606D01*
X010372Y009630D01*
X010315Y009658D01*
X010261Y009690D01*
X010209Y009725D01*
X010159Y009763D01*
X010111Y009804D01*
X010067Y009848D01*
X010025Y009895D01*
X009986Y009944D01*
X009950Y009996D01*
X009918Y010050D01*
X009889Y010106D01*
X009864Y010163D01*
X009842Y010222D01*
X009825Y010282D01*
X009811Y010344D01*
X009801Y010406D01*
X009795Y010468D01*
X009793Y010531D01*
X009538Y002681D02*
X009540Y002715D01*
X009546Y002749D01*
X009556Y002782D01*
X009569Y002813D01*
X009587Y002843D01*
X009607Y002871D01*
X009631Y002896D01*
X009657Y002918D01*
X009685Y002936D01*
X009716Y002952D01*
X009748Y002964D01*
X009782Y002972D01*
X009816Y002976D01*
X009850Y002976D01*
X009884Y002972D01*
X009918Y002964D01*
X009950Y002952D01*
X009980Y002936D01*
X010009Y002918D01*
X010035Y002896D01*
X010059Y002871D01*
X010079Y002843D01*
X010097Y002813D01*
X010110Y002782D01*
X010120Y002749D01*
X010126Y002715D01*
X010128Y002681D01*
X010126Y002647D01*
X010120Y002613D01*
X010110Y002580D01*
X010097Y002549D01*
X010079Y002519D01*
X010059Y002491D01*
X010035Y002466D01*
X010009Y002444D01*
X009981Y002426D01*
X009950Y002410D01*
X009918Y002398D01*
X009884Y002390D01*
X009850Y002386D01*
X009816Y002386D01*
X009782Y002390D01*
X009748Y002398D01*
X009716Y002410D01*
X009685Y002426D01*
X009657Y002444D01*
X009631Y002466D01*
X009607Y002491D01*
X009587Y002519D01*
X009569Y002549D01*
X009556Y002580D01*
X009546Y002613D01*
X009540Y002647D01*
X009538Y002681D01*
X009083Y001456D02*
X009085Y001500D01*
X009091Y001544D01*
X009101Y001587D01*
X009114Y001629D01*
X009131Y001670D01*
X009152Y001709D01*
X009176Y001746D01*
X009203Y001781D01*
X009233Y001813D01*
X009266Y001843D01*
X009302Y001869D01*
X009339Y001893D01*
X009379Y001912D01*
X009420Y001929D01*
X009463Y001941D01*
X009506Y001950D01*
X009550Y001955D01*
X009594Y001956D01*
X009638Y001953D01*
X009682Y001946D01*
X009725Y001935D01*
X009767Y001921D01*
X009807Y001903D01*
X009846Y001881D01*
X009882Y001857D01*
X009916Y001829D01*
X009948Y001798D01*
X009977Y001764D01*
X010003Y001728D01*
X010025Y001690D01*
X010044Y001650D01*
X010059Y001608D01*
X010071Y001566D01*
X010079Y001522D01*
X010083Y001478D01*
X010083Y001434D01*
X010079Y001390D01*
X010071Y001346D01*
X010059Y001304D01*
X010044Y001262D01*
X010025Y001222D01*
X010003Y001184D01*
X009977Y001148D01*
X009948Y001114D01*
X009916Y001083D01*
X009882Y001055D01*
X009846Y001031D01*
X009807Y001009D01*
X009767Y000991D01*
X009725Y000977D01*
X009682Y000966D01*
X009638Y000959D01*
X009594Y000956D01*
X009550Y000957D01*
X009506Y000962D01*
X009463Y000971D01*
X009420Y000983D01*
X009379Y001000D01*
X009339Y001019D01*
X009302Y001043D01*
X009266Y001069D01*
X009233Y001099D01*
X009203Y001131D01*
X009176Y001166D01*
X009152Y001203D01*
X009131Y001242D01*
X009114Y001283D01*
X009101Y001325D01*
X009091Y001368D01*
X009085Y001412D01*
X009083Y001456D01*
X010538Y002681D02*
X010540Y002715D01*
X010546Y002749D01*
X010556Y002782D01*
X010569Y002813D01*
X010587Y002843D01*
X010607Y002871D01*
X010631Y002896D01*
X010657Y002918D01*
X010685Y002936D01*
X010716Y002952D01*
X010748Y002964D01*
X010782Y002972D01*
X010816Y002976D01*
X010850Y002976D01*
X010884Y002972D01*
X010918Y002964D01*
X010950Y002952D01*
X010980Y002936D01*
X011009Y002918D01*
X011035Y002896D01*
X011059Y002871D01*
X011079Y002843D01*
X011097Y002813D01*
X011110Y002782D01*
X011120Y002749D01*
X011126Y002715D01*
X011128Y002681D01*
X011126Y002647D01*
X011120Y002613D01*
X011110Y002580D01*
X011097Y002549D01*
X011079Y002519D01*
X011059Y002491D01*
X011035Y002466D01*
X011009Y002444D01*
X010981Y002426D01*
X010950Y002410D01*
X010918Y002398D01*
X010884Y002390D01*
X010850Y002386D01*
X010816Y002386D01*
X010782Y002390D01*
X010748Y002398D01*
X010716Y002410D01*
X010685Y002426D01*
X010657Y002444D01*
X010631Y002466D01*
X010607Y002491D01*
X010587Y002519D01*
X010569Y002549D01*
X010556Y002580D01*
X010546Y002613D01*
X010540Y002647D01*
X010538Y002681D01*
D11*
X008083Y006931D02*
X007583Y006931D01*
X007333Y007181D01*
X007333Y007681D01*
X007583Y007931D01*
X007333Y008181D01*
X007333Y008681D01*
X007583Y008931D01*
X007333Y009181D01*
X007333Y009681D01*
X007583Y009931D01*
X008083Y009931D01*
X008333Y009681D01*
X008333Y009181D01*
X008083Y008931D01*
X008333Y008681D01*
X008333Y008181D01*
X008083Y007931D01*
X008333Y007681D01*
X008333Y007181D01*
X008083Y006931D01*
D12*
X007962Y002587D02*
X008011Y002538D01*
X007817Y002345D01*
X007865Y002296D01*
X007962Y002296D01*
X008011Y002345D01*
X008011Y002538D01*
X007962Y002587D02*
X007865Y002587D01*
X007817Y002538D01*
X007817Y002345D01*
X007716Y002490D02*
X007619Y002296D01*
X007522Y002490D01*
X007127Y002490D02*
X007079Y002490D01*
X006982Y002393D01*
X006982Y002296D02*
X006982Y002490D01*
X006881Y002442D02*
X006881Y002345D01*
X006833Y002296D01*
X006736Y002296D01*
X006688Y002345D01*
X006688Y002442D01*
X006736Y002490D01*
X006833Y002490D01*
X006881Y002442D01*
X006982Y002187D02*
X007031Y002187D01*
X007031Y001896D01*
X007079Y001896D02*
X006982Y001896D01*
X006881Y001896D02*
X006881Y002042D01*
X006833Y002090D01*
X006736Y002090D01*
X006736Y001993D02*
X006688Y001945D01*
X006736Y001896D01*
X006881Y001896D01*
X006881Y001993D02*
X006736Y001993D01*
X006586Y002042D02*
X006586Y001896D01*
X006586Y002042D02*
X006538Y002090D01*
X006441Y002090D01*
X006393Y002042D01*
X006293Y002090D02*
X006197Y002090D01*
X006245Y002138D02*
X006245Y001945D01*
X006293Y001896D01*
X006393Y001896D02*
X006393Y002187D01*
X006393Y002296D02*
X006538Y002296D01*
X006586Y002345D01*
X006538Y002393D01*
X006441Y002393D01*
X006393Y002442D01*
X006441Y002490D01*
X006586Y002490D01*
X006292Y002442D02*
X006292Y002296D01*
X006292Y002442D02*
X006243Y002490D01*
X006098Y002490D01*
X006098Y002296D01*
X005997Y002393D02*
X005804Y002393D01*
X005804Y002345D02*
X005804Y002442D01*
X005852Y002490D01*
X005949Y002490D01*
X005997Y002442D01*
X005997Y002393D01*
X005949Y002296D02*
X005852Y002296D01*
X005804Y002345D01*
X005703Y002345D02*
X005654Y002296D01*
X005557Y002296D01*
X005509Y002345D01*
X005557Y002442D02*
X005654Y002442D01*
X005703Y002393D01*
X005703Y002345D01*
X005557Y002442D02*
X005509Y002490D01*
X005509Y002538D01*
X005557Y002587D01*
X005654Y002587D01*
X005703Y002538D01*
X005656Y002090D02*
X005752Y002090D01*
X005801Y002042D01*
X005801Y001993D01*
X005607Y001993D01*
X005607Y001945D02*
X005607Y002042D01*
X005656Y002090D01*
X005506Y002090D02*
X005361Y002090D01*
X005313Y002042D01*
X005361Y001993D01*
X005458Y001993D01*
X005506Y001945D01*
X005458Y001896D01*
X005313Y001896D01*
X005211Y001945D02*
X005211Y002042D01*
X005163Y002090D01*
X005066Y002090D01*
X005018Y002042D01*
X005018Y001945D01*
X005066Y001896D01*
X005163Y001896D01*
X005211Y001945D01*
X004917Y001896D02*
X004820Y001993D01*
X004869Y001993D02*
X004723Y001993D01*
X004723Y001896D02*
X004723Y002187D01*
X004869Y002187D01*
X004917Y002138D01*
X004917Y002042D01*
X004869Y001993D01*
X004917Y002296D02*
X004917Y002442D01*
X004868Y002490D01*
X004723Y002490D01*
X004723Y002296D01*
X004622Y002393D02*
X004429Y002393D01*
X004429Y002345D02*
X004429Y002442D01*
X004477Y002490D01*
X004574Y002490D01*
X004622Y002442D01*
X004622Y002393D01*
X004574Y002296D02*
X004477Y002296D01*
X004429Y002345D01*
X004328Y002490D02*
X004280Y002490D01*
X004183Y002393D01*
X004183Y002296D02*
X004183Y002490D01*
X004083Y002490D02*
X004034Y002490D01*
X003938Y002393D01*
X003938Y002296D02*
X003938Y002490D01*
X003836Y002490D02*
X003836Y002296D01*
X003691Y002296D01*
X003643Y002345D01*
X003643Y002490D01*
X003542Y002538D02*
X003494Y002587D01*
X003397Y002587D01*
X003348Y002538D01*
X003348Y002345D01*
X003397Y002296D01*
X003494Y002296D01*
X003542Y002345D01*
X003445Y002187D02*
X003542Y002090D01*
X003542Y001896D01*
X003643Y001896D02*
X003740Y001896D01*
X003691Y001896D02*
X003691Y002187D01*
X003643Y002187D01*
X003542Y002042D02*
X003348Y002042D01*
X003348Y002090D02*
X003348Y001896D01*
X003348Y002090D02*
X003445Y002187D01*
X003839Y001945D02*
X003888Y001993D01*
X004033Y001993D01*
X004033Y002042D02*
X004033Y001896D01*
X003888Y001896D01*
X003839Y001945D01*
X003888Y002090D02*
X003985Y002090D01*
X004033Y002042D01*
X004134Y002090D02*
X004134Y001896D01*
X004328Y001896D02*
X004328Y002042D01*
X004279Y002090D01*
X004134Y002090D01*
X005066Y002345D02*
X005115Y002296D01*
X005066Y002345D02*
X005066Y002538D01*
X005018Y002490D02*
X005115Y002490D01*
X005607Y001945D02*
X005656Y001896D01*
X005752Y001896D01*
X005902Y001896D02*
X005902Y002090D01*
X006047Y002090D01*
X006095Y002042D01*
X006095Y001896D01*
X008112Y002296D02*
X008160Y002296D01*
X008160Y002345D01*
X008112Y002345D01*
X008112Y002296D01*
X008259Y002296D02*
X008453Y002296D01*
X008356Y002296D02*
X008356Y002587D01*
X008259Y002490D01*
D13*
X008389Y001712D02*
X008426Y001712D01*
X008426Y001491D01*
X008389Y001491D02*
X008463Y001491D01*
X008536Y001491D02*
X008573Y001491D01*
X008573Y001528D01*
X008536Y001528D01*
X008536Y001491D01*
X008647Y001528D02*
X008647Y001601D01*
X008684Y001638D01*
X008757Y001638D01*
X008794Y001601D01*
X008794Y001565D01*
X008647Y001565D01*
X008647Y001528D02*
X008684Y001491D01*
X008757Y001491D01*
X008868Y001528D02*
X008868Y001601D01*
X008905Y001638D01*
X009015Y001638D01*
X009015Y001712D02*
X009015Y001491D01*
X008905Y001491D01*
X008868Y001528D01*
X009089Y001528D02*
X009089Y001638D01*
X009089Y001528D02*
X009126Y001491D01*
X009236Y001491D01*
X009236Y001638D01*
X009285Y001278D02*
X009285Y001091D01*
X009145Y001091D01*
X009098Y001138D01*
X009098Y001278D01*
X009009Y001232D02*
X008962Y001278D01*
X008868Y001278D01*
X008822Y001232D01*
X008822Y001138D01*
X008868Y001091D01*
X008962Y001091D01*
X009009Y001138D01*
X009009Y001232D01*
X008732Y001278D02*
X008685Y001278D01*
X008592Y001185D01*
X008592Y001278D02*
X008592Y001091D01*
X008502Y001138D02*
X008502Y001232D01*
X008409Y001232D01*
X008502Y001325D02*
X008455Y001372D01*
X008362Y001372D01*
X008315Y001325D01*
X008315Y001138D01*
X008362Y001091D01*
X008455Y001091D01*
X008502Y001138D01*
X008315Y001491D02*
X008315Y001601D01*
X008278Y001638D01*
X008242Y001601D01*
X008242Y001491D01*
X008168Y001491D02*
X008168Y001638D01*
X008205Y001638D01*
X008242Y001601D01*
X008094Y001638D02*
X008094Y001491D01*
X007984Y001491D01*
X007947Y001528D01*
X007947Y001638D01*
X007873Y001528D02*
X007837Y001528D01*
X007837Y001491D01*
X007873Y001491D01*
X007873Y001528D01*
X007763Y001491D02*
X007726Y001528D01*
X007726Y001675D01*
X007689Y001638D02*
X007763Y001638D01*
X007615Y001601D02*
X007615Y001491D01*
X007615Y001601D02*
X007579Y001638D01*
X007468Y001638D01*
X007468Y001491D01*
X007394Y001565D02*
X007247Y001565D01*
X007247Y001601D02*
X007247Y001528D01*
X007284Y001491D01*
X007358Y001491D01*
X007349Y001418D02*
X007349Y001372D01*
X007349Y001278D02*
X007349Y001091D01*
X007303Y001091D02*
X007396Y001091D01*
X007487Y001091D02*
X007487Y001278D01*
X007627Y001278D01*
X007673Y001232D01*
X007673Y001091D01*
X007763Y001138D02*
X007763Y001232D01*
X007810Y001278D01*
X007950Y001278D01*
X007950Y001045D01*
X007903Y000998D01*
X007856Y000998D01*
X007810Y001091D02*
X007950Y001091D01*
X007810Y001091D02*
X007763Y001138D01*
X007394Y001565D02*
X007394Y001601D01*
X007358Y001638D01*
X007284Y001638D01*
X007247Y001601D01*
X007173Y001638D02*
X007063Y001638D01*
X007026Y001601D01*
X007026Y001528D01*
X007063Y001491D01*
X007173Y001491D01*
X007173Y001712D01*
X006952Y001638D02*
X006952Y001491D01*
X006842Y001491D01*
X006805Y001528D01*
X006805Y001638D01*
X006732Y001638D02*
X006658Y001638D01*
X006695Y001675D02*
X006695Y001528D01*
X006732Y001491D01*
X006584Y001528D02*
X006547Y001565D01*
X006474Y001565D01*
X006437Y001601D01*
X006474Y001638D01*
X006584Y001638D01*
X006584Y001528D02*
X006547Y001491D01*
X006437Y001491D01*
X006363Y001528D02*
X006326Y001491D01*
X006253Y001491D01*
X006216Y001528D01*
X006216Y001675D01*
X006253Y001712D01*
X006326Y001712D01*
X006363Y001675D01*
X006363Y001601D01*
X006326Y001565D01*
X006326Y001638D01*
X006253Y001638D01*
X006253Y001565D01*
X006326Y001565D01*
X006142Y001491D02*
X006069Y001491D01*
X006106Y001491D02*
X006106Y001712D01*
X006069Y001712D01*
X005958Y001638D02*
X005995Y001601D01*
X005995Y001491D01*
X005885Y001491D01*
X005848Y001528D01*
X005885Y001565D01*
X005995Y001565D01*
X005958Y001638D02*
X005885Y001638D01*
X005774Y001601D02*
X005774Y001491D01*
X005774Y001601D02*
X005737Y001638D01*
X005664Y001638D01*
X005627Y001601D01*
X005553Y001638D02*
X005480Y001638D01*
X005516Y001675D02*
X005516Y001528D01*
X005553Y001491D01*
X005627Y001491D02*
X005627Y001712D01*
X005405Y001601D02*
X005405Y001491D01*
X005405Y001601D02*
X005369Y001638D01*
X005259Y001638D01*
X005259Y001491D01*
X005184Y001565D02*
X005184Y001601D01*
X005148Y001638D01*
X005074Y001638D01*
X005038Y001601D01*
X005038Y001528D01*
X005074Y001491D01*
X005148Y001491D01*
X005184Y001565D02*
X005038Y001565D01*
X004963Y001528D02*
X004927Y001565D01*
X004853Y001565D01*
X004817Y001601D01*
X004853Y001638D01*
X004963Y001638D01*
X004963Y001528D02*
X004927Y001491D01*
X004817Y001491D01*
X004742Y001528D02*
X004742Y001601D01*
X004706Y001638D01*
X004632Y001638D01*
X004596Y001601D01*
X004596Y001528D01*
X004632Y001491D01*
X004706Y001491D01*
X004742Y001528D01*
X004771Y001418D02*
X004771Y001372D01*
X004771Y001278D02*
X004724Y001278D01*
X004771Y001278D02*
X004771Y001091D01*
X004724Y001091D02*
X004818Y001091D01*
X004909Y001091D02*
X004909Y001278D01*
X005049Y001278D01*
X005095Y001232D01*
X005095Y001091D01*
X005185Y001138D02*
X005185Y001232D01*
X005232Y001278D01*
X005372Y001278D01*
X005372Y001045D01*
X005325Y000998D01*
X005278Y000998D01*
X005232Y001091D02*
X005372Y001091D01*
X005232Y001091D02*
X005185Y001138D01*
X005001Y000972D02*
X005001Y000691D01*
X005188Y000691D01*
X005277Y000738D02*
X005324Y000691D01*
X005417Y000691D01*
X005464Y000738D01*
X005464Y000832D01*
X005417Y000878D01*
X005324Y000878D01*
X005277Y000832D01*
X005277Y000738D01*
X005553Y000738D02*
X005600Y000691D01*
X005647Y000738D01*
X005693Y000691D01*
X005740Y000738D01*
X005740Y000878D01*
X005829Y000832D02*
X005876Y000878D01*
X005969Y000878D01*
X006016Y000832D01*
X006016Y000785D01*
X005829Y000785D01*
X005829Y000738D02*
X005829Y000832D01*
X005829Y000738D02*
X005876Y000691D01*
X005969Y000691D01*
X006106Y000691D02*
X006199Y000691D01*
X006152Y000691D02*
X006152Y000972D01*
X006106Y000972D01*
X006060Y001091D02*
X006014Y001138D01*
X006014Y001232D01*
X006060Y001278D01*
X006154Y001278D01*
X006200Y001232D01*
X006200Y001138D01*
X006154Y001091D01*
X006060Y001091D01*
X005924Y001138D02*
X005877Y001091D01*
X005784Y001091D01*
X005737Y001138D01*
X005737Y001325D01*
X005784Y001372D01*
X005877Y001372D01*
X005924Y001325D01*
X006290Y001278D02*
X006290Y001091D01*
X006383Y001091D02*
X006383Y001232D01*
X006430Y001278D01*
X006477Y001232D01*
X006477Y001091D01*
X006566Y001091D02*
X006706Y001091D01*
X006753Y001138D01*
X006753Y001232D01*
X006706Y001278D01*
X006566Y001278D01*
X006566Y000998D01*
X006336Y000972D02*
X006336Y000691D01*
X006290Y000691D02*
X006383Y000691D01*
X006336Y000972D02*
X006290Y000972D01*
X006383Y001232D02*
X006336Y001278D01*
X006290Y001278D01*
X006842Y001278D02*
X006842Y001138D01*
X006889Y001091D01*
X007029Y001091D01*
X007029Y001278D01*
X007118Y001278D02*
X007212Y001278D01*
X007165Y001325D02*
X007165Y001138D01*
X007212Y001091D01*
X007303Y001278D02*
X007349Y001278D01*
X005553Y000878D02*
X005553Y000738D01*
X004635Y000738D02*
X004588Y000785D01*
X004495Y000785D01*
X004448Y000832D01*
X004495Y000878D01*
X004635Y000878D01*
X004588Y000998D02*
X004635Y001045D01*
X004635Y001278D01*
X004495Y001278D01*
X004448Y001232D01*
X004448Y001138D01*
X004495Y001091D01*
X004635Y001091D01*
X004588Y000998D02*
X004542Y000998D01*
X004359Y001091D02*
X004359Y001232D01*
X004312Y001278D01*
X004219Y001278D01*
X004219Y001185D02*
X004359Y001185D01*
X004359Y001091D02*
X004219Y001091D01*
X004172Y001138D01*
X004219Y001185D01*
X004083Y001278D02*
X004083Y001045D01*
X004036Y000998D01*
X003989Y000998D01*
X003943Y001091D02*
X004083Y001091D01*
X003943Y001091D02*
X003896Y001138D01*
X003896Y001232D01*
X003943Y001278D01*
X004083Y001278D01*
X004154Y001455D02*
X004300Y001455D01*
X004375Y001491D02*
X004375Y001712D01*
X004485Y001712D01*
X004521Y001675D01*
X004521Y001601D01*
X004485Y001565D01*
X004375Y001565D01*
X004448Y001565D02*
X004521Y001491D01*
X004079Y001491D02*
X004079Y001601D01*
X004043Y001638D01*
X003933Y001638D01*
X003933Y001491D01*
X003858Y001491D02*
X003858Y001601D01*
X003822Y001638D01*
X003748Y001638D01*
X003748Y001565D02*
X003712Y001528D01*
X003748Y001491D01*
X003858Y001491D01*
X003858Y001565D02*
X003748Y001565D01*
X003638Y001491D02*
X003564Y001491D01*
X003601Y001491D02*
X003601Y001712D01*
X003564Y001712D01*
X003490Y001638D02*
X003490Y001491D01*
X003490Y001601D02*
X003343Y001601D01*
X003343Y001638D02*
X003417Y001712D01*
X003490Y001638D01*
X003343Y001638D02*
X003343Y001491D01*
X003343Y001372D02*
X003343Y001091D01*
X003530Y001091D01*
X003620Y001091D02*
X003620Y001278D01*
X003760Y001278D01*
X003806Y001232D01*
X003806Y001091D01*
X003806Y000972D02*
X003806Y000691D01*
X003896Y000738D02*
X003943Y000785D01*
X004083Y000785D01*
X004083Y000832D02*
X004083Y000691D01*
X003943Y000691D01*
X003896Y000738D01*
X003943Y000878D02*
X004036Y000878D01*
X004083Y000832D01*
X004172Y000832D02*
X004219Y000878D01*
X004359Y000878D01*
X004312Y000785D02*
X004219Y000785D01*
X004172Y000832D01*
X004172Y000691D02*
X004312Y000691D01*
X004359Y000738D01*
X004312Y000785D01*
X004448Y000691D02*
X004588Y000691D01*
X004635Y000738D01*
X003806Y000972D02*
X003713Y000878D01*
X003620Y000972D01*
X003620Y000691D01*
X003530Y000738D02*
X003530Y000972D01*
X003343Y000972D02*
X003343Y000738D01*
X003390Y000691D01*
X003484Y000691D01*
X003530Y000738D01*
X003437Y001232D02*
X003343Y001232D01*
X003343Y001372D02*
X003530Y001372D01*
X009374Y001278D02*
X009374Y000998D01*
X009374Y001091D02*
X009514Y001091D01*
X009561Y001138D01*
X009561Y001232D01*
X009514Y001278D01*
X009374Y001278D01*
D14*
X003252Y002822D02*
X003252Y002859D01*
X003252Y002822D02*
X002614Y002822D01*
X002614Y002859D01*
X002614Y003176D02*
X002614Y003213D01*
X002614Y003550D02*
X002614Y003587D01*
X002614Y003904D02*
X002614Y003941D01*
X003252Y003941D01*
X003252Y003904D01*
X003252Y003587D02*
X003252Y003176D01*
D15*
X003653Y003182D02*
X003653Y002951D01*
X004113Y002951D01*
X003960Y002951D02*
X003960Y003182D01*
X003883Y003258D01*
X003730Y003258D01*
X003653Y003182D01*
X003653Y003412D02*
X003883Y003412D01*
X003806Y003565D01*
X003806Y003642D01*
X003883Y003719D01*
X004037Y003719D01*
X004113Y003642D01*
X004113Y003488D01*
X004037Y003412D01*
X004113Y003258D02*
X003960Y003105D01*
X003653Y003412D02*
X003653Y003719D01*
X003530Y004201D02*
X003837Y004201D01*
X003913Y004278D01*
X003913Y004432D01*
X003837Y004508D01*
X003913Y004662D02*
X003913Y004969D01*
X003913Y004815D02*
X003453Y004815D01*
X003606Y004662D01*
X003530Y004508D02*
X003453Y004432D01*
X003453Y004278D01*
X003530Y004201D01*
X002313Y005178D02*
X002313Y005332D01*
X002237Y005408D01*
X002313Y005562D02*
X002006Y005869D01*
X001930Y005869D01*
X001853Y005792D01*
X001853Y005638D01*
X001930Y005562D01*
X001930Y005408D02*
X001853Y005332D01*
X001853Y005178D01*
X001930Y005101D01*
X002237Y005101D01*
X002313Y005178D01*
X002313Y005562D02*
X002313Y005869D01*
X002943Y006651D02*
X003096Y006651D01*
X003019Y006651D02*
X003019Y007112D01*
X002943Y007112D02*
X003096Y007112D01*
X003250Y007035D02*
X003250Y006728D01*
X003326Y006651D01*
X003480Y006651D01*
X003557Y006728D01*
X003710Y006651D02*
X004017Y006958D01*
X004017Y007035D01*
X003940Y007112D01*
X003787Y007112D01*
X003710Y007035D01*
X003557Y007035D02*
X003480Y007112D01*
X003326Y007112D01*
X003250Y007035D01*
X003710Y006651D02*
X004017Y006651D01*
X004553Y006678D02*
X004630Y006601D01*
X004784Y006601D01*
X004860Y006678D01*
X005014Y006678D02*
X005090Y006601D01*
X005244Y006601D01*
X005321Y006678D01*
X005321Y006755D01*
X005244Y006832D01*
X005167Y006832D01*
X005244Y006832D02*
X005321Y006908D01*
X005321Y006985D01*
X005244Y007062D01*
X005090Y007062D01*
X005014Y006985D01*
X004860Y006985D02*
X004784Y007062D01*
X004630Y007062D01*
X004553Y006985D01*
X004553Y006678D01*
X005553Y006642D02*
X005553Y006488D01*
X005630Y006412D01*
X005630Y006258D02*
X005553Y006182D01*
X005553Y005951D01*
X006013Y005951D01*
X005860Y005951D02*
X005860Y006182D01*
X005783Y006258D01*
X005630Y006258D01*
X005860Y006105D02*
X006013Y006258D01*
X006013Y006412D02*
X005706Y006719D01*
X005630Y006719D01*
X005553Y006642D01*
X006013Y006719D02*
X006013Y006412D01*
X006353Y006488D02*
X006353Y006642D01*
X006430Y006719D01*
X006506Y006719D01*
X006583Y006642D01*
X006660Y006719D01*
X006737Y006719D01*
X006813Y006642D01*
X006813Y006488D01*
X006737Y006412D01*
X006813Y006258D02*
X006660Y006105D01*
X006660Y006182D02*
X006583Y006258D01*
X006430Y006258D01*
X006353Y006182D01*
X006353Y005951D01*
X006813Y005951D01*
X006660Y005951D02*
X006660Y006182D01*
X006430Y006412D02*
X006353Y006488D01*
X006583Y006565D02*
X006583Y006642D01*
X007053Y006742D02*
X007283Y006512D01*
X007283Y006819D01*
X007513Y006742D02*
X007053Y006742D01*
X007130Y006358D02*
X007283Y006358D01*
X007360Y006282D01*
X007360Y006051D01*
X007513Y006051D02*
X007053Y006051D01*
X007053Y006282D01*
X007130Y006358D01*
X007360Y006205D02*
X007513Y006358D01*
X009303Y004969D02*
X009303Y004662D01*
X009380Y004508D02*
X009533Y004508D01*
X009610Y004432D01*
X009610Y004201D01*
X009763Y004201D02*
X009303Y004201D01*
X009303Y004432D01*
X009380Y004508D01*
X009610Y004355D02*
X009763Y004508D01*
X009763Y004662D02*
X009687Y004662D01*
X009380Y004969D01*
X009303Y004969D01*
X007250Y003601D02*
X006943Y003601D01*
X007096Y003601D02*
X007096Y004062D01*
X006943Y003908D01*
X006790Y003832D02*
X006713Y003755D01*
X006483Y003755D01*
X006636Y003755D02*
X006790Y003601D01*
X006790Y003832D02*
X006790Y003985D01*
X006713Y004062D01*
X006483Y004062D01*
X006483Y003601D01*
X006213Y003642D02*
X006213Y003488D01*
X006137Y003412D01*
X005983Y003412D01*
X005983Y003642D01*
X006060Y003719D01*
X006137Y003719D01*
X006213Y003642D01*
X005983Y003412D02*
X005830Y003565D01*
X005753Y003719D01*
X005830Y003258D02*
X005983Y003258D01*
X006060Y003182D01*
X006060Y002951D01*
X006213Y002951D02*
X005753Y002951D01*
X005753Y003182D01*
X005830Y003258D01*
X006060Y003105D02*
X006213Y003258D01*
X002163Y003261D02*
X002163Y003107D01*
X002087Y003031D01*
X001780Y003031D01*
X001703Y003107D01*
X001703Y003261D01*
X001780Y003338D01*
X001856Y003491D02*
X001703Y003644D01*
X002163Y003644D01*
X002163Y003491D02*
X002163Y003798D01*
X002087Y003338D02*
X002163Y003261D01*
X002163Y002877D02*
X002163Y002724D01*
X002163Y002800D02*
X001703Y002800D01*
X001703Y002724D02*
X001703Y002877D01*
M02*
