%
M48
M72
T01C0.0240
T02C0.0315
T03C0.0320
T04C0.0374
T05C0.0394
T06C0.0400
T07C0.0433
T08C0.0472
T09C0.0512
T10C0.0669
T11C0.0748
T12C0.0906
T13C0.1260
T14C0.1299
T15C0.1500
%
T01
X4534Y3754
X6574Y3514
X6854Y1994
X9494Y2514
X10574Y2834
X10574Y2114
X12054Y2994
X12294Y5314
X14854Y4954
X12214Y7994
X11974Y8434
X12334Y9034
X11054Y9274
X10934Y8074
X8974Y9754
X7654Y10914
X7174Y10914
X6374Y10674
X6374Y9754
X6374Y9274
X4614Y7994
X5574Y6594
X4254Y6434
X8694Y6194
X8934Y5754
X8694Y4954
X8654Y4474
X9134Y4354
X14174Y8794
X17254Y10554
X17974Y10034
X18894Y10034
X19734Y10434
X20734Y9914
X22374Y9874
X23614Y9234
X23694Y8234
X22414Y7074
X21934Y6954
X23094Y6194
X22774Y5714
X21814Y5354
X22414Y4154
X22374Y3634
X23534Y3754
X26734Y2554
X27894Y1354
X29014Y2114
X30094Y1354
X28254Y7234
X26054Y10394
X24854Y10034
X24374Y11274
X24374Y11994
X22574Y13474
X22134Y13714
X22174Y12674
X20814Y12074
X20747Y13114
X20414Y14594
X18694Y14234
X17534Y13954
X16734Y13674
X15774Y14074
X14614Y14234
X14134Y14234
X14614Y14714
X14974Y15474
X15134Y16314
X16814Y15954
X17334Y14874
X18414Y16034
X18574Y17234
X16894Y18554
X16294Y20114
X16654Y22674
X13734Y23474
X12414Y22754
X12294Y21674
X12574Y20634
X11094Y20434
X10094Y19674
X11014Y19114
X13254Y17354
X12974Y16194
X12934Y15074
X12934Y14034
X12014Y13994
X11294Y13754
X11774Y13274
X12934Y13034
X11054Y11834
X10094Y13074
X10094Y14114
X9374Y14794
X9974Y15474
X11294Y15074
X11654Y15394
X8414Y15474
X7574Y15074
X7294Y15474
X6734Y15074
X6734Y14354
X5534Y14234
X5534Y13754
X4254Y14274
X4254Y15034
X4254Y15514
X3294Y16754
X6134Y16434
X6254Y17034
X6854Y16674
X7814Y16914
X8334Y16954
X7974Y17554
X6254Y18794
X5094Y19394
X3934Y19754
X4094Y20274
X3094Y20874
X7414Y23554
X8054Y23514
X8214Y21234
X11134Y22194
X10934Y22874
X11014Y23434
X8054Y14354
X6734Y12874
X7374Y12154
X8094Y12074
X8734Y12074
X9374Y12074
X5654Y11834
X5174Y11874
X5294Y12474
X4814Y10954
X3574Y11034
X3294Y12674
X16014Y11874
X17254Y11394
X17974Y11954
X19654Y11754
X18054Y9154
X19734Y6754
X21054Y8234
X26494Y12754
X26734Y11794
X28574Y11794
X27574Y13754
X28534Y14314
X26214Y14514
X26214Y15237
X25694Y17194
X23974Y16634
X23214Y15634
X24694Y20754
X25294Y22034
X31934Y16274
X31294Y14874
X33014Y14114
X33054Y20114
X33654Y21634
T02
X6181Y3905
X6181Y3118
X6181Y2330
X6181Y1543
T03
X7303Y7839
X9203Y7839
X4582Y21259
X3582Y21259
T04
X30490Y5946
X31277Y5946
X31277Y4962
X30490Y4962
T05
X23205Y1707
X22205Y1707
X21205Y1707
X18786Y2241
X2728Y4522
X2108Y8190
X2108Y10159
X2104Y11950
X2104Y13919
X2110Y15707
X2110Y17676
T06
X1728Y6522
X2728Y6522
X2728Y5522
X1728Y5522
X1728Y4522
X17786Y4241
X18786Y4241
X18786Y3241
X17786Y3241
X17786Y2241
T07
X35476Y13668
X35476Y18668
T08
X30705Y19544
X29524Y19544
X28343Y19544
X27753Y18363
X28934Y18363
X30115Y18363
X21817Y19504
X20636Y19504
X19455Y19504
X20045Y18323
X18864Y18323
X21226Y18323
T09
X3094Y18070
X3094Y15314
X3088Y14312
X3088Y11556
X3092Y10552
X3092Y7796
T10
X8840Y19654
X8840Y22410
X14741Y22350
X14741Y19594
T11
X28492Y10555
X30012Y10567
X31461Y10512
X35488Y9705
X35508Y11433
T12
X32344Y7824
X32344Y3084
T13
X23274Y21866
X27083Y21906
X32162Y21906
X18195Y21866
T14
X25074Y18668
X25074Y6916
T15
X2034Y2014
X2034Y23514
X35034Y23514
X35034Y2014
M30
