G75*
G70*
%OFA0B0*%
%FSLAX24Y24*%
%IPPOS*%
%LPD*%
%AMOC8*
5,1,8,0,0,1.08239X$1,22.5*
%
%ADD10R,0.0197X0.0591*%
%ADD11R,0.0591X0.0197*%
%ADD12R,0.0591X0.0512*%
%ADD13R,0.0512X0.0591*%
%ADD14R,0.0472X0.0630*%
%ADD15R,0.0472X0.0472*%
%ADD16R,0.0137X0.0550*%
%ADD17R,0.0531X0.0157*%
%ADD18C,0.0660*%
%ADD19R,0.0197X0.0472*%
%ADD20R,0.0472X0.0197*%
%ADD21OC8,0.0600*%
%ADD22OC8,0.0594*%
%ADD23C,0.0768*%
%ADD24C,0.0594*%
%ADD25C,0.0709*%
%ADD26R,0.0472X0.0217*%
%ADD27C,0.1122*%
%ADD28C,0.0650*%
%ADD29R,0.0650X0.0650*%
%ADD30R,0.0551X0.0551*%
%ADD31OC8,0.0574*%
%ADD32C,0.1306*%
%ADD33R,0.0551X0.0394*%
%ADD34R,0.0870X0.0240*%
%ADD35R,0.1142X0.1102*%
%ADD36R,0.1102X0.0866*%
%ADD37R,0.0630X0.0315*%
%ADD38R,0.0315X0.0630*%
%ADD39C,0.0520*%
%ADD40R,0.0591X0.0787*%
%ADD41R,0.0315X0.0984*%
%ADD42R,0.0315X0.0657*%
%ADD43R,0.0657X0.0315*%
%ADD44R,0.0900X0.1000*%
%ADD45R,0.0700X0.0200*%
%ADD46R,0.0394X0.0551*%
%ADD47C,0.0515*%
%ADD48R,0.0787X0.0197*%
%ADD49R,0.0098X0.0157*%
%ADD50R,0.0531X0.0256*%
%ADD51C,0.0160*%
%ADD52C,0.0140*%
%ADD53C,0.0400*%
%ADD54C,0.0100*%
D10*
X006828Y011498D03*
X007143Y011498D03*
X007458Y011498D03*
X007773Y011498D03*
X008088Y011498D03*
X008403Y011498D03*
X008718Y011498D03*
X009033Y011498D03*
X009348Y011498D03*
X009663Y011498D03*
X009978Y011498D03*
X009978Y016065D03*
X009663Y016065D03*
X009348Y016065D03*
X009033Y016065D03*
X008718Y016065D03*
X008403Y016065D03*
X008088Y016065D03*
X007773Y016065D03*
X007458Y016065D03*
X007143Y016065D03*
X006828Y016065D03*
D11*
X006120Y015356D03*
X006120Y015041D03*
X006120Y014726D03*
X006120Y014411D03*
X006120Y014096D03*
X006120Y013781D03*
X006120Y013466D03*
X006120Y013151D03*
X006120Y012836D03*
X006120Y012521D03*
X006120Y012206D03*
X010687Y012206D03*
X010687Y012521D03*
X010687Y012836D03*
X010687Y013151D03*
X010687Y013466D03*
X010687Y013781D03*
X010687Y014096D03*
X010687Y014411D03*
X010687Y014726D03*
X010687Y015041D03*
X010687Y015356D03*
D12*
X013532Y014791D03*
X013532Y014043D03*
X013533Y013019D03*
X013533Y012271D03*
X017900Y016500D03*
X017900Y017248D03*
X019200Y017253D03*
X019200Y016505D03*
X020621Y016503D03*
X020621Y017251D03*
X021961Y017248D03*
X021961Y016500D03*
X021508Y015484D03*
X021508Y014736D03*
X021490Y013870D03*
X021490Y013122D03*
X020249Y011734D03*
X020249Y010986D03*
X023790Y011254D03*
X023790Y012002D03*
X025634Y013771D03*
X025634Y014520D03*
X025633Y015445D03*
X025633Y016193D03*
X023361Y016520D03*
X023361Y017268D03*
X025289Y020744D03*
X025289Y021492D03*
X028571Y017286D03*
X028571Y016538D03*
X030019Y016494D03*
X030019Y017242D03*
X030022Y015549D03*
X030022Y014801D03*
X031425Y014099D03*
X031425Y013351D03*
X032403Y013371D03*
X032403Y014119D03*
X028655Y009023D03*
X028655Y008275D03*
X027112Y007101D03*
X027112Y006353D03*
X024818Y003633D03*
X024818Y002884D03*
X021735Y002859D03*
X021735Y003607D03*
X020326Y003634D03*
X020326Y002886D03*
X005734Y010533D03*
X005734Y011281D03*
X004204Y011271D03*
X004204Y010523D03*
X004636Y009529D03*
X004636Y008781D03*
X004604Y012361D03*
X004604Y013109D03*
X004839Y014302D03*
X004839Y015050D03*
X001726Y018939D03*
X001726Y019687D03*
X005443Y020950D03*
X005443Y021699D03*
X006376Y021728D03*
X006376Y020980D03*
X006379Y022741D03*
X006379Y023489D03*
X005394Y023529D03*
X005394Y022781D03*
X011648Y020811D03*
X011648Y020063D03*
X011600Y019128D03*
X011600Y018380D03*
X011705Y021835D03*
X011705Y022583D03*
X011700Y023518D03*
X011700Y024266D03*
X033635Y021079D03*
X033635Y020331D03*
D13*
X027003Y017192D03*
X026255Y017192D03*
X027229Y014318D03*
X027977Y014318D03*
X028021Y011779D03*
X027273Y011779D03*
X023889Y013416D03*
X023141Y013416D03*
X019371Y009160D03*
X018623Y009160D03*
X018445Y006729D03*
X019193Y006729D03*
X026263Y004985D03*
X027011Y004985D03*
X027135Y003144D03*
X026387Y003144D03*
X026356Y001573D03*
X027104Y001573D03*
X028443Y001327D03*
X029191Y001327D03*
X030646Y002226D03*
X031394Y002226D03*
X029274Y002904D03*
X028526Y002904D03*
X017139Y013095D03*
X016391Y013095D03*
X015339Y013108D03*
X014591Y013108D03*
X014568Y016292D03*
X013820Y016292D03*
X012426Y016200D03*
X011678Y016200D03*
X007434Y017550D03*
X006686Y017550D03*
X005680Y017523D03*
X004932Y017523D03*
X005442Y019964D03*
X006190Y019964D03*
X002523Y020727D03*
X001775Y020727D03*
X009258Y004945D03*
X010006Y004945D03*
X010036Y003267D03*
X009288Y003267D03*
X008229Y003292D03*
X007481Y003292D03*
X005251Y003102D03*
X004503Y003102D03*
D14*
X011538Y017336D03*
X012720Y017336D03*
X027840Y004615D03*
X029021Y004615D03*
D15*
X030612Y001311D03*
X031439Y001311D03*
X010036Y001991D03*
X009209Y001991D03*
X008205Y001995D03*
X007379Y001995D03*
X005253Y001953D03*
X004427Y001953D03*
X003725Y008761D03*
X003725Y009588D03*
X003774Y012261D03*
X003774Y013088D03*
X003767Y016331D03*
X003767Y017157D03*
X034998Y020245D03*
X034998Y021072D03*
D16*
X023601Y007656D03*
X023345Y007656D03*
X023089Y007656D03*
X022833Y007656D03*
X022577Y007656D03*
X022321Y007656D03*
X022065Y007656D03*
X021809Y007656D03*
X021553Y007656D03*
X021297Y007656D03*
X021041Y007656D03*
X020786Y007656D03*
X020530Y007656D03*
X020274Y007656D03*
X020274Y004777D03*
X020530Y004777D03*
X020786Y004777D03*
X021041Y004777D03*
X021297Y004777D03*
X021553Y004777D03*
X021809Y004777D03*
X022065Y004777D03*
X022321Y004777D03*
X022577Y004777D03*
X022833Y004777D03*
X023089Y004777D03*
X023345Y004777D03*
X023601Y004777D03*
D17*
X004518Y019172D03*
X004518Y019428D03*
X004518Y019684D03*
X004518Y019940D03*
X002826Y019940D03*
X002826Y019684D03*
X002826Y019428D03*
X002826Y019172D03*
D18*
X003582Y021259D03*
X004582Y021259D03*
X017786Y004241D03*
X018786Y004241D03*
X018786Y003241D03*
X017786Y003241D03*
X017786Y002241D03*
X018786Y002241D03*
D19*
X018911Y010552D03*
X018596Y010552D03*
X018281Y010552D03*
X017966Y010552D03*
X017651Y010552D03*
X017651Y011418D03*
X017966Y011418D03*
X018281Y011418D03*
X018596Y011418D03*
X018911Y011418D03*
X019226Y011418D03*
X019226Y010552D03*
D20*
X019266Y010985D03*
X017612Y010985D03*
D21*
X002728Y006522D03*
X001728Y006522D03*
X001728Y005522D03*
X002728Y005522D03*
X001728Y004522D03*
D22*
X002728Y004522D03*
D23*
X003092Y007796D03*
X003092Y010552D03*
X003088Y011556D03*
X003088Y014312D03*
X003094Y015314D03*
X003094Y018070D03*
D24*
X002110Y017676D03*
X002110Y015707D03*
X002104Y013919D03*
X002104Y011950D03*
X002108Y010159D03*
X002108Y008190D03*
X021205Y001707D03*
X022205Y001707D03*
X023205Y001707D03*
D25*
X021226Y018323D03*
X020045Y018323D03*
X018864Y018323D03*
X019455Y019504D03*
X020636Y019504D03*
X021817Y019504D03*
X027753Y018363D03*
X028934Y018363D03*
X030115Y018363D03*
X030705Y019544D03*
X029524Y019544D03*
X028343Y019544D03*
D26*
X028068Y013509D03*
X028068Y013135D03*
X028068Y012761D03*
X027044Y012761D03*
X027044Y013509D03*
D27*
X028492Y010555D03*
X030012Y010567D03*
X031461Y010512D03*
X035488Y009705D03*
X035508Y011433D03*
D28*
X035476Y018668D03*
D29*
X035476Y013668D03*
D30*
X033705Y017446D03*
X033705Y018942D03*
X029679Y009495D03*
X029679Y007999D03*
D31*
X030490Y005946D03*
X031277Y005946D03*
X031277Y004962D03*
X030490Y004962D03*
D32*
X032344Y003084D03*
X032344Y007824D03*
D33*
X029581Y006443D03*
X028714Y006817D03*
X028714Y006069D03*
X023822Y003237D03*
X022955Y002863D03*
X022955Y003611D03*
D34*
X022496Y014140D03*
X022496Y014640D03*
X022496Y015140D03*
X022496Y015640D03*
X024556Y015640D03*
X024556Y015140D03*
X024556Y014640D03*
X024556Y014140D03*
D35*
X015095Y017429D03*
X013244Y019043D03*
X009194Y017489D03*
X007344Y019103D03*
D36*
X010297Y022017D03*
X007383Y022804D03*
X013284Y022744D03*
X016197Y021957D03*
D37*
X016619Y007690D03*
X016619Y007217D03*
X016619Y006745D03*
X016619Y006272D03*
X016619Y005800D03*
X016619Y005327D03*
X016619Y004855D03*
X016619Y004383D03*
X016619Y003910D03*
X016619Y003438D03*
X016619Y002965D03*
X016619Y002493D03*
X011422Y002493D03*
X011422Y002965D03*
X011422Y003438D03*
X011422Y003910D03*
X011422Y004383D03*
X011422Y004855D03*
X011422Y005327D03*
X011422Y005800D03*
X011422Y006272D03*
X011422Y006745D03*
X011422Y007217D03*
X011422Y007690D03*
D38*
X014651Y008792D03*
X015281Y008792D03*
X015910Y008792D03*
X015644Y001390D03*
X015241Y001390D03*
X014769Y001390D03*
X014296Y001390D03*
X013745Y001390D03*
X013273Y001390D03*
X012800Y001390D03*
X012398Y001390D03*
D39*
X009203Y007839D03*
X007303Y007839D03*
D40*
X007203Y009402D03*
X008384Y009402D03*
X008672Y010512D03*
X009853Y010512D03*
D41*
X022191Y009064D03*
D42*
X022191Y010527D03*
D43*
X023004Y010214D03*
X023004Y009714D03*
X023004Y009214D03*
X021378Y009214D03*
X021378Y009714D03*
X021378Y010214D03*
D44*
X035576Y015760D03*
D45*
X031276Y015760D03*
X031276Y016260D03*
X031276Y015260D03*
D46*
X019913Y014598D03*
X019165Y014598D03*
X018187Y014596D03*
X018561Y015463D03*
X017813Y015463D03*
X017197Y015437D03*
X016449Y015437D03*
X015476Y015508D03*
X015102Y014642D03*
X015850Y014642D03*
X016823Y014571D03*
X019539Y015464D03*
D47*
X006181Y003905D03*
X006181Y003118D03*
X006181Y002330D03*
X006181Y001543D03*
D48*
X005352Y004700D03*
X005352Y005192D03*
X005352Y005700D03*
X005352Y006200D03*
X008009Y006200D03*
X008009Y005700D03*
X008009Y005200D03*
X008009Y004700D03*
D49*
X025219Y010051D03*
X025485Y010042D03*
X025751Y010051D03*
X025751Y010760D03*
X025485Y010760D03*
X025219Y010760D03*
D50*
X025485Y010406D03*
D51*
X023790Y010214D02*
X023790Y011254D01*
X023790Y010214D02*
X023004Y010214D01*
X022191Y010527D02*
X021919Y010527D01*
X021499Y010947D01*
X020288Y010947D01*
X020249Y010986D01*
X020248Y010985D01*
X019266Y010985D01*
X019226Y010945D01*
X019226Y010552D01*
X019371Y010407D01*
X019371Y009160D01*
X010377Y008880D02*
X010377Y006813D01*
X010377Y007714D01*
X010377Y011046D01*
X009398Y010394D02*
X009398Y010052D01*
X009491Y009958D01*
X009524Y009958D01*
X009524Y008481D01*
X009298Y008254D01*
X009287Y008259D01*
X009120Y008259D01*
X008965Y008195D01*
X008847Y008077D01*
X008783Y007922D01*
X008783Y007755D01*
X008847Y007601D01*
X008965Y007483D01*
X009120Y007419D01*
X009287Y007419D01*
X009441Y007483D01*
X009559Y007601D01*
X009623Y007755D01*
X009623Y007922D01*
X009604Y007967D01*
X009821Y008184D01*
X009944Y008307D01*
X009944Y009958D01*
X010214Y009958D01*
X010278Y010022D01*
X010278Y008880D01*
X010377Y008880D01*
X010278Y008917D02*
X009944Y008917D01*
X009944Y009075D02*
X010278Y009075D01*
X010278Y009234D02*
X009944Y009234D01*
X009944Y009392D02*
X010278Y009392D01*
X010278Y009551D02*
X009944Y009551D01*
X009944Y009710D02*
X010278Y009710D01*
X010278Y009868D02*
X009944Y009868D01*
X009524Y009868D02*
X009317Y009868D01*
X009334Y009826D02*
X009279Y009958D01*
X009178Y010059D01*
X009142Y010074D01*
X009147Y010095D01*
X009147Y010444D01*
X008740Y010444D01*
X008740Y010580D01*
X009147Y010580D01*
X009147Y010644D01*
X009398Y010394D01*
X009398Y010344D02*
X009147Y010344D01*
X009147Y010185D02*
X009398Y010185D01*
X009423Y010027D02*
X009211Y010027D01*
X009334Y009826D02*
X009334Y009682D01*
X009279Y009550D01*
X009178Y009449D01*
X009046Y009394D01*
X008911Y009394D01*
X008864Y009347D01*
X008839Y009322D01*
X008839Y008942D01*
X008745Y008848D01*
X008464Y008848D01*
X008464Y008707D01*
X008341Y008584D01*
X007710Y007953D01*
X007723Y007922D01*
X007723Y007755D01*
X007659Y007601D01*
X007541Y007483D01*
X007387Y007419D01*
X007220Y007419D01*
X007065Y007483D01*
X006947Y007601D01*
X006883Y007755D01*
X006883Y007922D01*
X006947Y008077D01*
X007065Y008195D01*
X007220Y008259D01*
X007387Y008259D01*
X007412Y008248D01*
X008017Y008854D01*
X007928Y008942D01*
X007928Y009862D01*
X008022Y009956D01*
X008298Y009956D01*
X008266Y009974D01*
X008232Y010008D01*
X008209Y010049D01*
X008197Y010095D01*
X008197Y010444D01*
X008604Y010444D01*
X008604Y010580D01*
X008197Y010580D01*
X008197Y010929D01*
X008209Y010975D01*
X008232Y011016D01*
X008248Y011031D01*
X008235Y011035D01*
X008222Y011043D01*
X007991Y011043D01*
X008014Y010986D01*
X008014Y010842D01*
X007959Y010710D01*
X007858Y010609D01*
X007726Y010554D01*
X007583Y010554D01*
X007450Y010609D01*
X007414Y010645D01*
X007378Y010609D01*
X007246Y010554D01*
X007103Y010554D01*
X006970Y010609D01*
X006869Y010710D01*
X006814Y010842D01*
X006814Y010986D01*
X006838Y011043D01*
X006735Y011043D01*
X006735Y009848D01*
X006740Y009865D01*
X006763Y009906D01*
X006797Y009940D01*
X006838Y009963D01*
X006884Y009976D01*
X007135Y009976D01*
X007135Y009470D01*
X007270Y009470D01*
X007270Y009976D01*
X007522Y009976D01*
X007567Y009963D01*
X007608Y009940D01*
X007642Y009906D01*
X007666Y009865D01*
X007678Y009819D01*
X007678Y009470D01*
X007270Y009470D01*
X007270Y009334D01*
X007270Y008828D01*
X007522Y008828D01*
X007567Y008841D01*
X007608Y008864D01*
X007642Y008898D01*
X007666Y008939D01*
X007678Y008985D01*
X007678Y009334D01*
X007270Y009334D01*
X007135Y009334D01*
X007135Y008828D01*
X006884Y008828D01*
X006838Y008841D01*
X006797Y008864D01*
X006763Y008898D01*
X006740Y008939D01*
X006735Y008956D01*
X006735Y008880D01*
X006144Y008880D01*
X006144Y006813D01*
X010014Y006813D01*
X010377Y006813D01*
X006144Y006813D01*
X006144Y008880D01*
X006735Y008880D01*
X006735Y011034D01*
X006735Y011046D01*
X006735Y010978D02*
X006814Y010978D01*
X006824Y010819D02*
X006735Y010819D01*
X006735Y010661D02*
X006918Y010661D01*
X006735Y010502D02*
X008604Y010502D01*
X008740Y010502D02*
X009289Y010502D01*
X009334Y009710D02*
X009524Y009710D01*
X009524Y009551D02*
X009280Y009551D01*
X009524Y009392D02*
X008910Y009392D01*
X008839Y009234D02*
X009524Y009234D01*
X009524Y009075D02*
X008839Y009075D01*
X008814Y008917D02*
X009524Y008917D01*
X009524Y008758D02*
X008464Y008758D01*
X008357Y008600D02*
X009524Y008600D01*
X009484Y008441D02*
X008198Y008441D01*
X008040Y008283D02*
X009326Y008283D01*
X009605Y007966D02*
X010377Y007966D01*
X010377Y008124D02*
X009761Y008124D01*
X009920Y008283D02*
X010377Y008283D01*
X010377Y008441D02*
X009944Y008441D01*
X009944Y008600D02*
X010377Y008600D01*
X010377Y008758D02*
X009944Y008758D01*
X008894Y008124D02*
X007881Y008124D01*
X007723Y007966D02*
X008801Y007966D01*
X008783Y007807D02*
X007723Y007807D01*
X007679Y007648D02*
X008827Y007648D01*
X008958Y007490D02*
X007548Y007490D01*
X007058Y007490D02*
X006144Y007490D01*
X006144Y007648D02*
X006927Y007648D01*
X006883Y007807D02*
X006144Y007807D01*
X006144Y007966D02*
X006901Y007966D01*
X006994Y008124D02*
X006144Y008124D01*
X006144Y008283D02*
X007446Y008283D01*
X007604Y008441D02*
X006144Y008441D01*
X006144Y008600D02*
X007763Y008600D01*
X007921Y008758D02*
X006144Y008758D01*
X006735Y008917D02*
X006752Y008917D01*
X007135Y008917D02*
X007270Y008917D01*
X007270Y009075D02*
X007135Y009075D01*
X007135Y009234D02*
X007270Y009234D01*
X007270Y009392D02*
X007928Y009392D01*
X007928Y009234D02*
X007678Y009234D01*
X007678Y009075D02*
X007928Y009075D01*
X007954Y008917D02*
X007653Y008917D01*
X007678Y009551D02*
X007928Y009551D01*
X007928Y009710D02*
X007678Y009710D01*
X007664Y009868D02*
X007934Y009868D01*
X008222Y010027D02*
X006735Y010027D01*
X006735Y010185D02*
X008197Y010185D01*
X008197Y010344D02*
X006735Y010344D01*
X006735Y009868D02*
X006741Y009868D01*
X007135Y009868D02*
X007270Y009868D01*
X007270Y009710D02*
X007135Y009710D01*
X007135Y009551D02*
X007270Y009551D01*
X007910Y010661D02*
X008197Y010661D01*
X008197Y010819D02*
X008005Y010819D01*
X008014Y010978D02*
X008210Y010978D01*
X009623Y007807D02*
X010377Y007807D01*
X010377Y007648D02*
X009579Y007648D01*
X009448Y007490D02*
X010377Y007490D01*
X010377Y007331D02*
X006144Y007331D01*
X006144Y007173D02*
X010377Y007173D01*
X010377Y007014D02*
X006144Y007014D01*
X006144Y006856D02*
X010377Y006856D01*
D52*
X010014Y006813D02*
X010014Y004954D01*
X010006Y004945D01*
X009974Y004914D01*
X009974Y003794D01*
X008814Y003794D01*
X008774Y003754D01*
X007094Y003754D01*
X007054Y003714D01*
X007454Y003314D01*
X007481Y003292D01*
X007054Y003714D02*
X006894Y003874D01*
X006214Y003874D01*
X006181Y003905D01*
X005374Y004714D02*
X005352Y004700D01*
X005374Y004714D02*
X005374Y005154D01*
X005352Y005192D01*
X005294Y005194D01*
X003054Y005194D01*
X002854Y004994D01*
X002174Y004994D01*
X001734Y004554D01*
X001728Y004522D01*
X004427Y001953D02*
X004454Y001914D01*
X004814Y001554D01*
X006174Y001554D01*
X006181Y001543D01*
X005253Y001953D02*
X005254Y001954D01*
X005254Y003074D01*
X005251Y003102D01*
X008009Y005700D02*
X008014Y005714D01*
X008054Y005754D01*
X008934Y005754D01*
X008694Y006194D02*
X008014Y006194D01*
X008009Y006200D01*
X008694Y004954D02*
X009254Y004954D01*
X009258Y004945D01*
X008774Y003754D02*
X009254Y003274D01*
X009288Y003267D01*
X009294Y003194D01*
X009334Y003194D01*
X010054Y002474D01*
X011414Y002474D01*
X011422Y002493D01*
X011422Y002965D02*
X011454Y002994D01*
X012054Y002994D01*
X012814Y001874D02*
X014974Y001874D01*
X015174Y001674D01*
X015374Y001874D01*
X017454Y001874D01*
X017774Y001554D01*
X021054Y001554D01*
X021174Y001674D01*
X021205Y001707D01*
X021735Y003607D02*
X021774Y003634D01*
X022374Y003634D01*
X022934Y003634D01*
X022955Y003611D01*
X022414Y004114D02*
X022414Y004154D01*
X022414Y004114D02*
X021054Y004114D01*
X021054Y004754D01*
X021041Y004777D01*
X021809Y004777D02*
X021814Y004794D01*
X021814Y005354D01*
X022414Y004114D02*
X024334Y004114D01*
X024814Y003634D01*
X024818Y003633D01*
X024854Y003594D01*
X025734Y003594D01*
X025734Y003634D01*
X027014Y004914D01*
X027011Y004985D01*
X027014Y004994D01*
X027654Y004994D01*
X027694Y004954D01*
X027814Y004954D01*
X027814Y004634D01*
X027840Y004615D01*
X027654Y004994D02*
X028694Y006034D01*
X028714Y006069D01*
X028714Y006817D02*
X028654Y006874D01*
X027334Y006874D01*
X027134Y007074D01*
X027112Y007101D01*
X027112Y006353D02*
X027094Y006314D01*
X025774Y004994D01*
X025774Y004954D01*
X023774Y004954D01*
X023614Y004794D01*
X023601Y004777D01*
X023094Y006194D02*
X023094Y007634D01*
X023089Y007656D01*
X022833Y007656D02*
X022814Y007634D01*
X022814Y006714D01*
X022174Y006714D01*
X021934Y006954D01*
X021934Y007194D01*
X022054Y007314D01*
X022054Y007634D01*
X022065Y007656D01*
X022321Y007656D02*
X022334Y007634D01*
X022334Y007074D01*
X022414Y007074D01*
X021041Y007656D02*
X021054Y007714D01*
X021054Y008234D01*
X021014Y007674D02*
X020814Y007674D01*
X020786Y007656D01*
X021014Y007674D02*
X021041Y007656D01*
X019734Y006754D02*
X019214Y006754D01*
X019193Y006729D01*
X018614Y009154D02*
X018054Y009154D01*
X018614Y009154D02*
X018623Y009160D01*
X018894Y010034D02*
X018894Y010514D01*
X018911Y010552D01*
X018934Y010554D01*
X018894Y010594D01*
X018854Y010554D01*
X018614Y010554D01*
X018596Y010552D01*
X018614Y010594D01*
X018614Y011394D01*
X018596Y011418D01*
X017974Y011434D02*
X017966Y011418D01*
X017974Y011434D02*
X017974Y011954D01*
X017134Y013074D02*
X016694Y012634D01*
X016054Y012634D01*
X015614Y013074D01*
X015614Y013114D01*
X015814Y013114D01*
X015814Y014074D01*
X015774Y014074D01*
X015814Y014074D02*
X015814Y014634D01*
X015850Y014642D01*
X017214Y014954D02*
X017214Y015434D01*
X017197Y015437D01*
X016814Y015954D02*
X017814Y015954D01*
X017814Y015474D01*
X017813Y015463D01*
X017814Y015954D02*
X017814Y016514D01*
X017900Y016500D01*
X017894Y016514D01*
X017574Y016834D01*
X017054Y016834D01*
X015854Y018034D01*
X016734Y018914D01*
X020654Y018914D01*
X021214Y018354D01*
X021226Y018323D01*
X019200Y017253D02*
X019174Y017234D01*
X018574Y017234D01*
X017934Y017234D01*
X017900Y017248D01*
X015854Y018034D02*
X015734Y018154D01*
X013814Y018154D01*
X013814Y017954D01*
X011254Y017954D01*
X011014Y018194D01*
X008254Y018194D01*
X007374Y019074D01*
X007344Y019103D01*
X007454Y017554D02*
X007434Y017550D01*
X007454Y017554D02*
X007974Y017554D01*
X006686Y017550D02*
X006654Y017554D01*
X005734Y017554D01*
X005680Y017523D01*
X005694Y017594D01*
X005294Y017994D01*
X004654Y017994D01*
X005654Y017514D02*
X005680Y017523D01*
X005654Y017514D02*
X005654Y015834D01*
X005174Y015354D01*
X005134Y015354D01*
X004854Y015074D01*
X004839Y015050D01*
X004774Y015034D01*
X004254Y015034D01*
X005534Y014234D02*
X005614Y014154D01*
X006054Y014154D01*
X006094Y014114D01*
X006120Y014096D01*
X006120Y013781D02*
X006094Y013754D01*
X005534Y013754D01*
X004604Y012361D02*
X004574Y012354D01*
X004094Y011874D01*
X003734Y011874D01*
X003734Y011034D01*
X003574Y011034D01*
X003734Y011034D02*
X003734Y010194D01*
X003814Y010114D01*
X004054Y010114D01*
X004614Y009554D01*
X004636Y009529D01*
X004494Y010954D02*
X004214Y011234D01*
X004204Y011271D01*
X004494Y010954D02*
X004814Y010954D01*
X005734Y011281D02*
X005774Y011274D01*
X006014Y011034D01*
X006735Y011034D01*
X008088Y011498D02*
X008094Y011514D01*
X008094Y012074D01*
X008403Y011498D02*
X008374Y011474D01*
X008374Y011074D01*
X008294Y011074D01*
X008222Y011043D01*
X010694Y013754D02*
X010687Y013781D01*
X010694Y013754D02*
X011294Y013754D01*
X010687Y014096D02*
X010654Y014114D01*
X010094Y014114D01*
X008414Y015474D02*
X008414Y016034D01*
X008403Y016065D01*
X011014Y019114D02*
X011574Y019114D01*
X011600Y019128D01*
X013244Y019043D02*
X013254Y019034D01*
X013814Y019034D01*
X013814Y018154D01*
X013814Y017954D02*
X013814Y016314D01*
X013820Y016292D01*
X014568Y016292D02*
X014574Y016314D01*
X015134Y016314D01*
X013254Y017354D02*
X012734Y017354D01*
X012720Y017336D01*
X012974Y016194D02*
X012454Y016194D01*
X012426Y016200D01*
X012934Y014034D02*
X013494Y014034D01*
X013532Y014043D01*
X013494Y013034D02*
X012934Y013034D01*
X013494Y013034D02*
X013533Y013019D01*
X015339Y013108D02*
X015374Y013114D01*
X015614Y013114D01*
X017134Y013074D02*
X017139Y013095D01*
X018694Y014234D02*
X019174Y014234D01*
X019174Y014594D01*
X019165Y014598D01*
X017334Y014874D02*
X017254Y014954D01*
X017214Y014954D01*
X020747Y013114D02*
X021454Y013114D01*
X021490Y013122D01*
X021490Y013870D02*
X021494Y013874D01*
X021734Y014114D01*
X022494Y014114D01*
X022496Y014140D01*
X022134Y014074D01*
X022134Y013714D01*
X022496Y014640D02*
X022494Y014674D01*
X021574Y014674D01*
X021534Y014714D01*
X021508Y014736D01*
X021854Y015154D02*
X022494Y015154D01*
X022496Y015140D01*
X022534Y015634D02*
X022496Y015640D01*
X022534Y015634D02*
X023214Y015634D01*
X024556Y015640D02*
X024574Y015634D01*
X025094Y015634D01*
X025294Y015434D01*
X025574Y015434D01*
X025633Y015445D01*
X025654Y015434D01*
X026214Y015237D01*
X026214Y014514D02*
X025654Y014514D01*
X025634Y014520D01*
X025174Y014794D02*
X025174Y014194D01*
X025094Y014194D01*
X025054Y014154D01*
X024614Y014154D01*
X024556Y014140D01*
X024574Y014034D01*
X025374Y014034D01*
X025614Y013794D01*
X025634Y013771D01*
X025694Y013754D01*
X026334Y013114D01*
X027334Y013114D01*
X027654Y012794D01*
X028014Y012794D01*
X028068Y012761D01*
X028094Y012794D01*
X028174Y012874D01*
X028374Y012874D01*
X029094Y012154D01*
X029094Y010594D01*
X028494Y010594D01*
X028492Y010555D01*
X029694Y010554D02*
X029694Y009514D01*
X029679Y009495D01*
X029014Y008714D02*
X029694Y008034D01*
X029679Y007999D01*
X029654Y007994D01*
X029614Y007994D01*
X029614Y006474D01*
X029581Y006443D01*
X029934Y005594D02*
X029014Y004674D01*
X029021Y004615D01*
X029014Y004594D01*
X028534Y004594D01*
X028534Y002914D01*
X028526Y002904D01*
X028854Y002434D02*
X027854Y002434D01*
X027174Y003114D01*
X027135Y003144D01*
X026734Y002554D02*
X027254Y002034D01*
X028534Y002034D01*
X029214Y001354D01*
X029191Y001327D01*
X028443Y001327D02*
X028414Y001354D01*
X027894Y001354D01*
X027334Y001354D01*
X027134Y001554D01*
X027104Y001573D01*
X026374Y001594D02*
X026356Y001573D01*
X026374Y001594D02*
X026374Y003114D01*
X026387Y003144D01*
X026334Y003194D01*
X025934Y003594D01*
X025734Y003594D01*
X025774Y004954D02*
X026254Y004954D01*
X026263Y004985D01*
X028694Y006834D02*
X028714Y006817D01*
X028694Y006834D02*
X028694Y008274D01*
X028655Y008275D01*
X028974Y008714D02*
X029014Y008714D01*
X028974Y008714D02*
X028694Y008994D01*
X028655Y009023D01*
X029694Y010554D02*
X029974Y010554D01*
X030012Y010567D01*
X030054Y010594D01*
X030694Y011234D01*
X031814Y011234D01*
X032734Y012154D01*
X035974Y012154D01*
X035974Y014034D01*
X035854Y014154D01*
X034974Y014154D01*
X034974Y016194D01*
X033734Y017434D01*
X033705Y017446D01*
X033974Y018674D02*
X035454Y018674D01*
X035476Y018668D01*
X033974Y018674D02*
X033734Y018914D01*
X033705Y018942D01*
X033654Y018954D01*
X032534Y020074D01*
X016334Y020074D01*
X016294Y020114D01*
X016654Y022674D02*
X015134Y024194D01*
X011734Y024194D01*
X011700Y024266D01*
X011694Y024234D01*
X011414Y023954D01*
X006814Y023954D01*
X006414Y023554D01*
X006379Y023489D01*
X006374Y023514D01*
X005414Y023514D01*
X005394Y023529D01*
X005394Y022781D02*
X005414Y022754D01*
X005414Y021714D01*
X005443Y021699D01*
X005374Y021754D01*
X002734Y021754D01*
X001774Y020794D01*
X001775Y020727D01*
X001774Y020714D01*
X001774Y019754D01*
X001734Y019754D01*
X001726Y019687D01*
X001654Y019674D01*
X001254Y019274D01*
X001254Y015714D01*
X002094Y015714D01*
X002110Y015707D01*
X001734Y018914D02*
X001726Y018939D01*
X001734Y018914D02*
X003734Y018914D01*
X003734Y019474D01*
X003974Y019714D01*
X003934Y019754D01*
X003974Y019714D02*
X004174Y019914D01*
X004494Y019914D01*
X004518Y019940D01*
X003094Y020874D02*
X002694Y020874D01*
X002574Y020754D01*
X002523Y020727D01*
X002494Y020714D01*
X002374Y020714D01*
X002374Y019554D01*
X002494Y019434D01*
X002814Y019434D01*
X002826Y019428D01*
X002774Y019194D02*
X002814Y019154D01*
X002826Y019172D01*
X002774Y019194D02*
X002254Y019194D01*
X001774Y019674D01*
X001734Y019674D01*
X001726Y019687D01*
X007383Y022804D02*
X007414Y022834D01*
X007414Y023554D01*
X012414Y022754D02*
X013254Y022754D01*
X013284Y022744D01*
X021508Y015484D02*
X021534Y015474D01*
X021854Y015154D01*
X023894Y013434D02*
X023889Y013416D01*
X023894Y013434D02*
X024534Y014074D01*
X024556Y014140D01*
X024774Y014914D02*
X025054Y014914D01*
X025174Y014794D01*
X024774Y014914D02*
X024574Y015114D01*
X024556Y015140D01*
X025694Y017194D02*
X026254Y017194D01*
X026255Y017192D01*
X027977Y014318D02*
X028014Y014314D01*
X028534Y014314D01*
X028454Y013474D02*
X028094Y013474D01*
X028068Y013509D01*
X028054Y013154D02*
X027614Y013154D01*
X027574Y013194D01*
X027574Y013754D01*
X028054Y013154D02*
X028068Y013135D01*
X028374Y012874D02*
X028454Y012954D01*
X028454Y013474D01*
X027044Y012761D02*
X027014Y012754D01*
X026494Y012754D01*
X026734Y011794D02*
X027254Y011794D01*
X027273Y011779D01*
X028021Y011779D02*
X028054Y011794D01*
X028574Y011794D01*
X026054Y010394D02*
X025734Y010394D01*
X025734Y010114D01*
X025774Y010074D01*
X025751Y010051D01*
X025694Y010074D02*
X025734Y010114D01*
X025694Y010074D02*
X025494Y010074D01*
X025485Y010042D01*
X025219Y010051D02*
X025214Y010034D01*
X024854Y010034D01*
X025485Y010406D02*
X025494Y010394D01*
X025734Y010394D01*
X024374Y011274D02*
X023854Y011274D01*
X023790Y011254D01*
X023814Y011994D02*
X023790Y012002D01*
X023814Y011994D02*
X024374Y011994D01*
X022654Y010514D02*
X022254Y010514D01*
X022191Y010527D01*
X022654Y010514D02*
X022934Y010234D01*
X023004Y010214D01*
X023014Y009234D02*
X023004Y009214D01*
X023014Y009234D02*
X023614Y009234D01*
X020249Y011734D02*
X020214Y011754D01*
X019654Y011754D01*
X017966Y010552D02*
X017974Y010514D01*
X017974Y010034D01*
X017651Y010552D02*
X017614Y010554D01*
X017254Y010554D01*
X015910Y008792D02*
X015854Y008794D01*
X015294Y008794D01*
X015281Y008792D01*
X015214Y008794D01*
X014694Y008794D01*
X014651Y008792D01*
X014614Y008794D01*
X014174Y008794D01*
X011414Y007714D02*
X010377Y007714D01*
X011414Y007714D02*
X011422Y007690D01*
X012814Y001874D02*
X012814Y001394D01*
X012800Y001390D01*
X015174Y001674D02*
X015214Y001634D01*
X015214Y001394D01*
X015241Y001390D01*
X028854Y002434D02*
X029294Y002874D01*
X029274Y002904D01*
X029294Y002954D01*
X029294Y004114D01*
X030014Y004834D01*
X030014Y005354D01*
X030254Y005354D01*
X030374Y005474D01*
X030814Y005474D01*
X031254Y005914D01*
X031277Y005946D01*
X030490Y005946D02*
X030454Y005914D01*
X030134Y005594D01*
X029934Y005594D01*
X031394Y002226D02*
X031414Y002194D01*
X031414Y001314D01*
X031439Y001311D01*
X030612Y001311D02*
X030574Y001314D01*
X030534Y001354D01*
X030094Y001354D01*
X032414Y014114D02*
X032403Y014119D01*
X032414Y014114D02*
X033014Y014114D01*
X031294Y014874D02*
X031294Y015234D01*
X031276Y015260D01*
X031276Y016260D02*
X031294Y016274D01*
X031934Y016274D01*
X033635Y021079D02*
X033654Y021114D01*
X033654Y021634D01*
X025294Y021514D02*
X025289Y021492D01*
X025294Y021514D02*
X025294Y022034D01*
X025254Y020754D02*
X024694Y020754D01*
X025254Y020754D02*
X025289Y020744D01*
D53*
X024694Y020754D03*
X025294Y022034D03*
X025694Y017194D03*
X023974Y016634D03*
X023214Y015634D03*
X022134Y013714D03*
X022574Y013474D03*
X022174Y012674D03*
X020814Y012074D03*
X020747Y013114D03*
X020414Y014594D03*
X018694Y014234D03*
X017534Y013954D03*
X016734Y013674D03*
X015774Y014074D03*
X014614Y014234D03*
X014134Y014234D03*
X014614Y014714D03*
X014974Y015474D03*
X015134Y016314D03*
X016814Y015954D03*
X017334Y014874D03*
X018414Y016034D03*
X018574Y017234D03*
X016894Y018554D03*
X016294Y020114D03*
X016654Y022674D03*
X013734Y023474D03*
X012414Y022754D03*
X012294Y021674D03*
X012574Y020634D03*
X011094Y020434D03*
X010094Y019674D03*
X011014Y019114D03*
X013254Y017354D03*
X012974Y016194D03*
X012934Y015074D03*
X012934Y014034D03*
X012014Y013994D03*
X011294Y013754D03*
X011774Y013274D03*
X012934Y013034D03*
X011054Y011834D03*
X010094Y013074D03*
X010094Y014114D03*
X009374Y014794D03*
X009974Y015474D03*
X011294Y015074D03*
X011654Y015394D03*
X008414Y015474D03*
X007574Y015074D03*
X007294Y015474D03*
X006734Y015074D03*
X006734Y014354D03*
X005534Y014234D03*
X005534Y013754D03*
X004254Y014274D03*
X004254Y015034D03*
X004254Y015514D03*
X003294Y016754D03*
X006134Y016434D03*
X006254Y017034D03*
X006854Y016674D03*
X007814Y016914D03*
X008334Y016954D03*
X007974Y017554D03*
X006254Y018794D03*
X005094Y019394D03*
X003934Y019754D03*
X004094Y020274D03*
X003094Y020874D03*
X007414Y023554D03*
X008054Y023514D03*
X008214Y021234D03*
X011134Y022194D03*
X010934Y022874D03*
X011014Y023434D03*
X008054Y014354D03*
X006734Y012874D03*
X007374Y012154D03*
X008094Y012074D03*
X008734Y012074D03*
X009374Y012074D03*
X007654Y010914D03*
X007174Y010914D03*
X006374Y010674D03*
X006374Y009754D03*
X006374Y009274D03*
X004614Y007994D03*
X005574Y006594D03*
X004254Y006434D03*
X004534Y003754D03*
X006574Y003514D03*
X006854Y001994D03*
X009494Y002514D03*
X010574Y002834D03*
X010574Y002114D03*
X012054Y002994D03*
X012294Y005314D03*
X014854Y004954D03*
X012214Y007994D03*
X011974Y008434D03*
X012334Y009034D03*
X011054Y009274D03*
X010934Y008074D03*
X008974Y009754D03*
X005654Y011834D03*
X005174Y011874D03*
X005294Y012474D03*
X004814Y010954D03*
X003574Y011034D03*
X003294Y012674D03*
X008694Y006194D03*
X008934Y005754D03*
X008694Y004954D03*
X008654Y004474D03*
X009134Y004354D03*
X014174Y008794D03*
X017254Y010554D03*
X017974Y010034D03*
X018894Y010034D03*
X019734Y010434D03*
X020734Y009914D03*
X022374Y009874D03*
X023614Y009234D03*
X023694Y008234D03*
X022414Y007074D03*
X021934Y006954D03*
X023094Y006194D03*
X022774Y005714D03*
X021814Y005354D03*
X022414Y004154D03*
X022374Y003634D03*
X023534Y003754D03*
X026734Y002554D03*
X027894Y001354D03*
X029014Y002114D03*
X030094Y001354D03*
X028254Y007234D03*
X026054Y010394D03*
X024854Y010034D03*
X024374Y011274D03*
X024374Y011994D03*
X026494Y012754D03*
X026734Y011794D03*
X028574Y011794D03*
X027574Y013754D03*
X028534Y014314D03*
X026214Y014514D03*
X026214Y015237D03*
X031294Y014874D03*
X031934Y016274D03*
X033014Y014114D03*
X033054Y020114D03*
X033654Y021634D03*
X019654Y011754D03*
X017974Y011954D03*
X017254Y011394D03*
X016014Y011874D03*
X018054Y009154D03*
X019734Y006754D03*
X021054Y008234D03*
D54*
X002734Y003754D02*
X001094Y003754D01*
X001094Y013514D01*
X002134Y014554D01*
X002574Y014554D01*
X002574Y015874D01*
X002294Y016154D01*
X001654Y016154D01*
X001654Y017834D01*
X002414Y018594D01*
X003934Y018594D01*
X004494Y019154D01*
X004518Y019172D01*
X004534Y019394D02*
X004518Y019428D01*
X004534Y019394D02*
X005094Y019394D01*
X005442Y019964D02*
X005454Y019994D01*
X005454Y020914D01*
X005443Y020950D01*
X006214Y020954D02*
X006374Y020954D01*
X006376Y020980D01*
X006214Y020954D02*
X006214Y019994D01*
X006190Y019964D01*
X006174Y019914D01*
X006254Y019914D01*
X006254Y018794D01*
X005614Y017994D02*
X005414Y018194D01*
X003974Y018194D01*
X003334Y017554D01*
X002254Y017554D01*
X002134Y017674D01*
X002110Y017676D01*
X003294Y016754D02*
X003334Y016754D01*
X003734Y016354D01*
X003767Y016331D01*
X004254Y015514D02*
X003894Y015154D01*
X003894Y014314D01*
X004254Y014314D01*
X004254Y014274D01*
X004254Y014314D02*
X004814Y014314D01*
X004839Y014302D01*
X004934Y013794D02*
X002254Y013794D01*
X002134Y013914D01*
X002104Y013919D01*
X003054Y013514D02*
X001294Y011754D01*
X001294Y010194D01*
X002094Y010194D01*
X002108Y010159D01*
X003694Y009554D02*
X003725Y009588D01*
X003694Y009554D02*
X002574Y008434D01*
X002574Y007474D01*
X001574Y007474D01*
X001294Y007194D01*
X001294Y004074D01*
X004374Y004074D01*
X004614Y004314D01*
X008334Y004314D01*
X008534Y004114D01*
X008894Y004114D01*
X009134Y004354D01*
X008654Y004474D02*
X008454Y004674D01*
X008014Y004674D01*
X008009Y004700D01*
X008009Y005200D02*
X008014Y005234D01*
X008174Y005394D01*
X009294Y005394D01*
X009294Y006074D01*
X008814Y006554D01*
X005934Y006554D01*
X005934Y006954D01*
X004774Y006954D01*
X004254Y006434D01*
X005214Y005554D02*
X002734Y005554D01*
X002728Y005522D01*
X002254Y006074D02*
X005254Y006074D01*
X005334Y006154D01*
X005352Y006200D01*
X005374Y006234D01*
X005574Y006234D01*
X005574Y006594D01*
X005934Y006954D02*
X005934Y008994D01*
X006054Y009114D01*
X006214Y009114D01*
X006374Y009274D01*
X006374Y009754D02*
X004614Y007994D01*
X004636Y008781D02*
X004614Y008794D01*
X003734Y008794D01*
X003725Y008761D01*
X004214Y010514D02*
X004204Y010523D01*
X004214Y010514D02*
X005734Y010514D01*
X005734Y010533D01*
X005774Y010554D01*
X006254Y010554D01*
X006374Y010674D01*
X007174Y010914D02*
X007174Y011474D01*
X007143Y011498D01*
X006828Y011498D02*
X006814Y011514D01*
X006494Y011834D01*
X005654Y011834D01*
X005494Y012194D02*
X005174Y011874D01*
X005494Y012194D02*
X006094Y012194D01*
X006120Y012206D01*
X006054Y012474D02*
X005294Y012474D01*
X005534Y012914D02*
X004934Y013514D01*
X003054Y013514D01*
X003774Y013114D02*
X003774Y013088D01*
X003774Y013114D02*
X004574Y013114D01*
X004604Y013109D01*
X004934Y013794D02*
X005494Y013234D01*
X006014Y013234D01*
X006094Y013154D01*
X006120Y013151D01*
X006054Y012914D02*
X005534Y012914D01*
X006054Y012914D02*
X006094Y012874D01*
X006120Y012836D01*
X006120Y012521D02*
X006094Y012514D01*
X006054Y012474D01*
X006734Y012874D02*
X007294Y013434D01*
X010654Y013434D01*
X010687Y013466D01*
X010694Y013154D02*
X010687Y013151D01*
X010694Y013154D02*
X011174Y013154D01*
X012014Y013994D01*
X012134Y014354D02*
X012574Y013914D01*
X012574Y012314D01*
X013534Y012314D01*
X013533Y012271D01*
X013574Y012274D01*
X016094Y012274D01*
X016854Y011514D01*
X016894Y011514D01*
X016894Y010994D01*
X017574Y010994D01*
X017612Y010985D01*
X017614Y011394D02*
X017254Y011394D01*
X017614Y011394D02*
X017651Y011418D01*
X016894Y011514D02*
X017694Y012314D01*
X018094Y012314D01*
X018174Y012234D01*
X020494Y012234D01*
X020614Y012114D01*
X020814Y012114D01*
X020814Y012074D01*
X020814Y012114D02*
X022654Y012114D01*
X022934Y012394D01*
X025454Y012394D01*
X025454Y010794D01*
X025485Y010760D01*
X025219Y010760D02*
X025214Y010754D01*
X024854Y010394D01*
X024734Y010394D01*
X023974Y009634D01*
X023974Y008594D01*
X022574Y008594D01*
X022414Y008434D01*
X021974Y008434D01*
X021414Y008994D01*
X021414Y009194D01*
X021378Y009214D01*
X021334Y009234D01*
X020934Y009234D01*
X019734Y010434D01*
X020734Y009914D02*
X021214Y009914D01*
X021374Y009754D01*
X021378Y009714D01*
X022374Y009874D02*
X022494Y009754D01*
X022974Y009754D01*
X023004Y009714D01*
X023694Y008234D02*
X021814Y008234D01*
X021814Y007674D01*
X021809Y007656D01*
X023345Y007656D02*
X023374Y007634D01*
X023374Y007234D01*
X023814Y007234D01*
X024614Y008034D01*
X027454Y008034D01*
X028254Y007234D01*
X027334Y008474D02*
X028294Y009434D01*
X029014Y009434D01*
X029254Y009194D01*
X029254Y008794D01*
X029654Y008794D01*
X031734Y006714D01*
X031734Y004994D01*
X031294Y004994D01*
X031277Y004962D01*
X030646Y002226D02*
X030614Y002194D01*
X029094Y002194D01*
X029014Y002114D01*
X024818Y002884D02*
X024814Y002914D01*
X024494Y003234D01*
X023854Y003234D01*
X023822Y003237D01*
X023814Y003274D01*
X023534Y003274D01*
X023534Y003754D01*
X022955Y002863D02*
X022934Y002874D01*
X021774Y002874D01*
X021735Y002859D01*
X021694Y002834D01*
X021334Y002474D01*
X019894Y002474D01*
X019174Y001754D01*
X018294Y001754D01*
X017814Y002234D01*
X017786Y002241D01*
X017534Y002674D02*
X017614Y002754D01*
X018974Y002754D01*
X019294Y003074D01*
X019294Y004714D01*
X018254Y004714D01*
X017814Y004274D01*
X017786Y004241D01*
X017614Y003754D02*
X018294Y003754D01*
X018774Y004234D01*
X018786Y004241D01*
X017614Y003754D02*
X016974Y003114D01*
X016774Y003114D01*
X016654Y002994D01*
X016619Y002965D01*
X016814Y002674D02*
X017534Y002674D01*
X016814Y002674D02*
X016654Y002514D01*
X016619Y002493D01*
X018786Y002241D02*
X018814Y002274D01*
X019214Y002674D01*
X020094Y002674D01*
X020294Y002874D01*
X020326Y002886D01*
X020326Y003634D02*
X020294Y003634D01*
X020294Y004754D01*
X020274Y004777D01*
X021297Y004777D02*
X021334Y004794D01*
X021334Y005714D01*
X022774Y005714D01*
X023601Y007656D02*
X023614Y007674D01*
X024414Y008474D01*
X027334Y008474D01*
X022574Y012314D02*
X022054Y012314D01*
X021934Y012434D01*
X018574Y012434D01*
X017334Y013674D01*
X016734Y013674D01*
X016374Y014154D02*
X016374Y013114D01*
X016391Y013095D01*
X016374Y014154D02*
X017094Y014154D01*
X017854Y014914D01*
X017854Y015034D01*
X018134Y015034D01*
X018534Y015434D01*
X018561Y015463D01*
X018574Y015474D01*
X019534Y015474D01*
X019539Y015464D01*
X020294Y015034D02*
X018614Y015034D01*
X018214Y014634D01*
X018187Y014596D01*
X017534Y013954D02*
X018814Y012674D01*
X022174Y012674D01*
X022574Y012314D02*
X022574Y013474D01*
X023141Y013416D02*
X023174Y013434D01*
X023174Y014634D01*
X023974Y014634D01*
X023974Y015834D01*
X024054Y015914D01*
X025374Y015914D01*
X025614Y016154D01*
X025633Y016193D01*
X025294Y016594D02*
X027774Y016594D01*
X029534Y014834D01*
X030014Y014834D01*
X030022Y014801D01*
X030022Y015549D02*
X030014Y015554D01*
X030014Y016474D01*
X030019Y016494D01*
X030054Y016514D01*
X030694Y017154D01*
X030694Y019514D01*
X030705Y019544D01*
X033054Y020114D02*
X033294Y019874D01*
X035414Y019874D01*
X035414Y020634D01*
X035014Y021034D01*
X034998Y021072D01*
X035254Y021474D02*
X034654Y021474D01*
X033134Y022994D01*
X022854Y022994D01*
X020614Y020754D01*
X017774Y020754D01*
X017454Y021074D01*
X012414Y021074D01*
X012054Y021434D01*
X011134Y021434D01*
X011134Y022194D01*
X011705Y021835D02*
X011734Y021834D01*
X011894Y021674D01*
X012294Y021674D01*
X012254Y022034D02*
X013934Y022034D01*
X014414Y021554D01*
X015774Y021554D01*
X016174Y021954D01*
X016197Y021957D01*
X016214Y021994D01*
X014374Y023834D01*
X012014Y023834D01*
X011734Y023554D01*
X011700Y023518D01*
X011174Y023114D02*
X012454Y023114D01*
X012814Y023474D01*
X013734Y023474D01*
X012254Y022034D02*
X011734Y022554D01*
X011705Y022583D01*
X011174Y023114D02*
X010934Y022874D01*
X011014Y023434D02*
X008134Y023434D01*
X008054Y023514D01*
X006379Y022741D02*
X006374Y022714D01*
X006374Y021754D01*
X006376Y021728D01*
X006414Y021714D01*
X006454Y021674D01*
X008534Y021674D01*
X008614Y021594D01*
X009894Y021594D01*
X010294Y021994D01*
X010297Y022017D01*
X011614Y020834D02*
X011648Y020811D01*
X011614Y020834D02*
X007694Y020834D01*
X007694Y020354D01*
X007934Y020114D01*
X008054Y020114D01*
X008054Y019314D01*
X008614Y018754D01*
X011214Y018754D01*
X011574Y018394D01*
X011600Y018380D01*
X011538Y017336D02*
X011574Y017314D01*
X011654Y017314D01*
X011654Y016514D01*
X008894Y016514D01*
X008734Y016354D01*
X008718Y016065D01*
X008694Y016074D01*
X008694Y016354D01*
X008534Y016514D01*
X008094Y016514D01*
X008094Y016074D01*
X008088Y016065D01*
X007774Y016074D02*
X007773Y016065D01*
X007774Y016074D02*
X007774Y016914D01*
X007814Y016914D01*
X007454Y017034D02*
X006254Y017034D01*
X006134Y016434D02*
X006134Y015394D01*
X006120Y015356D01*
X006734Y015074D02*
X007574Y015074D01*
X007294Y015474D02*
X007174Y015474D01*
X007174Y016034D01*
X007143Y016065D01*
X006854Y016074D02*
X006828Y016065D01*
X006854Y016074D02*
X006854Y016674D01*
X007454Y017034D02*
X007454Y016074D01*
X007458Y016065D01*
X008334Y016954D02*
X008334Y017994D01*
X005614Y017994D01*
X004932Y017523D02*
X004894Y017514D01*
X004094Y017514D01*
X003774Y017194D01*
X003767Y017157D01*
X003174Y019714D02*
X003254Y019794D01*
X003494Y019794D01*
X003974Y020274D01*
X004094Y020274D01*
X003334Y019994D02*
X004574Y021234D01*
X004582Y021259D01*
X003334Y019994D02*
X002894Y019994D01*
X002854Y019954D01*
X002826Y019940D01*
X002854Y019714D02*
X002826Y019684D01*
X002854Y019714D02*
X003174Y019714D01*
X008214Y021234D02*
X011974Y021234D01*
X012574Y020634D01*
X011648Y020063D02*
X011614Y020034D01*
X011094Y020034D01*
X011094Y020434D01*
X011094Y020034D02*
X010454Y020034D01*
X010094Y019674D01*
X011654Y016514D02*
X011654Y016234D01*
X011678Y016200D01*
X011694Y015434D02*
X011654Y015394D01*
X011694Y015434D02*
X014614Y015434D01*
X014614Y014714D01*
X014174Y014674D02*
X014614Y014234D01*
X014134Y014234D02*
X013574Y014794D01*
X013532Y014791D01*
X013494Y014754D01*
X013454Y014714D01*
X010694Y014714D01*
X010687Y014726D01*
X010614Y014474D02*
X010654Y014434D01*
X010687Y014411D01*
X010694Y014394D01*
X010734Y014354D01*
X012134Y014354D01*
X012934Y015074D02*
X013054Y015194D01*
X014174Y015194D01*
X014174Y014674D01*
X015094Y014634D02*
X015102Y014642D01*
X015134Y014674D01*
X015534Y015074D01*
X016094Y015074D01*
X016174Y014994D01*
X016414Y014994D01*
X016814Y014594D01*
X016823Y014571D01*
X016449Y015437D02*
X016414Y015474D01*
X015974Y015914D01*
X014934Y015914D01*
X014774Y015754D01*
X010294Y015754D01*
X010014Y016034D01*
X009978Y016065D01*
X009694Y016034D02*
X009663Y016065D01*
X009694Y016034D02*
X009694Y015754D01*
X009974Y015474D01*
X010687Y015356D02*
X010694Y015354D01*
X011014Y015354D01*
X011294Y015074D01*
X010614Y014474D02*
X009694Y014474D01*
X009374Y014794D01*
X008054Y014354D02*
X007934Y014354D01*
X007094Y013514D01*
X006174Y013514D01*
X006134Y013474D01*
X006120Y013466D01*
X006174Y014354D02*
X006734Y014354D01*
X006174Y014354D02*
X006134Y014394D01*
X006120Y014411D01*
X007374Y012154D02*
X007734Y012154D01*
X007734Y011514D01*
X007773Y011498D01*
X007494Y011474D02*
X007494Y011074D01*
X007654Y010914D01*
X007494Y011474D02*
X007458Y011498D01*
X008718Y011498D02*
X008734Y011514D01*
X008734Y012074D01*
X009374Y012074D02*
X009374Y011514D01*
X009348Y011498D01*
X009054Y011474D02*
X009054Y011034D01*
X009574Y010514D01*
X009814Y010514D01*
X009853Y010512D01*
X009734Y010474D01*
X009734Y008394D01*
X009214Y007874D01*
X009203Y007839D01*
X008254Y008794D02*
X008254Y009394D01*
X008334Y009394D01*
X008384Y009402D01*
X008414Y009434D01*
X008654Y009434D01*
X008974Y009754D01*
X008254Y008794D02*
X007334Y007874D01*
X007303Y007839D01*
X005352Y005700D02*
X005334Y005674D01*
X005214Y005554D01*
X004534Y003754D02*
X004534Y003114D01*
X004503Y003102D01*
X004054Y002434D02*
X004054Y001154D01*
X011054Y001154D01*
X014854Y004954D01*
X016614Y005314D02*
X016619Y005327D01*
X016614Y005314D02*
X012294Y005314D01*
X012174Y004954D02*
X011934Y005194D01*
X011934Y006234D01*
X016614Y006234D01*
X016619Y006272D01*
X016619Y006745D02*
X016654Y006754D01*
X018414Y006754D01*
X018445Y006729D01*
X016014Y011874D02*
X011694Y011874D01*
X011294Y011474D01*
X010934Y011474D01*
X010454Y011954D01*
X009854Y011954D01*
X009814Y011914D01*
X009694Y011914D01*
X009694Y011514D01*
X009663Y011498D01*
X009978Y011498D02*
X010014Y011474D01*
X010214Y011274D01*
X010454Y011274D01*
X011454Y010274D01*
X011454Y009034D01*
X012334Y009034D01*
X011974Y008434D02*
X010694Y008434D01*
X010694Y008914D01*
X011054Y009274D01*
X010934Y008074D02*
X011014Y007994D01*
X012214Y007994D01*
X012174Y004954D02*
X012414Y004954D01*
X012414Y002794D01*
X011214Y001594D01*
X007814Y001594D01*
X007414Y001994D01*
X007379Y001995D01*
X006854Y001994D02*
X006574Y001994D01*
X006574Y003514D01*
X008214Y003274D02*
X008229Y003292D01*
X008214Y003274D02*
X008214Y002034D01*
X008205Y001995D01*
X009209Y001991D02*
X009214Y001994D01*
X009214Y002514D01*
X009494Y002514D01*
X010036Y001991D02*
X010054Y001994D01*
X010174Y002114D01*
X010574Y002114D01*
X010574Y002834D02*
X010174Y003234D01*
X010054Y003234D01*
X010036Y003267D01*
X004054Y002434D02*
X002734Y003754D01*
X001728Y005522D02*
X001734Y005554D01*
X002254Y006074D01*
X009033Y011498D02*
X009054Y011474D01*
X010687Y012206D02*
X010694Y012194D01*
X011054Y011834D01*
X011054Y012554D02*
X010694Y012554D01*
X010687Y012521D01*
X010687Y012836D02*
X010654Y012874D01*
X010294Y012874D01*
X010094Y013074D01*
X011054Y012554D02*
X011774Y013274D01*
X014574Y013114D02*
X014591Y013108D01*
X014574Y013114D02*
X015014Y013554D01*
X015094Y013554D01*
X015094Y014634D01*
X014974Y015474D02*
X015454Y015474D01*
X015476Y015508D01*
X017774Y017674D02*
X020214Y017674D01*
X020614Y017274D01*
X020621Y017251D01*
X020654Y017234D01*
X021214Y017234D01*
X021934Y016514D01*
X021961Y016500D01*
X021974Y017234D02*
X021961Y017248D01*
X021934Y017274D01*
X021934Y019474D01*
X021854Y019474D01*
X021817Y019504D01*
X021974Y017234D02*
X023334Y017234D01*
X023361Y017268D01*
X023361Y016520D02*
X023334Y016514D01*
X022934Y016114D01*
X018494Y016114D01*
X018414Y016034D01*
X019200Y016505D02*
X019214Y016514D01*
X020614Y016514D01*
X020621Y016503D01*
X021174Y015914D02*
X023014Y015914D01*
X023214Y016114D01*
X024814Y016114D01*
X025294Y016594D01*
X024894Y017554D02*
X025854Y017554D01*
X025974Y017674D01*
X028974Y017674D01*
X029714Y016934D01*
X030014Y017234D01*
X030019Y017242D01*
X029714Y016934D02*
X029334Y016554D01*
X028614Y016554D01*
X028571Y016538D01*
X028534Y017274D02*
X028571Y017286D01*
X028534Y017274D02*
X027094Y017274D01*
X027014Y017194D01*
X027003Y017192D01*
X024894Y017554D02*
X023974Y016634D01*
X023974Y014634D02*
X024534Y014634D01*
X024556Y014640D01*
X027054Y014314D02*
X027054Y013554D01*
X027044Y013509D01*
X027054Y013514D01*
X027054Y014314D02*
X027214Y014314D01*
X027229Y014318D01*
X030774Y014754D02*
X030774Y015754D01*
X031254Y015754D01*
X031276Y015760D01*
X030774Y014754D02*
X031414Y014114D01*
X031425Y014099D01*
X031974Y014434D02*
X031974Y013354D01*
X031454Y013354D01*
X031425Y013351D01*
X031974Y013354D02*
X032374Y013354D01*
X032403Y013371D01*
X031974Y014434D02*
X032054Y014514D01*
X032294Y014514D01*
X032294Y016794D01*
X033374Y017874D01*
X035934Y017874D01*
X035934Y020794D01*
X035254Y021474D01*
X034934Y020314D02*
X033654Y020314D01*
X033635Y020331D01*
X034934Y020314D02*
X034974Y020274D01*
X034998Y020245D01*
X021174Y015914D02*
X020294Y015034D01*
X020414Y014594D02*
X019934Y014594D01*
X019913Y014598D01*
X017774Y017674D02*
X016894Y018554D01*
X003774Y012261D02*
X003734Y012274D01*
X003334Y012674D01*
X003294Y012674D01*
M02*
