G75*
G70*
%OFA0B0*%
%FSLAX24Y24*%
%IPPOS*%
%LPD*%
%AMOC8*
5,1,8,0,0,1.08239X$1,22.5*
%
%AMAND10*
1,1,0.1900,0,0*
1,0,0.0000,0,0*
%
%ADD10AND10*%
%ADD11R,0.5315X0.2362*%
%ADD12C,0.0660*%
%AMAND13*
1,1,0.0720,0,0*
1,0,0.0000,0,0*
%
%ADD13AND13*%
%ADD14OC8,0.0600*%
%AMAND15*
1,1,0.0800,0,0*
1,0,0.0000,0,0*
%
%ADD15AND15*%
%AMTHD16X*
1,1,0.0800,0,0*
1,0,0.0600,0,0*
21,0,0.0820,0.0200,0,0,45*
21,0,0.0820,0.0200,0,0,135*
%
%ADD16THD16X*%
%ADD17OC8,0.0594*%
%AMAND18*
1,1,0.0794,0,0*
1,0,0.0000,0,0*
%
%ADD18AND18*%
%ADD19C,0.0768*%
%AMAND20*
1,1,0.0912,0,0*
1,0,0.0000,0,0*
%
%ADD20AND20*%
%ADD21C,0.0594*%
%AMTHD22X*
1,1,0.0794,0,0*
1,0,0.0594,0,0*
21,0,0.0814,0.0200,0,0,45*
21,0,0.0814,0.0200,0,0,135*
%
%ADD22THD22X*%
%ADD23C,0.0709*%
%AMAND24*
1,1,0.0872,0,0*
1,0,0.0000,0,0*
%
%ADD24AND24*%
%AMTHD25X*
1,1,0.0909,0,0*
1,0,0.0709,0,0*
21,0,0.0929,0.0236,0,0,45*
21,0,0.0929,0.0236,0,0,135*
%
%ADD25THD25X*%
%AMAND26*
1,1,0.1660,0,0*
1,0,0.0000,0,0*
%
%ADD26AND26*%
%ADD27C,0.1122*%
%AMAND28*
1,1,0.1148,0,0*
1,0,0.0000,0,0*
%
%ADD28AND28*%
%AMAND29*
1,1,0.1699,0,0*
1,0,0.0000,0,0*
%
%ADD29AND29*%
%ADD30C,0.0650*%
%AMAND31*
1,1,0.0833,0,0*
1,0,0.0000,0,0*
%
%ADD31AND31*%
%ADD32R,0.0650X0.0650*%
%AMTHD33X*
1,1,0.0850,0,0*
1,0,0.0650,0,0*
21,0,0.0870,0.0217,0,0,45*
21,0,0.0870,0.0217,0,0,135*
%
%ADD33THD33X*%
%ADD34OC8,0.0574*%
%AMAND35*
1,1,0.0774,0,0*
1,0,0.0000,0,0*
%
%ADD35AND35*%
%AMTHD36X*
1,1,0.0774,0,0*
1,0,0.0574,0,0*
21,0,0.0794,0.0200,0,0,45*
21,0,0.0794,0.0200,0,0,135*
%
%ADD36THD36X*%
%ADD37C,0.1306*%
%AMAND38*
1,1,0.1306,0,0*
1,0,0.0000,0,0*
%
%ADD38AND38*%
%AMAND39*
1,1,0.1069,0,0*
1,0,0.0000,0,0*
%
%ADD39AND39*%
%ADD40C,0.0520*%
%ADD41C,0.0515*%
%AMAND42*
1,1,0.0715,0,0*
1,0,0.0000,0,0*
%
%ADD42AND42*%
%AMTHD43X*
1,1,0.0715,0,0*
1,0,0.0515,0,0*
21,0,0.0735,0.0200,0,0,45*
21,0,0.0735,0.0200,0,0,135*
%
%ADD43THD43X*%
%AMAND44*
1,1,0.0640,0,0*
1,0,0.0000,0,0*
%
%ADD44AND44*%
D10*
X002034Y002014D03*
X002034Y023514D03*
X035034Y023514D03*
X035034Y002014D03*
D11*
X014018Y010455D03*
D12*
X017786Y004241D03*
X018786Y004241D03*
X018786Y003241D03*
X017786Y003241D03*
X017786Y002241D03*
X018786Y002241D03*
X004582Y021259D03*
X003582Y021259D03*
D13*
X003582Y021259D03*
X004582Y021259D03*
X007303Y007839D03*
X009203Y007839D03*
D14*
X002728Y006522D03*
X001728Y006522D03*
X001728Y005522D03*
X002728Y005522D03*
X001728Y004522D03*
D15*
X001728Y004522D03*
X001728Y005522D03*
X002728Y005522D03*
X002728Y006522D03*
X017786Y004241D03*
X018786Y004241D03*
X018786Y003241D03*
X017786Y003241D03*
X017786Y002241D03*
D16*
X001728Y006522D03*
D17*
X002728Y004522D03*
D18*
X002728Y004522D03*
X002108Y010159D03*
X002104Y013919D03*
X002110Y017676D03*
X018786Y002241D03*
X022205Y001707D03*
X023205Y001707D03*
D19*
X003092Y007796D03*
X003092Y010552D03*
X003088Y011556D03*
X003088Y014312D03*
X003094Y015314D03*
X003094Y018070D03*
D20*
X003094Y018070D03*
X003094Y015314D03*
X003088Y014312D03*
X003088Y011556D03*
X003092Y010552D03*
X003092Y007796D03*
D21*
X002108Y008190D03*
X002108Y010159D03*
X002104Y011950D03*
X002104Y013919D03*
X002110Y015707D03*
X002110Y017676D03*
X021205Y001707D03*
X022205Y001707D03*
X023205Y001707D03*
D22*
X021205Y001707D03*
X002108Y008190D03*
X002104Y011950D03*
X002110Y015707D03*
D23*
X018864Y018323D03*
X020045Y018323D03*
X021226Y018323D03*
X020636Y019504D03*
X021817Y019504D03*
X019455Y019504D03*
X027753Y018363D03*
X028934Y018363D03*
X030115Y018363D03*
X030705Y019544D03*
X029524Y019544D03*
X028343Y019544D03*
D24*
X029524Y019544D03*
X030705Y019544D03*
X030115Y018363D03*
X028934Y018363D03*
X027753Y018363D03*
X021817Y019504D03*
X020636Y019504D03*
X021226Y018323D03*
X020045Y018323D03*
X018864Y018323D03*
D25*
X019455Y019504D03*
X028343Y019544D03*
D26*
X027083Y021906D03*
X023274Y021866D03*
X018195Y021866D03*
X032162Y021906D03*
D27*
X035508Y011433D03*
X035488Y009705D03*
X031461Y010512D03*
X030012Y010567D03*
X028492Y010555D03*
D28*
X028492Y010555D03*
X030012Y010567D03*
X031461Y010512D03*
X035488Y009705D03*
X035508Y011433D03*
D29*
X025074Y006916D03*
X025074Y018668D03*
D30*
X035476Y018668D03*
D31*
X035476Y018668D03*
D32*
X035476Y013668D03*
D33*
X035476Y013668D03*
D34*
X031277Y005946D03*
X030490Y005946D03*
X030490Y004962D03*
X031277Y004962D03*
D35*
X031277Y004962D03*
X030490Y004962D03*
X030490Y005946D03*
D36*
X031277Y005946D03*
D37*
X032344Y007824D03*
X032344Y003084D03*
D38*
X032344Y003084D03*
X032344Y007824D03*
D39*
X014741Y019594D03*
X014741Y022350D03*
X008840Y022410D03*
X008840Y019654D03*
D40*
X009203Y007839D03*
X007303Y007839D03*
D41*
X006181Y003905D03*
X006181Y003118D03*
X006181Y002330D03*
X006181Y001543D03*
D42*
X006181Y001543D03*
X006181Y002330D03*
X006181Y003118D03*
D43*
X006181Y003905D03*
D44*
X006574Y003514D03*
X006854Y001994D03*
X009494Y002514D03*
X010574Y002834D03*
X010574Y002114D03*
X012054Y002994D03*
X012294Y005314D03*
X014854Y004954D03*
X012214Y007994D03*
X011974Y008434D03*
X012334Y009034D03*
X011054Y009274D03*
X010934Y008074D03*
X008974Y009754D03*
X007654Y010914D03*
X007174Y010914D03*
X006374Y010674D03*
X006374Y009754D03*
X006374Y009274D03*
X004614Y007994D03*
X005574Y006594D03*
X004254Y006434D03*
X004534Y003754D03*
X008654Y004474D03*
X008694Y004954D03*
X009134Y004354D03*
X008934Y005754D03*
X004814Y010954D03*
X005174Y011874D03*
X005654Y011834D03*
X005294Y012474D03*
X006734Y012874D03*
X007374Y012154D03*
X008094Y012074D03*
X008734Y012074D03*
X009374Y012074D03*
X010094Y013074D03*
X011294Y013754D03*
X012014Y013994D03*
X011774Y013274D03*
X012934Y013034D03*
X012934Y014034D03*
X012934Y015074D03*
X014134Y014234D03*
X014614Y014234D03*
X014614Y014714D03*
X014974Y015474D03*
X015774Y014074D03*
X016734Y013674D03*
X017534Y013954D03*
X017334Y014874D03*
X016814Y015954D03*
X018414Y016034D03*
X018694Y014234D03*
X020414Y014594D03*
X022134Y013714D03*
X022574Y013474D03*
X022174Y012674D03*
X020814Y012074D03*
X019734Y010434D03*
X020734Y009914D03*
X022374Y009874D03*
X023694Y008234D03*
X022414Y007074D03*
X023094Y006194D03*
X022774Y005714D03*
X022414Y004154D03*
X022374Y003634D03*
X023534Y003754D03*
X026734Y002554D03*
X029014Y002114D03*
X030094Y001354D03*
X028254Y007234D03*
X024854Y010034D03*
X024374Y011274D03*
X026494Y012754D03*
X026734Y011794D03*
X031294Y014874D03*
X033054Y020114D03*
X033654Y021634D03*
X025294Y022034D03*
X023974Y016634D03*
X017254Y011394D03*
X017254Y010554D03*
X016014Y011874D03*
X011654Y015394D03*
X011294Y015074D03*
X009974Y015474D03*
X009374Y014794D03*
X008054Y014354D03*
X007574Y015074D03*
X007294Y015474D03*
X006734Y015074D03*
X006734Y014354D03*
X005534Y014234D03*
X004254Y014274D03*
X004254Y015034D03*
X004254Y015514D03*
X003294Y016754D03*
X006134Y016434D03*
X006254Y017034D03*
X006854Y016674D03*
X007814Y016914D03*
X008334Y016954D03*
X006254Y018794D03*
X005094Y019394D03*
X003934Y019754D03*
X004094Y020274D03*
X003094Y020874D03*
X008054Y023514D03*
X008214Y021234D03*
X010094Y019674D03*
X011094Y020434D03*
X012574Y020634D03*
X012294Y021674D03*
X011134Y022194D03*
X010934Y022874D03*
X011014Y023434D03*
X013734Y023474D03*
X016654Y022674D03*
X016294Y020114D03*
X016894Y018554D03*
X013254Y017354D03*
X011054Y011834D03*
X003574Y011034D03*
X003294Y012674D03*
M02*
