G75*
G70*
%OFA0B0*%
%FSLAX24Y24*%
%IPPOS*%
%LPD*%
%AMOC8*
5,1,8,0,0,1.08239X$1,22.5*
%
%ADD10R,0.0197X0.0591*%
%ADD11R,0.0591X0.0197*%
%ADD12R,0.0591X0.0512*%
%ADD13R,0.0512X0.0591*%
%ADD14R,0.0472X0.0630*%
%ADD15R,0.0472X0.0472*%
%ADD16R,0.0137X0.0550*%
%ADD17R,0.0531X0.0157*%
%ADD18R,0.0197X0.0472*%
%ADD19R,0.0472X0.0197*%
%ADD20R,0.0472X0.0217*%
%ADD21R,0.0551X0.0551*%
%ADD22R,0.0551X0.0394*%
%ADD23R,0.0870X0.0240*%
%ADD24R,0.1142X0.1102*%
%ADD25R,0.1102X0.0866*%
%ADD26R,0.0630X0.0315*%
%ADD27R,0.0315X0.0630*%
%ADD28R,0.0591X0.0787*%
%ADD29R,0.0315X0.0984*%
%ADD30R,0.0315X0.0657*%
%ADD31R,0.0657X0.0315*%
%ADD32R,0.0900X0.1000*%
%ADD33R,0.0700X0.0200*%
%ADD34R,0.0394X0.0551*%
%ADD35R,0.0787X0.0197*%
%ADD36R,0.0098X0.0157*%
%ADD37R,0.0531X0.0256*%
D10*
X006828Y011498D03*
X007143Y011498D03*
X007458Y011498D03*
X007773Y011498D03*
X008088Y011498D03*
X008403Y011498D03*
X008718Y011498D03*
X009033Y011498D03*
X009348Y011498D03*
X009663Y011498D03*
X009978Y011498D03*
X009978Y016065D03*
X009663Y016065D03*
X009348Y016065D03*
X009033Y016065D03*
X008718Y016065D03*
X008403Y016065D03*
X008088Y016065D03*
X007773Y016065D03*
X007458Y016065D03*
X007143Y016065D03*
X006828Y016065D03*
D11*
X006120Y015356D03*
X006120Y015041D03*
X006120Y014726D03*
X006120Y014411D03*
X006120Y014096D03*
X006120Y013781D03*
X006120Y013466D03*
X006120Y013151D03*
X006120Y012836D03*
X006120Y012521D03*
X006120Y012206D03*
X010687Y012206D03*
X010687Y012521D03*
X010687Y012836D03*
X010687Y013151D03*
X010687Y013466D03*
X010687Y013781D03*
X010687Y014096D03*
X010687Y014411D03*
X010687Y014726D03*
X010687Y015041D03*
X010687Y015356D03*
D12*
X013532Y014791D03*
X013532Y014043D03*
X013533Y013019D03*
X013533Y012271D03*
X017900Y016500D03*
X017900Y017248D03*
X019200Y017253D03*
X019200Y016505D03*
X020621Y016503D03*
X020621Y017251D03*
X021961Y017248D03*
X021961Y016500D03*
X021508Y015484D03*
X021508Y014736D03*
X021490Y013870D03*
X021490Y013122D03*
X020249Y011734D03*
X020249Y010986D03*
X023790Y011254D03*
X023790Y012002D03*
X025634Y013771D03*
X025634Y014520D03*
X025633Y015445D03*
X025633Y016193D03*
X023361Y016520D03*
X023361Y017268D03*
X025289Y020744D03*
X025289Y021492D03*
X028571Y017286D03*
X028571Y016538D03*
X030019Y016494D03*
X030019Y017242D03*
X030022Y015549D03*
X030022Y014801D03*
X031425Y014099D03*
X031425Y013351D03*
X032403Y013371D03*
X032403Y014119D03*
X028655Y009023D03*
X028655Y008275D03*
X027112Y007101D03*
X027112Y006353D03*
X024818Y003633D03*
X024818Y002884D03*
X021735Y002859D03*
X021735Y003607D03*
X020326Y003634D03*
X020326Y002886D03*
X005734Y010533D03*
X005734Y011281D03*
X004204Y011271D03*
X004204Y010523D03*
X004636Y009529D03*
X004636Y008781D03*
X004604Y012361D03*
X004604Y013109D03*
X004839Y014302D03*
X004839Y015050D03*
X001726Y018939D03*
X001726Y019687D03*
X005443Y020950D03*
X005443Y021699D03*
X006376Y021728D03*
X006376Y020980D03*
X006379Y022741D03*
X006379Y023489D03*
X005394Y023529D03*
X005394Y022781D03*
X011648Y020811D03*
X011648Y020063D03*
X011600Y019128D03*
X011600Y018380D03*
X011705Y021835D03*
X011705Y022583D03*
X011700Y023518D03*
X011700Y024266D03*
X033635Y021079D03*
X033635Y020331D03*
D13*
X027003Y017192D03*
X026255Y017192D03*
X027229Y014318D03*
X027977Y014318D03*
X028021Y011779D03*
X027273Y011779D03*
X023889Y013416D03*
X023141Y013416D03*
X019371Y009160D03*
X018623Y009160D03*
X018445Y006729D03*
X019193Y006729D03*
X026263Y004985D03*
X027011Y004985D03*
X027135Y003144D03*
X026387Y003144D03*
X026356Y001573D03*
X027104Y001573D03*
X028443Y001327D03*
X029191Y001327D03*
X030646Y002226D03*
X031394Y002226D03*
X029274Y002904D03*
X028526Y002904D03*
X017139Y013095D03*
X016391Y013095D03*
X015339Y013108D03*
X014591Y013108D03*
X014568Y016292D03*
X013820Y016292D03*
X012426Y016200D03*
X011678Y016200D03*
X007434Y017550D03*
X006686Y017550D03*
X005680Y017523D03*
X004932Y017523D03*
X005442Y019964D03*
X006190Y019964D03*
X002523Y020727D03*
X001775Y020727D03*
X009258Y004945D03*
X010006Y004945D03*
X010036Y003267D03*
X009288Y003267D03*
X008229Y003292D03*
X007481Y003292D03*
X005251Y003102D03*
X004503Y003102D03*
D14*
X011538Y017336D03*
X012720Y017336D03*
X027840Y004615D03*
X029021Y004615D03*
D15*
X004427Y001953D03*
X005253Y001953D03*
X007379Y001995D03*
X008205Y001995D03*
X009209Y001991D03*
X010036Y001991D03*
X003725Y008761D03*
X003725Y009588D03*
X003774Y012261D03*
X003774Y013088D03*
X003767Y016331D03*
X003767Y017157D03*
X030612Y001311D03*
X031439Y001311D03*
X034998Y020245D03*
X034998Y021072D03*
D16*
X023601Y007656D03*
X023345Y007656D03*
X023089Y007656D03*
X022833Y007656D03*
X022577Y007656D03*
X022321Y007656D03*
X022065Y007656D03*
X021809Y007656D03*
X021553Y007656D03*
X021297Y007656D03*
X021041Y007656D03*
X020786Y007656D03*
X020530Y007656D03*
X020274Y007656D03*
X020274Y004777D03*
X020530Y004777D03*
X020786Y004777D03*
X021041Y004777D03*
X021297Y004777D03*
X021553Y004777D03*
X021809Y004777D03*
X022065Y004777D03*
X022321Y004777D03*
X022577Y004777D03*
X022833Y004777D03*
X023089Y004777D03*
X023345Y004777D03*
X023601Y004777D03*
D17*
X004518Y019172D03*
X004518Y019428D03*
X004518Y019684D03*
X004518Y019940D03*
X002826Y019940D03*
X002826Y019684D03*
X002826Y019428D03*
X002826Y019172D03*
D18*
X017651Y011418D03*
X017966Y011418D03*
X018281Y011418D03*
X018596Y011418D03*
X018911Y011418D03*
X019226Y011418D03*
X019226Y010552D03*
X018911Y010552D03*
X018596Y010552D03*
X018281Y010552D03*
X017966Y010552D03*
X017651Y010552D03*
D19*
X017612Y010985D03*
X019266Y010985D03*
D20*
X027044Y012761D03*
X027044Y013509D03*
X028068Y013509D03*
X028068Y013135D03*
X028068Y012761D03*
D21*
X029679Y009495D03*
X029679Y007999D03*
X033705Y017446D03*
X033705Y018942D03*
D22*
X028714Y006817D03*
X028714Y006069D03*
X029581Y006443D03*
X023822Y003237D03*
X022955Y002863D03*
X022955Y003611D03*
D23*
X022496Y014140D03*
X022496Y014640D03*
X022496Y015140D03*
X022496Y015640D03*
X024556Y015640D03*
X024556Y015140D03*
X024556Y014640D03*
X024556Y014140D03*
D24*
X015095Y017429D03*
X013244Y019043D03*
X009194Y017489D03*
X007344Y019103D03*
D25*
X010297Y022017D03*
X007383Y022804D03*
X013284Y022744D03*
X016197Y021957D03*
D26*
X016619Y007690D03*
X016619Y007217D03*
X016619Y006745D03*
X016619Y006272D03*
X016619Y005800D03*
X016619Y005327D03*
X016619Y004855D03*
X016619Y004383D03*
X016619Y003910D03*
X016619Y003438D03*
X016619Y002965D03*
X016619Y002493D03*
X011422Y002493D03*
X011422Y002965D03*
X011422Y003438D03*
X011422Y003910D03*
X011422Y004383D03*
X011422Y004855D03*
X011422Y005327D03*
X011422Y005800D03*
X011422Y006272D03*
X011422Y006745D03*
X011422Y007217D03*
X011422Y007690D03*
D27*
X014651Y008792D03*
X015281Y008792D03*
X015910Y008792D03*
X015644Y001390D03*
X015241Y001390D03*
X014769Y001390D03*
X014296Y001390D03*
X013745Y001390D03*
X013273Y001390D03*
X012800Y001390D03*
X012398Y001390D03*
D28*
X008384Y009402D03*
X008672Y010512D03*
X009853Y010512D03*
X007203Y009402D03*
D29*
X022191Y009064D03*
D30*
X022191Y010527D03*
D31*
X023004Y010214D03*
X023004Y009714D03*
X023004Y009214D03*
X021378Y009214D03*
X021378Y009714D03*
X021378Y010214D03*
D32*
X035576Y015760D03*
D33*
X031276Y015760D03*
X031276Y016260D03*
X031276Y015260D03*
D34*
X019913Y014598D03*
X019165Y014598D03*
X018187Y014596D03*
X018561Y015463D03*
X017813Y015463D03*
X017197Y015437D03*
X016449Y015437D03*
X015476Y015508D03*
X015102Y014642D03*
X015850Y014642D03*
X016823Y014571D03*
X019539Y015464D03*
D35*
X008009Y006200D03*
X008009Y005700D03*
X008009Y005200D03*
X008009Y004700D03*
X005352Y004700D03*
X005352Y005192D03*
X005352Y005700D03*
X005352Y006200D03*
D36*
X025219Y010051D03*
X025485Y010042D03*
X025751Y010051D03*
X025751Y010760D03*
X025485Y010760D03*
X025219Y010760D03*
D37*
X025485Y010406D03*
M02*
