G75*
G70*
%OFA0B0*%
%FSLAX24Y24*%
%IPPOS*%
%LPD*%
%AMOC8*
5,1,8,0,0,1.08239X$1,22.5*
%
%ADD10C,0.0740*%
%ADD11C,0.0768*%
%ADD12C,0.0160*%
%ADD13C,0.0436*%
D10*
X008409Y008610D03*
X008409Y009610D03*
X008409Y010610D03*
D11*
X006883Y002983D03*
X005283Y002983D03*
D12*
X006386Y002761D02*
X002881Y002761D01*
X002977Y002665D02*
X002665Y002977D01*
X002281Y003198D01*
X001854Y003313D01*
X001412Y003313D01*
X000985Y003198D01*
X000863Y003128D01*
X000863Y007756D01*
X000999Y007521D01*
X001321Y007199D01*
X001715Y006971D01*
X002155Y006853D01*
X002611Y006853D01*
X003051Y006971D01*
X003445Y007199D01*
X003767Y007521D01*
X003983Y007894D01*
X004199Y007521D01*
X004521Y007199D01*
X004915Y006971D01*
X005355Y006853D01*
X005811Y006853D01*
X006251Y006971D01*
X006645Y007199D01*
X006967Y007521D01*
X007195Y007915D01*
X007313Y008355D01*
X007313Y008811D01*
X007195Y009251D01*
X006967Y009645D01*
X006645Y009967D01*
X006251Y010195D01*
X005811Y010313D01*
X005355Y010313D01*
X004915Y010195D01*
X004521Y009967D01*
X004199Y009645D01*
X003983Y009272D01*
X003767Y009645D01*
X003445Y009967D01*
X003311Y010045D01*
X003388Y010077D01*
X003664Y010353D01*
X003813Y010713D01*
X003813Y011103D01*
X003664Y011463D01*
X003624Y011503D01*
X009238Y011503D01*
X009167Y011381D01*
X009053Y010954D01*
X009053Y010512D01*
X009167Y010085D01*
X009389Y009701D01*
X009701Y009389D01*
X010085Y009167D01*
X010512Y009053D01*
X010954Y009053D01*
X011381Y009167D01*
X011503Y009238D01*
X011503Y000863D01*
X010124Y000863D01*
X010364Y001103D01*
X010513Y001463D01*
X010513Y001853D01*
X010364Y002213D01*
X010088Y002489D01*
X009728Y002638D01*
X009338Y002638D01*
X008978Y002489D01*
X008702Y002213D01*
X008553Y001853D01*
X008553Y001463D01*
X008702Y001103D01*
X008942Y000863D01*
X003128Y000863D01*
X003198Y000985D01*
X003313Y001412D01*
X003313Y001854D01*
X003198Y002281D01*
X002977Y002665D01*
X003013Y002603D02*
X006494Y002603D01*
X006422Y002675D02*
X006575Y002522D01*
X006775Y002439D01*
X006991Y002439D01*
X007191Y002522D01*
X007344Y002675D01*
X007427Y002875D01*
X007427Y003091D01*
X007344Y003291D01*
X007191Y003444D01*
X006991Y003527D01*
X006775Y003527D01*
X006575Y003444D01*
X006422Y003291D01*
X006339Y003091D01*
X006339Y002875D01*
X006422Y002675D01*
X006339Y002920D02*
X002722Y002920D01*
X002490Y003078D02*
X006339Y003078D01*
X006399Y003237D02*
X002138Y003237D01*
X001128Y003237D02*
X000863Y003237D01*
X000863Y003395D02*
X006526Y003395D01*
X007240Y003395D02*
X011503Y003395D01*
X011503Y003237D02*
X007366Y003237D01*
X007427Y003078D02*
X011503Y003078D01*
X011503Y002920D02*
X007427Y002920D01*
X007380Y002761D02*
X011503Y002761D01*
X011503Y002603D02*
X009813Y002603D01*
X010133Y002444D02*
X011503Y002444D01*
X011503Y002286D02*
X010291Y002286D01*
X010399Y002127D02*
X011503Y002127D01*
X011503Y001968D02*
X010465Y001968D01*
X010513Y001810D02*
X011503Y001810D01*
X011503Y001651D02*
X010513Y001651D01*
X010513Y001493D02*
X011503Y001493D01*
X011503Y001334D02*
X010460Y001334D01*
X010394Y001176D02*
X011503Y001176D01*
X011503Y001017D02*
X010278Y001017D01*
X008933Y002444D02*
X007003Y002444D01*
X006763Y002444D02*
X003105Y002444D01*
X003196Y002286D02*
X008775Y002286D01*
X008666Y002127D02*
X003240Y002127D01*
X003282Y001968D02*
X008601Y001968D01*
X008553Y001810D02*
X003313Y001810D01*
X003313Y001651D02*
X008553Y001651D01*
X008553Y001493D02*
X003313Y001493D01*
X003292Y001334D02*
X008606Y001334D01*
X008672Y001176D02*
X003250Y001176D01*
X003207Y001017D02*
X008788Y001017D01*
X009253Y002603D02*
X007272Y002603D01*
X011503Y003554D02*
X000863Y003554D01*
X000863Y003712D02*
X011503Y003712D01*
X011503Y003871D02*
X000863Y003871D01*
X000863Y004029D02*
X011503Y004029D01*
X011503Y004188D02*
X000863Y004188D01*
X000863Y004347D02*
X011503Y004347D01*
X011503Y004505D02*
X000863Y004505D01*
X000863Y004664D02*
X011503Y004664D01*
X011503Y004822D02*
X000863Y004822D01*
X000863Y004981D02*
X011503Y004981D01*
X011503Y005139D02*
X000863Y005139D01*
X000863Y005298D02*
X011503Y005298D01*
X011503Y005456D02*
X000863Y005456D01*
X000863Y005615D02*
X011503Y005615D01*
X011503Y005773D02*
X000863Y005773D01*
X000863Y005932D02*
X011503Y005932D01*
X011503Y006091D02*
X000863Y006091D01*
X000863Y006249D02*
X011503Y006249D01*
X011503Y006408D02*
X000863Y006408D01*
X000863Y006566D02*
X011503Y006566D01*
X011503Y006725D02*
X000863Y006725D01*
X000863Y006883D02*
X002042Y006883D01*
X001592Y007042D02*
X000863Y007042D01*
X000863Y007200D02*
X001319Y007200D01*
X001160Y007359D02*
X000863Y007359D01*
X000863Y007517D02*
X001002Y007517D01*
X000909Y007676D02*
X000863Y007676D01*
X002724Y006883D02*
X005242Y006883D01*
X004792Y007042D02*
X003174Y007042D01*
X003447Y007200D02*
X004519Y007200D01*
X004360Y007359D02*
X003605Y007359D01*
X003764Y007517D02*
X004202Y007517D01*
X004109Y007676D02*
X003857Y007676D01*
X003948Y007835D02*
X004017Y007835D01*
X004069Y009420D02*
X003897Y009420D01*
X003806Y009579D02*
X004160Y009579D01*
X004290Y009737D02*
X003675Y009737D01*
X003517Y009896D02*
X004449Y009896D01*
X004671Y010054D02*
X003332Y010054D01*
X003524Y010213D02*
X004981Y010213D01*
X006185Y010213D02*
X008028Y010213D01*
X008051Y010190D02*
X007989Y010251D01*
X007939Y010321D01*
X007899Y010399D01*
X007873Y010481D01*
X007859Y010566D01*
X007859Y010590D01*
X008389Y010590D01*
X008389Y010630D01*
X008389Y011160D01*
X008366Y011160D01*
X008280Y011146D01*
X008198Y011119D01*
X008121Y011080D01*
X008051Y011029D01*
X007989Y010968D01*
X007939Y010898D01*
X007899Y010821D01*
X007873Y010739D01*
X007859Y010653D01*
X007859Y010630D01*
X008389Y010630D01*
X008429Y010630D01*
X008429Y011160D01*
X008452Y011160D01*
X008538Y011146D01*
X008620Y011119D01*
X008697Y011080D01*
X008767Y011029D01*
X008828Y010968D01*
X008879Y010898D01*
X008919Y010821D01*
X008945Y010739D01*
X008959Y010653D01*
X008959Y010630D01*
X008429Y010630D01*
X008429Y010590D01*
X008959Y010590D01*
X008959Y010566D01*
X008945Y010481D01*
X008919Y010399D01*
X008879Y010321D01*
X008828Y010251D01*
X008767Y010190D01*
X008697Y010139D01*
X008620Y010100D01*
X008614Y010098D01*
X008709Y010059D01*
X008858Y009910D01*
X008939Y009715D01*
X008939Y009504D01*
X008858Y009310D01*
X008709Y009160D01*
X008587Y009110D01*
X008709Y009059D01*
X008858Y008910D01*
X008939Y008715D01*
X008939Y008504D01*
X008858Y008310D01*
X008859Y008310D02*
X011503Y008310D01*
X011503Y008152D02*
X008688Y008152D01*
X008709Y008160D02*
X008858Y008310D01*
X008709Y008160D02*
X008514Y008080D01*
X008304Y008080D01*
X008109Y008160D01*
X007960Y008310D01*
X007879Y008504D01*
X007879Y008715D01*
X007960Y008910D01*
X008109Y009059D01*
X008231Y009110D01*
X008109Y009160D01*
X007960Y009310D01*
X007879Y009504D01*
X007879Y009715D01*
X007960Y009910D01*
X008109Y010059D01*
X008203Y010098D01*
X008198Y010100D01*
X008121Y010139D01*
X008051Y010190D01*
X008104Y010054D02*
X006495Y010054D01*
X006717Y009896D02*
X007954Y009896D01*
X007888Y009737D02*
X006875Y009737D01*
X007006Y009579D02*
X007879Y009579D01*
X007914Y009420D02*
X007097Y009420D01*
X007189Y009261D02*
X008008Y009261D01*
X008215Y009103D02*
X007235Y009103D01*
X007277Y008944D02*
X007994Y008944D01*
X007908Y008786D02*
X007313Y008786D01*
X007313Y008627D02*
X007879Y008627D01*
X007894Y008469D02*
X007313Y008469D01*
X007301Y008310D02*
X007959Y008310D01*
X008130Y008152D02*
X007258Y008152D01*
X007216Y007993D02*
X011503Y007993D01*
X011503Y007835D02*
X007148Y007835D01*
X007057Y007676D02*
X011503Y007676D01*
X011503Y007517D02*
X006964Y007517D01*
X006805Y007359D02*
X011503Y007359D01*
X011503Y007200D02*
X006647Y007200D01*
X006374Y007042D02*
X011503Y007042D01*
X011503Y006883D02*
X005924Y006883D01*
X008603Y009103D02*
X010326Y009103D01*
X009922Y009261D02*
X008810Y009261D01*
X008904Y009420D02*
X009670Y009420D01*
X009512Y009579D02*
X008939Y009579D01*
X008930Y009737D02*
X009368Y009737D01*
X009277Y009896D02*
X008864Y009896D01*
X008714Y010054D02*
X009185Y010054D01*
X009133Y010213D02*
X008790Y010213D01*
X008905Y010371D02*
X009091Y010371D01*
X009053Y010530D02*
X008953Y010530D01*
X008953Y010688D02*
X009053Y010688D01*
X009053Y010847D02*
X008905Y010847D01*
X008791Y011005D02*
X009067Y011005D01*
X009109Y011164D02*
X003788Y011164D01*
X003722Y011322D02*
X009152Y011322D01*
X009225Y011481D02*
X003646Y011481D01*
X003813Y011005D02*
X008027Y011005D01*
X007913Y010847D02*
X003813Y010847D01*
X003803Y010688D02*
X007865Y010688D01*
X007865Y010530D02*
X003737Y010530D01*
X003671Y010371D02*
X007913Y010371D01*
X008389Y010688D02*
X008429Y010688D01*
X008429Y010847D02*
X008389Y010847D01*
X008389Y011005D02*
X008429Y011005D01*
X008824Y008944D02*
X011503Y008944D01*
X011503Y008786D02*
X008910Y008786D01*
X008939Y008627D02*
X011503Y008627D01*
X011503Y008469D02*
X008924Y008469D01*
X011140Y009103D02*
X011503Y009103D01*
D13*
X009251Y006156D03*
M02*
