G75*
G70*
%OFA0B0*%
%FSLAX24Y24*%
%IPPOS*%
%LPD*%
%AMOC8*
5,1,8,0,0,1.08239X$1,22.5*
%
%ADD10C,0.1064*%
%ADD11C,0.1830*%
%ADD12C,0.0955*%
%ADD13R,0.0592X0.0671*%
%ADD14R,0.0789X0.1340*%
%ADD15C,0.0671*%
%ADD16C,0.0437*%
%ADD17C,0.0476*%
D10*
X009433Y001494D03*
X002544Y010746D03*
D11*
X001331Y003759D03*
X001331Y005709D03*
D12*
X009981Y003816D03*
X009981Y002766D03*
X011081Y002766D03*
X011081Y003816D03*
D13*
X010355Y005212D03*
X009607Y005212D03*
X009607Y006712D03*
X010355Y006712D03*
X008055Y006712D03*
X007307Y006712D03*
X007307Y007512D03*
X008055Y007512D03*
X008055Y008612D03*
X007307Y008612D03*
X007307Y009412D03*
X008055Y009412D03*
X006455Y009412D03*
X005707Y009412D03*
X005707Y008612D03*
X006455Y008612D03*
X006455Y007512D03*
X005707Y007512D03*
X005707Y006712D03*
X006455Y006712D03*
X006455Y005612D03*
X005707Y005612D03*
X005707Y004812D03*
X006455Y004812D03*
X007307Y004812D03*
X008055Y004812D03*
X008055Y005612D03*
X007307Y005612D03*
X007307Y003712D03*
X008055Y003712D03*
X008055Y002912D03*
X007307Y002912D03*
X006455Y002912D03*
X005707Y002912D03*
X005707Y003712D03*
X006455Y003712D03*
D14*
X005779Y001412D03*
X007984Y001412D03*
D15*
X009031Y002766D03*
X009031Y003816D03*
X002181Y007312D03*
X001381Y007312D03*
X000581Y007312D03*
D16*
X002531Y005962D03*
X003681Y006178D03*
X004531Y006112D03*
X004931Y006362D03*
X003731Y004362D03*
X004181Y004322D03*
X008581Y008062D03*
D17*
X008081Y008612D03*
X005681Y006712D03*
X004881Y008062D03*
X004031Y008062D03*
X002981Y008112D03*
X002831Y004312D03*
X005681Y003712D03*
X007281Y001412D03*
X007981Y001312D03*
X008081Y004812D03*
M02*
