G75*
G70*
%OFA0B0*%
%FSLAX24Y24*%
%IPPOS*%
%LPD*%
%AMOC8*
5,1,8,0,0,1.08239X$1,22.5*
%
%ADD10C,0.0000*%
%ADD11R,0.0217X0.0472*%
%ADD12R,0.0394X0.0551*%
%ADD13R,0.0512X0.0591*%
%ADD14R,0.0591X0.0512*%
%ADD15C,0.0160*%
%ADD16C,0.0591*%
%ADD17C,0.0357*%
%ADD18C,0.0396*%
D10*
X002544Y000312D02*
X002544Y002675D01*
X000181Y002675D01*
X000181Y011533D01*
X000183Y011572D01*
X000189Y011610D01*
X000198Y011647D01*
X000211Y011684D01*
X000228Y011719D01*
X000247Y011752D01*
X000270Y011783D01*
X000296Y011812D01*
X000325Y011838D01*
X000356Y011861D01*
X000389Y011880D01*
X000424Y011897D01*
X000461Y011910D01*
X000498Y011919D01*
X000536Y011925D01*
X000575Y011927D01*
X009433Y011927D01*
X009433Y009564D01*
X011796Y009564D01*
X011796Y000706D01*
X011794Y000667D01*
X011788Y000629D01*
X011779Y000592D01*
X011766Y000555D01*
X011749Y000520D01*
X011730Y000487D01*
X011707Y000456D01*
X011681Y000427D01*
X011652Y000401D01*
X011621Y000378D01*
X011588Y000359D01*
X011553Y000342D01*
X011516Y000329D01*
X011479Y000320D01*
X011441Y000314D01*
X011402Y000312D01*
X002544Y000312D01*
X000456Y003759D02*
X000458Y003818D01*
X000464Y003877D01*
X000474Y003935D01*
X000488Y003993D01*
X000505Y004049D01*
X000527Y004104D01*
X000552Y004158D01*
X000581Y004209D01*
X000613Y004259D01*
X000648Y004306D01*
X000687Y004351D01*
X000728Y004393D01*
X000772Y004432D01*
X000819Y004469D01*
X000868Y004502D01*
X000919Y004531D01*
X000972Y004557D01*
X001027Y004580D01*
X001083Y004598D01*
X001140Y004613D01*
X001199Y004624D01*
X001257Y004631D01*
X001316Y004634D01*
X001375Y004633D01*
X001434Y004628D01*
X001493Y004619D01*
X001550Y004606D01*
X001607Y004589D01*
X001662Y004569D01*
X001716Y004545D01*
X001768Y004517D01*
X001819Y004486D01*
X001867Y004451D01*
X001912Y004413D01*
X001955Y004372D01*
X001995Y004329D01*
X002032Y004283D01*
X002066Y004234D01*
X002096Y004184D01*
X002123Y004131D01*
X002146Y004077D01*
X002166Y004021D01*
X002182Y003964D01*
X002194Y003906D01*
X002202Y003848D01*
X002206Y003789D01*
X002206Y003729D01*
X002202Y003670D01*
X002194Y003612D01*
X002182Y003554D01*
X002166Y003497D01*
X002146Y003441D01*
X002123Y003387D01*
X002096Y003334D01*
X002066Y003284D01*
X002032Y003235D01*
X001995Y003189D01*
X001955Y003146D01*
X001912Y003105D01*
X001867Y003067D01*
X001819Y003032D01*
X001769Y003001D01*
X001716Y002973D01*
X001662Y002949D01*
X001607Y002929D01*
X001550Y002912D01*
X001493Y002899D01*
X001434Y002890D01*
X001375Y002885D01*
X001316Y002884D01*
X001257Y002887D01*
X001199Y002894D01*
X001140Y002905D01*
X001083Y002920D01*
X001027Y002938D01*
X000972Y002961D01*
X000919Y002987D01*
X000868Y003016D01*
X000819Y003049D01*
X000772Y003086D01*
X000728Y003125D01*
X000687Y003167D01*
X000648Y003212D01*
X000613Y003259D01*
X000581Y003309D01*
X000552Y003360D01*
X000527Y003414D01*
X000505Y003469D01*
X000488Y003525D01*
X000474Y003583D01*
X000464Y003641D01*
X000458Y003700D01*
X000456Y003759D01*
X000456Y005709D02*
X000458Y005768D01*
X000464Y005827D01*
X000474Y005885D01*
X000488Y005943D01*
X000505Y005999D01*
X000527Y006054D01*
X000552Y006108D01*
X000581Y006159D01*
X000613Y006209D01*
X000648Y006256D01*
X000687Y006301D01*
X000728Y006343D01*
X000772Y006382D01*
X000819Y006419D01*
X000868Y006452D01*
X000919Y006481D01*
X000972Y006507D01*
X001027Y006530D01*
X001083Y006548D01*
X001140Y006563D01*
X001199Y006574D01*
X001257Y006581D01*
X001316Y006584D01*
X001375Y006583D01*
X001434Y006578D01*
X001493Y006569D01*
X001550Y006556D01*
X001607Y006539D01*
X001662Y006519D01*
X001716Y006495D01*
X001768Y006467D01*
X001819Y006436D01*
X001867Y006401D01*
X001912Y006363D01*
X001955Y006322D01*
X001995Y006279D01*
X002032Y006233D01*
X002066Y006184D01*
X002096Y006134D01*
X002123Y006081D01*
X002146Y006027D01*
X002166Y005971D01*
X002182Y005914D01*
X002194Y005856D01*
X002202Y005798D01*
X002206Y005739D01*
X002206Y005679D01*
X002202Y005620D01*
X002194Y005562D01*
X002182Y005504D01*
X002166Y005447D01*
X002146Y005391D01*
X002123Y005337D01*
X002096Y005284D01*
X002066Y005234D01*
X002032Y005185D01*
X001995Y005139D01*
X001955Y005096D01*
X001912Y005055D01*
X001867Y005017D01*
X001819Y004982D01*
X001769Y004951D01*
X001716Y004923D01*
X001662Y004899D01*
X001607Y004879D01*
X001550Y004862D01*
X001493Y004849D01*
X001434Y004840D01*
X001375Y004835D01*
X001316Y004834D01*
X001257Y004837D01*
X001199Y004844D01*
X001140Y004855D01*
X001083Y004870D01*
X001027Y004888D01*
X000972Y004911D01*
X000919Y004937D01*
X000868Y004966D01*
X000819Y004999D01*
X000772Y005036D01*
X000728Y005075D01*
X000687Y005117D01*
X000648Y005162D01*
X000613Y005209D01*
X000581Y005259D01*
X000552Y005310D01*
X000527Y005364D01*
X000505Y005419D01*
X000488Y005475D01*
X000474Y005533D01*
X000464Y005591D01*
X000458Y005650D01*
X000456Y005709D01*
X002052Y010746D02*
X002054Y010790D01*
X002060Y010834D01*
X002070Y010877D01*
X002083Y010919D01*
X002101Y010959D01*
X002122Y010998D01*
X002146Y011035D01*
X002173Y011070D01*
X002204Y011102D01*
X002237Y011131D01*
X002273Y011157D01*
X002311Y011179D01*
X002351Y011198D01*
X002392Y011214D01*
X002435Y011226D01*
X002478Y011234D01*
X002522Y011238D01*
X002566Y011238D01*
X002610Y011234D01*
X002653Y011226D01*
X002696Y011214D01*
X002737Y011198D01*
X002777Y011179D01*
X002815Y011157D01*
X002851Y011131D01*
X002884Y011102D01*
X002915Y011070D01*
X002942Y011035D01*
X002966Y010998D01*
X002987Y010959D01*
X003005Y010919D01*
X003018Y010877D01*
X003028Y010834D01*
X003034Y010790D01*
X003036Y010746D01*
X003034Y010702D01*
X003028Y010658D01*
X003018Y010615D01*
X003005Y010573D01*
X002987Y010533D01*
X002966Y010494D01*
X002942Y010457D01*
X002915Y010422D01*
X002884Y010390D01*
X002851Y010361D01*
X002815Y010335D01*
X002777Y010313D01*
X002737Y010294D01*
X002696Y010278D01*
X002653Y010266D01*
X002610Y010258D01*
X002566Y010254D01*
X002522Y010254D01*
X002478Y010258D01*
X002435Y010266D01*
X002392Y010278D01*
X002351Y010294D01*
X002311Y010313D01*
X002273Y010335D01*
X002237Y010361D01*
X002204Y010390D01*
X002173Y010422D01*
X002146Y010457D01*
X002122Y010494D01*
X002101Y010533D01*
X002083Y010573D01*
X002070Y010615D01*
X002060Y010658D01*
X002054Y010702D01*
X002052Y010746D01*
X009544Y003816D02*
X009546Y003858D01*
X009552Y003899D01*
X009562Y003939D01*
X009575Y003978D01*
X009593Y004016D01*
X009613Y004052D01*
X009637Y004086D01*
X009665Y004118D01*
X009695Y004146D01*
X009728Y004172D01*
X009762Y004194D01*
X009799Y004214D01*
X009838Y004229D01*
X009878Y004241D01*
X009919Y004249D01*
X009960Y004253D01*
X010002Y004253D01*
X010043Y004249D01*
X010084Y004241D01*
X010124Y004229D01*
X010163Y004214D01*
X010199Y004194D01*
X010234Y004172D01*
X010267Y004146D01*
X010297Y004118D01*
X010325Y004086D01*
X010349Y004052D01*
X010369Y004016D01*
X010387Y003978D01*
X010400Y003939D01*
X010410Y003899D01*
X010416Y003858D01*
X010418Y003816D01*
X010416Y003774D01*
X010410Y003733D01*
X010400Y003693D01*
X010387Y003654D01*
X010369Y003616D01*
X010349Y003580D01*
X010325Y003546D01*
X010297Y003514D01*
X010267Y003486D01*
X010234Y003460D01*
X010200Y003438D01*
X010163Y003418D01*
X010124Y003403D01*
X010084Y003391D01*
X010043Y003383D01*
X010002Y003379D01*
X009960Y003379D01*
X009919Y003383D01*
X009878Y003391D01*
X009838Y003403D01*
X009799Y003418D01*
X009763Y003438D01*
X009728Y003460D01*
X009695Y003486D01*
X009665Y003514D01*
X009637Y003546D01*
X009613Y003580D01*
X009593Y003616D01*
X009575Y003654D01*
X009562Y003693D01*
X009552Y003733D01*
X009546Y003774D01*
X009544Y003816D01*
X009544Y002766D02*
X009546Y002808D01*
X009552Y002849D01*
X009562Y002889D01*
X009575Y002928D01*
X009593Y002966D01*
X009613Y003002D01*
X009637Y003036D01*
X009665Y003068D01*
X009695Y003096D01*
X009728Y003122D01*
X009762Y003144D01*
X009799Y003164D01*
X009838Y003179D01*
X009878Y003191D01*
X009919Y003199D01*
X009960Y003203D01*
X010002Y003203D01*
X010043Y003199D01*
X010084Y003191D01*
X010124Y003179D01*
X010163Y003164D01*
X010199Y003144D01*
X010234Y003122D01*
X010267Y003096D01*
X010297Y003068D01*
X010325Y003036D01*
X010349Y003002D01*
X010369Y002966D01*
X010387Y002928D01*
X010400Y002889D01*
X010410Y002849D01*
X010416Y002808D01*
X010418Y002766D01*
X010416Y002724D01*
X010410Y002683D01*
X010400Y002643D01*
X010387Y002604D01*
X010369Y002566D01*
X010349Y002530D01*
X010325Y002496D01*
X010297Y002464D01*
X010267Y002436D01*
X010234Y002410D01*
X010200Y002388D01*
X010163Y002368D01*
X010124Y002353D01*
X010084Y002341D01*
X010043Y002333D01*
X010002Y002329D01*
X009960Y002329D01*
X009919Y002333D01*
X009878Y002341D01*
X009838Y002353D01*
X009799Y002368D01*
X009763Y002388D01*
X009728Y002410D01*
X009695Y002436D01*
X009665Y002464D01*
X009637Y002496D01*
X009613Y002530D01*
X009593Y002566D01*
X009575Y002604D01*
X009562Y002643D01*
X009552Y002683D01*
X009546Y002724D01*
X009544Y002766D01*
X008941Y001494D02*
X008943Y001538D01*
X008949Y001582D01*
X008959Y001625D01*
X008972Y001667D01*
X008990Y001707D01*
X009011Y001746D01*
X009035Y001783D01*
X009062Y001818D01*
X009093Y001850D01*
X009126Y001879D01*
X009162Y001905D01*
X009200Y001927D01*
X009240Y001946D01*
X009281Y001962D01*
X009324Y001974D01*
X009367Y001982D01*
X009411Y001986D01*
X009455Y001986D01*
X009499Y001982D01*
X009542Y001974D01*
X009585Y001962D01*
X009626Y001946D01*
X009666Y001927D01*
X009704Y001905D01*
X009740Y001879D01*
X009773Y001850D01*
X009804Y001818D01*
X009831Y001783D01*
X009855Y001746D01*
X009876Y001707D01*
X009894Y001667D01*
X009907Y001625D01*
X009917Y001582D01*
X009923Y001538D01*
X009925Y001494D01*
X009923Y001450D01*
X009917Y001406D01*
X009907Y001363D01*
X009894Y001321D01*
X009876Y001281D01*
X009855Y001242D01*
X009831Y001205D01*
X009804Y001170D01*
X009773Y001138D01*
X009740Y001109D01*
X009704Y001083D01*
X009666Y001061D01*
X009626Y001042D01*
X009585Y001026D01*
X009542Y001014D01*
X009499Y001006D01*
X009455Y001002D01*
X009411Y001002D01*
X009367Y001006D01*
X009324Y001014D01*
X009281Y001026D01*
X009240Y001042D01*
X009200Y001061D01*
X009162Y001083D01*
X009126Y001109D01*
X009093Y001138D01*
X009062Y001170D01*
X009035Y001205D01*
X009011Y001242D01*
X008990Y001281D01*
X008972Y001321D01*
X008959Y001363D01*
X008949Y001406D01*
X008943Y001450D01*
X008941Y001494D01*
X010644Y002766D02*
X010646Y002808D01*
X010652Y002849D01*
X010662Y002889D01*
X010675Y002928D01*
X010693Y002966D01*
X010713Y003002D01*
X010737Y003036D01*
X010765Y003068D01*
X010795Y003096D01*
X010828Y003122D01*
X010862Y003144D01*
X010899Y003164D01*
X010938Y003179D01*
X010978Y003191D01*
X011019Y003199D01*
X011060Y003203D01*
X011102Y003203D01*
X011143Y003199D01*
X011184Y003191D01*
X011224Y003179D01*
X011263Y003164D01*
X011299Y003144D01*
X011334Y003122D01*
X011367Y003096D01*
X011397Y003068D01*
X011425Y003036D01*
X011449Y003002D01*
X011469Y002966D01*
X011487Y002928D01*
X011500Y002889D01*
X011510Y002849D01*
X011516Y002808D01*
X011518Y002766D01*
X011516Y002724D01*
X011510Y002683D01*
X011500Y002643D01*
X011487Y002604D01*
X011469Y002566D01*
X011449Y002530D01*
X011425Y002496D01*
X011397Y002464D01*
X011367Y002436D01*
X011334Y002410D01*
X011300Y002388D01*
X011263Y002368D01*
X011224Y002353D01*
X011184Y002341D01*
X011143Y002333D01*
X011102Y002329D01*
X011060Y002329D01*
X011019Y002333D01*
X010978Y002341D01*
X010938Y002353D01*
X010899Y002368D01*
X010863Y002388D01*
X010828Y002410D01*
X010795Y002436D01*
X010765Y002464D01*
X010737Y002496D01*
X010713Y002530D01*
X010693Y002566D01*
X010675Y002604D01*
X010662Y002643D01*
X010652Y002683D01*
X010646Y002724D01*
X010644Y002766D01*
X010644Y003816D02*
X010646Y003858D01*
X010652Y003899D01*
X010662Y003939D01*
X010675Y003978D01*
X010693Y004016D01*
X010713Y004052D01*
X010737Y004086D01*
X010765Y004118D01*
X010795Y004146D01*
X010828Y004172D01*
X010862Y004194D01*
X010899Y004214D01*
X010938Y004229D01*
X010978Y004241D01*
X011019Y004249D01*
X011060Y004253D01*
X011102Y004253D01*
X011143Y004249D01*
X011184Y004241D01*
X011224Y004229D01*
X011263Y004214D01*
X011299Y004194D01*
X011334Y004172D01*
X011367Y004146D01*
X011397Y004118D01*
X011425Y004086D01*
X011449Y004052D01*
X011469Y004016D01*
X011487Y003978D01*
X011500Y003939D01*
X011510Y003899D01*
X011516Y003858D01*
X011518Y003816D01*
X011516Y003774D01*
X011510Y003733D01*
X011500Y003693D01*
X011487Y003654D01*
X011469Y003616D01*
X011449Y003580D01*
X011425Y003546D01*
X011397Y003514D01*
X011367Y003486D01*
X011334Y003460D01*
X011300Y003438D01*
X011263Y003418D01*
X011224Y003403D01*
X011184Y003391D01*
X011143Y003383D01*
X011102Y003379D01*
X011060Y003379D01*
X011019Y003383D01*
X010978Y003391D01*
X010938Y003403D01*
X010899Y003418D01*
X010863Y003438D01*
X010828Y003460D01*
X010795Y003486D01*
X010765Y003514D01*
X010737Y003546D01*
X010713Y003580D01*
X010693Y003616D01*
X010675Y003654D01*
X010662Y003693D01*
X010652Y003733D01*
X010646Y003774D01*
X010644Y003816D01*
D11*
X004905Y004951D03*
X004157Y004951D03*
X004157Y005974D03*
X004531Y005974D03*
X004905Y005974D03*
D12*
X004395Y007229D03*
X003647Y007229D03*
X004021Y008096D03*
D13*
X003655Y004312D03*
X002907Y004312D03*
D14*
X002981Y007338D03*
X002981Y008086D03*
X004981Y008036D03*
X004981Y007288D03*
D15*
X005557Y007288D01*
X005681Y007412D01*
X005681Y007912D01*
X005781Y008012D01*
X008531Y008012D01*
X008581Y008062D01*
X009031Y008312D02*
X008731Y008612D01*
X008081Y008612D01*
X009031Y008312D02*
X009031Y006312D01*
X008931Y006212D01*
X008843Y006212D01*
X009031Y006024D01*
X009031Y003816D01*
X008081Y004812D02*
X008081Y002478D01*
X008369Y002766D01*
X009031Y002766D01*
X008081Y002478D02*
X008081Y001412D01*
X007981Y001312D01*
X007281Y001412D02*
X006881Y001812D01*
X006881Y006112D01*
X006981Y006212D01*
X008843Y006212D01*
X005681Y005712D02*
X005681Y003712D01*
X004905Y004136D02*
X004681Y003912D01*
X004055Y003912D01*
X003655Y004312D01*
X003681Y004338D01*
X003707Y004338D01*
X003731Y004362D01*
X003655Y004312D02*
X003647Y004321D01*
X004143Y004360D02*
X004181Y004322D01*
X004143Y004360D02*
X004143Y004951D01*
X004157Y004951D01*
X004781Y005462D02*
X004881Y005562D01*
X004881Y005950D01*
X004905Y005974D01*
X004905Y006186D01*
X004931Y006362D01*
X004905Y005974D02*
X004917Y005962D01*
X005431Y005962D01*
X005681Y005712D01*
X004905Y004951D02*
X004905Y004136D01*
X004781Y005462D02*
X003031Y005462D01*
X002531Y005962D01*
X003647Y006213D02*
X003681Y006178D01*
X003647Y006213D02*
X003647Y007229D01*
X003090Y007229D01*
X002981Y007338D01*
X002207Y007338D01*
X002181Y007312D01*
X002981Y008086D02*
X002981Y008112D01*
X003971Y008152D02*
X004031Y008062D01*
X004021Y008096D02*
X003971Y008152D01*
X004881Y008062D02*
X004981Y008036D01*
X004981Y007288D02*
X004972Y007229D01*
X004395Y007229D01*
X004331Y006712D02*
X005681Y006712D01*
X004531Y006112D02*
X004531Y005974D01*
X004157Y005974D02*
X004157Y006538D01*
X004331Y006712D01*
X002907Y004312D02*
X002831Y004312D01*
D16*
X002181Y007312D03*
X001381Y007312D03*
X000581Y007312D03*
X009031Y003816D03*
X009031Y002766D03*
D17*
X004931Y006362D03*
X004531Y006112D03*
X003681Y006178D03*
X002531Y005962D03*
X003731Y004362D03*
X004181Y004322D03*
X008581Y008062D03*
D18*
X008081Y008612D03*
X005681Y006712D03*
X004881Y008062D03*
X004031Y008062D03*
X002981Y008112D03*
X002831Y004312D03*
X005681Y003712D03*
X007281Y001412D03*
X007981Y001312D03*
X008081Y004812D03*
M02*
